<?xml version="1.0" encoding="UTF-8" standalone="no"?>
<svg
   xmlns:dc="http://purl.org/dc/elements/1.1/"
   xmlns:cc="http://creativecommons.org/ns#"
   xmlns:rdf="http://www.w3.org/1999/02/22-rdf-syntax-ns#"
   xmlns:svg="http://www.w3.org/2000/svg"
   xmlns="http://www.w3.org/2000/svg"
   viewBox="0 0 164 314.07999"
   height="314.07999"
   width="164"
   xml:space="preserve"
   id="svg2"
   version="1.1"><metadata
     id="metadata8"><rdf:RDF><cc:Work
         rdf:about=""><dc:format>image/svg+xml</dc:format><dc:type
           rdf:resource="http://purl.org/dc/dcmitype/StillImage" /></cc:Work></rdf:RDF></metadata><defs
     id="defs6"><clipPath
       id="clipPath18"
       clipPathUnits="userSpaceOnUse"><path
         style="clip-rule:evenodd"
         id="path16"
         d="M 0,4.5776e-5 H 123 V 235.56005 H 0 Z" /></clipPath><linearGradient
       id="linearGradient52"
       spreadMethod="pad"
       gradientUnits="userSpaceOnUse"
       y2="76.260002"
       x2="103.14"
       y1="242.58"
       x1="-63.419998"><stop
         id="stop26"
         offset="0"
         style="stop-opacity:1;stop-color:#7030a0" /><stop
         id="stop28"
         offset="0.094085"
         style="stop-opacity:1;stop-color:#002060" /><stop
         id="stop30"
         offset="0.155"
         style="stop-opacity:1;stop-color:#00b0f0" /><stop
         id="stop32"
         offset="0.23734"
         style="stop-opacity:1;stop-color:#00b050" /><stop
         id="stop34"
         offset="0.33524"
         style="stop-opacity:1;stop-color:#ffc000" /><stop
         id="stop36"
         offset="0.385"
         style="stop-opacity:1;stop-color:#ed7d31" /><stop
         id="stop38"
         offset="0.5"
         style="stop-opacity:1;stop-color:#c00000" /><stop
         id="stop40"
         offset="0.615"
         style="stop-opacity:1;stop-color:#ed7d31" /><stop
         id="stop42"
         offset="0.66476"
         style="stop-opacity:1;stop-color:#ffc000" /><stop
         id="stop44"
         offset="0.76266"
         style="stop-opacity:1;stop-color:#00b050" /><stop
         id="stop46"
         offset="0.845"
         style="stop-opacity:1;stop-color:#00b0f0" /><stop
         id="stop48"
         offset="0.90592"
         style="stop-opacity:1;stop-color:#002060" /><stop
         id="stop50"
         offset="1"
         style="stop-opacity:1;stop-color:#7030a0" /></linearGradient><linearGradient
       id="linearGradient74"
       spreadMethod="pad"
       gradientUnits="userSpaceOnUse"
       y2="202.31"
       x2="107.16"
       y1="228.49001"
       x1="89.635002"><stop
         id="stop60"
         offset="0"
         style="stop-opacity:1;stop-color:#c00000" /><stop
         id="stop62"
         offset="0.23"
         style="stop-opacity:1;stop-color:#ed7d31" /><stop
         id="stop64"
         offset="0.32952"
         style="stop-opacity:1;stop-color:#ffc000" /><stop
         id="stop66"
         offset="0.52532"
         style="stop-opacity:1;stop-color:#00b050" /><stop
         id="stop68"
         offset="0.69"
         style="stop-opacity:1;stop-color:#00b0f0" /><stop
         id="stop70"
         offset="0.81183"
         style="stop-opacity:1;stop-color:#002060" /><stop
         id="stop72"
         offset="1"
         style="stop-opacity:1;stop-color:#7030a0" /></linearGradient><linearGradient
       id="linearGradient94"
       spreadMethod="pad"
       gradientUnits="userSpaceOnUse"
       y2="202.31"
       x2="107.16"
       y1="228.49001"
       x1="89.635002"><stop
         id="stop80"
         offset="0"
         style="stop-opacity:1;stop-color:#c00000" /><stop
         id="stop82"
         offset="0.23"
         style="stop-opacity:1;stop-color:#ed7d31" /><stop
         id="stop84"
         offset="0.32952"
         style="stop-opacity:1;stop-color:#ffc000" /><stop
         id="stop86"
         offset="0.52532"
         style="stop-opacity:1;stop-color:#00b050" /><stop
         id="stop88"
         offset="0.69"
         style="stop-opacity:1;stop-color:#00b0f0" /><stop
         id="stop90"
         offset="0.81183"
         style="stop-opacity:1;stop-color:#002060" /><stop
         id="stop92"
         offset="1"
         style="stop-opacity:1;stop-color:#7030a0" /></linearGradient><linearGradient
       id="linearGradient114"
       spreadMethod="pad"
       gradientUnits="userSpaceOnUse"
       y2="202.31"
       x2="107.16"
       y1="228.49001"
       x1="89.635002"><stop
         id="stop100"
         offset="0"
         style="stop-opacity:1;stop-color:#c00000" /><stop
         id="stop102"
         offset="0.23"
         style="stop-opacity:1;stop-color:#ed7d31" /><stop
         id="stop104"
         offset="0.32952"
         style="stop-opacity:1;stop-color:#ffc000" /><stop
         id="stop106"
         offset="0.52532"
         style="stop-opacity:1;stop-color:#00b050" /><stop
         id="stop108"
         offset="0.69"
         style="stop-opacity:1;stop-color:#00b0f0" /><stop
         id="stop110"
         offset="0.81183"
         style="stop-opacity:1;stop-color:#002060" /><stop
         id="stop112"
         offset="1"
         style="stop-opacity:1;stop-color:#7030a0" /></linearGradient><linearGradient
       id="linearGradient134"
       spreadMethod="pad"
       gradientUnits="userSpaceOnUse"
       y2="202.31"
       x2="107.16"
       y1="228.49001"
       x1="89.635002"><stop
         id="stop120"
         offset="0"
         style="stop-opacity:1;stop-color:#c00000" /><stop
         id="stop122"
         offset="0.23"
         style="stop-opacity:1;stop-color:#ed7d31" /><stop
         id="stop124"
         offset="0.32952"
         style="stop-opacity:1;stop-color:#ffc000" /><stop
         id="stop126"
         offset="0.52532"
         style="stop-opacity:1;stop-color:#00b050" /><stop
         id="stop128"
         offset="0.69"
         style="stop-opacity:1;stop-color:#00b0f0" /><stop
         id="stop130"
         offset="0.81183"
         style="stop-opacity:1;stop-color:#002060" /><stop
         id="stop132"
         offset="1"
         style="stop-opacity:1;stop-color:#7030a0" /></linearGradient><linearGradient
       id="linearGradient154"
       spreadMethod="pad"
       gradientUnits="userSpaceOnUse"
       y2="202.31"
       x2="107.16"
       y1="228.49001"
       x1="89.635002"><stop
         id="stop140"
         offset="0"
         style="stop-opacity:1;stop-color:#c00000" /><stop
         id="stop142"
         offset="0.23"
         style="stop-opacity:1;stop-color:#ed7d31" /><stop
         id="stop144"
         offset="0.32952"
         style="stop-opacity:1;stop-color:#ffc000" /><stop
         id="stop146"
         offset="0.52532"
         style="stop-opacity:1;stop-color:#00b050" /><stop
         id="stop148"
         offset="0.69"
         style="stop-opacity:1;stop-color:#00b0f0" /><stop
         id="stop150"
         offset="0.81183"
         style="stop-opacity:1;stop-color:#002060" /><stop
         id="stop152"
         offset="1"
         style="stop-opacity:1;stop-color:#7030a0" /></linearGradient><linearGradient
       id="linearGradient174"
       spreadMethod="pad"
       gradientUnits="userSpaceOnUse"
       y2="202.31"
       x2="107.16"
       y1="228.49001"
       x1="89.635002"><stop
         id="stop160"
         offset="0"
         style="stop-opacity:1;stop-color:#c00000" /><stop
         id="stop162"
         offset="0.23"
         style="stop-opacity:1;stop-color:#ed7d31" /><stop
         id="stop164"
         offset="0.32952"
         style="stop-opacity:1;stop-color:#ffc000" /><stop
         id="stop166"
         offset="0.52532"
         style="stop-opacity:1;stop-color:#00b050" /><stop
         id="stop168"
         offset="0.69"
         style="stop-opacity:1;stop-color:#00b0f0" /><stop
         id="stop170"
         offset="0.81183"
         style="stop-opacity:1;stop-color:#002060" /><stop
         id="stop172"
         offset="1"
         style="stop-opacity:1;stop-color:#7030a0" /></linearGradient><linearGradient
       id="linearGradient194"
       spreadMethod="pad"
       gradientUnits="userSpaceOnUse"
       y2="202.31"
       x2="107.16"
       y1="228.49001"
       x1="89.635002"><stop
         id="stop180"
         offset="0"
         style="stop-opacity:1;stop-color:#c00000" /><stop
         id="stop182"
         offset="0.23"
         style="stop-opacity:1;stop-color:#ed7d31" /><stop
         id="stop184"
         offset="0.32952"
         style="stop-opacity:1;stop-color:#ffc000" /><stop
         id="stop186"
         offset="0.52532"
         style="stop-opacity:1;stop-color:#00b050" /><stop
         id="stop188"
         offset="0.69"
         style="stop-opacity:1;stop-color:#00b0f0" /><stop
         id="stop190"
         offset="0.81183"
         style="stop-opacity:1;stop-color:#002060" /><stop
         id="stop192"
         offset="1"
         style="stop-opacity:1;stop-color:#7030a0" /></linearGradient><linearGradient
       id="linearGradient214"
       spreadMethod="pad"
       gradientUnits="userSpaceOnUse"
       y2="202.31"
       x2="107.16"
       y1="228.49001"
       x1="89.635002"><stop
         id="stop200"
         offset="0"
         style="stop-opacity:1;stop-color:#c00000" /><stop
         id="stop202"
         offset="0.23"
         style="stop-opacity:1;stop-color:#ed7d31" /><stop
         id="stop204"
         offset="0.32952"
         style="stop-opacity:1;stop-color:#ffc000" /><stop
         id="stop206"
         offset="0.52532"
         style="stop-opacity:1;stop-color:#00b050" /><stop
         id="stop208"
         offset="0.69"
         style="stop-opacity:1;stop-color:#00b0f0" /><stop
         id="stop210"
         offset="0.81183"
         style="stop-opacity:1;stop-color:#002060" /><stop
         id="stop212"
         offset="1"
         style="stop-opacity:1;stop-color:#7030a0" /></linearGradient><linearGradient
       id="linearGradient234"
       spreadMethod="pad"
       gradientUnits="userSpaceOnUse"
       y2="202.31"
       x2="107.16"
       y1="228.49001"
       x1="89.635002"><stop
         id="stop220"
         offset="0"
         style="stop-opacity:1;stop-color:#c00000" /><stop
         id="stop222"
         offset="0.23"
         style="stop-opacity:1;stop-color:#ed7d31" /><stop
         id="stop224"
         offset="0.32952"
         style="stop-opacity:1;stop-color:#ffc000" /><stop
         id="stop226"
         offset="0.52532"
         style="stop-opacity:1;stop-color:#00b050" /><stop
         id="stop228"
         offset="0.69"
         style="stop-opacity:1;stop-color:#00b0f0" /><stop
         id="stop230"
         offset="0.81183"
         style="stop-opacity:1;stop-color:#002060" /><stop
         id="stop232"
         offset="1"
         style="stop-opacity:1;stop-color:#7030a0" /></linearGradient><linearGradient
       id="linearGradient254"
       spreadMethod="pad"
       gradientUnits="userSpaceOnUse"
       y2="202.31"
       x2="107.16"
       y1="228.49001"
       x1="89.635002"><stop
         id="stop240"
         offset="0"
         style="stop-opacity:1;stop-color:#c00000" /><stop
         id="stop242"
         offset="0.23"
         style="stop-opacity:1;stop-color:#ed7d31" /><stop
         id="stop244"
         offset="0.32952"
         style="stop-opacity:1;stop-color:#ffc000" /><stop
         id="stop246"
         offset="0.52532"
         style="stop-opacity:1;stop-color:#00b050" /><stop
         id="stop248"
         offset="0.69"
         style="stop-opacity:1;stop-color:#00b0f0" /><stop
         id="stop250"
         offset="0.81183"
         style="stop-opacity:1;stop-color:#002060" /><stop
         id="stop252"
         offset="1"
         style="stop-opacity:1;stop-color:#7030a0" /></linearGradient><linearGradient
       id="linearGradient274"
       spreadMethod="pad"
       gradientUnits="userSpaceOnUse"
       y2="202.31"
       x2="107.16"
       y1="228.49001"
       x1="89.635002"><stop
         id="stop260"
         offset="0"
         style="stop-opacity:1;stop-color:#c00000" /><stop
         id="stop262"
         offset="0.23"
         style="stop-opacity:1;stop-color:#ed7d31" /><stop
         id="stop264"
         offset="0.32952"
         style="stop-opacity:1;stop-color:#ffc000" /><stop
         id="stop266"
         offset="0.52532"
         style="stop-opacity:1;stop-color:#00b050" /><stop
         id="stop268"
         offset="0.69"
         style="stop-opacity:1;stop-color:#00b0f0" /><stop
         id="stop270"
         offset="0.81183"
         style="stop-opacity:1;stop-color:#002060" /><stop
         id="stop272"
         offset="1"
         style="stop-opacity:1;stop-color:#7030a0" /></linearGradient><linearGradient
       id="linearGradient294"
       spreadMethod="pad"
       gradientUnits="userSpaceOnUse"
       y2="202.31"
       x2="107.16"
       y1="228.49001"
       x1="89.635002"><stop
         id="stop280"
         offset="0"
         style="stop-opacity:1;stop-color:#c00000" /><stop
         id="stop282"
         offset="0.23"
         style="stop-opacity:1;stop-color:#ed7d31" /><stop
         id="stop284"
         offset="0.32952"
         style="stop-opacity:1;stop-color:#ffc000" /><stop
         id="stop286"
         offset="0.52532"
         style="stop-opacity:1;stop-color:#00b050" /><stop
         id="stop288"
         offset="0.69"
         style="stop-opacity:1;stop-color:#00b0f0" /><stop
         id="stop290"
         offset="0.81183"
         style="stop-opacity:1;stop-color:#002060" /><stop
         id="stop292"
         offset="1"
         style="stop-opacity:1;stop-color:#7030a0" /></linearGradient><linearGradient
       id="linearGradient314"
       spreadMethod="pad"
       gradientUnits="userSpaceOnUse"
       y2="202.31"
       x2="107.16"
       y1="228.49001"
       x1="89.635002"><stop
         id="stop300"
         offset="0"
         style="stop-opacity:1;stop-color:#c00000" /><stop
         id="stop302"
         offset="0.23"
         style="stop-opacity:1;stop-color:#ed7d31" /><stop
         id="stop304"
         offset="0.32952"
         style="stop-opacity:1;stop-color:#ffc000" /><stop
         id="stop306"
         offset="0.52532"
         style="stop-opacity:1;stop-color:#00b050" /><stop
         id="stop308"
         offset="0.69"
         style="stop-opacity:1;stop-color:#00b0f0" /><stop
         id="stop310"
         offset="0.81183"
         style="stop-opacity:1;stop-color:#002060" /><stop
         id="stop312"
         offset="1"
         style="stop-opacity:1;stop-color:#7030a0" /></linearGradient><linearGradient
       id="linearGradient334"
       spreadMethod="pad"
       gradientUnits="userSpaceOnUse"
       y2="202.31"
       x2="107.16"
       y1="228.49001"
       x1="89.635002"><stop
         id="stop320"
         offset="0"
         style="stop-opacity:1;stop-color:#c00000" /><stop
         id="stop322"
         offset="0.23"
         style="stop-opacity:1;stop-color:#ed7d31" /><stop
         id="stop324"
         offset="0.32952"
         style="stop-opacity:1;stop-color:#ffc000" /><stop
         id="stop326"
         offset="0.52532"
         style="stop-opacity:1;stop-color:#00b050" /><stop
         id="stop328"
         offset="0.69"
         style="stop-opacity:1;stop-color:#00b0f0" /><stop
         id="stop330"
         offset="0.81183"
         style="stop-opacity:1;stop-color:#002060" /><stop
         id="stop332"
         offset="1"
         style="stop-opacity:1;stop-color:#7030a0" /></linearGradient><linearGradient
       id="linearGradient362"
       spreadMethod="pad"
       gradientUnits="userSpaceOnUse"
       y2="10.32"
       x2="19.98"
       y1="25.68"
       x1="19.98"><stop
         id="stop340"
         offset="0"
         style="stop-opacity:1;stop-color:#00b050" /><stop
         id="stop342"
         offset="0.085"
         style="stop-opacity:1;stop-color:#00b050" /><stop
         id="stop344"
         offset="0.14"
         style="stop-opacity:1;stop-color:#0070c0" /><stop
         id="stop346"
         offset="0.305"
         style="stop-opacity:1;stop-color:#7030a0" /><stop
         id="stop348"
         offset="0.395"
         style="stop-opacity:1;stop-color:#ff0000" /><stop
         id="stop350"
         offset="0.5"
         style="stop-opacity:1;stop-color:#ffff00" /><stop
         id="stop352"
         offset="0.605"
         style="stop-opacity:1;stop-color:#ff0000" /><stop
         id="stop354"
         offset="0.695"
         style="stop-opacity:1;stop-color:#7030a0" /><stop
         id="stop356"
         offset="0.86"
         style="stop-opacity:1;stop-color:#0070c0" /><stop
         id="stop358"
         offset="0.915"
         style="stop-opacity:1;stop-color:#00b050" /><stop
         id="stop360"
         offset="1"
         style="stop-opacity:1;stop-color:#00b050" /></linearGradient><clipPath
       id="clipPath372"
       clipPathUnits="userSpaceOnUse"><path
         style="clip-rule:evenodd"
         id="path370"
         d="M 5.258e-6,235.56 H 123 V 0 L 1.555e-5,1.5259e-5" /></clipPath><linearGradient
       id="linearGradient400"
       spreadMethod="pad"
       gradientUnits="userSpaceOnUse"
       y2="1.4638"
       x2="-9.6654997"
       y1="64.708"
       x1="46.921001"><stop
         id="stop374"
         offset="0"
         style="stop-opacity:1;stop-color:#7030a0" /><stop
         id="stop376"
         offset="0.08"
         style="stop-opacity:1;stop-color:#0070c0" /><stop
         id="stop378"
         offset="0.17333"
         style="stop-opacity:1;stop-color:#00b050" /><stop
         id="stop380"
         offset="0.25877"
         style="stop-opacity:1;stop-color:#ffff00" /><stop
         id="stop382"
         offset="0.33333"
         style="stop-opacity:1;stop-color:#ff0000" /><stop
         id="stop384"
         offset="0.40789"
         style="stop-opacity:1;stop-color:#ffff00" /><stop
         id="stop386"
         offset="0.49333"
         style="stop-opacity:1;stop-color:#00b050" /><stop
         id="stop388"
         offset="0.58667"
         style="stop-opacity:1;stop-color:#0070c0" /><stop
         id="stop390"
         offset="0.66667"
         style="stop-opacity:1;stop-color:#7030a0" /><stop
         id="stop392"
         offset="0.74667"
         style="stop-opacity:1;stop-color:#0070c0" /><stop
         id="stop394"
         offset="0.84"
         style="stop-opacity:1;stop-color:#00b050" /><stop
         id="stop396"
         offset="0.92544"
         style="stop-opacity:1;stop-color:#ffff00" /><stop
         id="stop398"
         offset="1"
         style="stop-opacity:1;stop-color:#ff0000" /></linearGradient><linearGradient
       id="linearGradient420"
       spreadMethod="pad"
       gradientUnits="userSpaceOnUse"
       y2="24.593"
       x2="112.31"
       y1="49.087002"
       x1="84.25"><stop
         id="stop406"
         offset="0"
         style="stop-opacity:1;stop-color:#c00000" /><stop
         id="stop408"
         offset="0.23"
         style="stop-opacity:1;stop-color:#ed7d31" /><stop
         id="stop410"
         offset="0.32952"
         style="stop-opacity:1;stop-color:#ffc000" /><stop
         id="stop412"
         offset="0.52532"
         style="stop-opacity:1;stop-color:#00b050" /><stop
         id="stop414"
         offset="0.69"
         style="stop-opacity:1;stop-color:#00b0f0" /><stop
         id="stop416"
         offset="0.81183"
         style="stop-opacity:1;stop-color:#002060" /><stop
         id="stop418"
         offset="1"
         style="stop-opacity:1;stop-color:#7030a0" /></linearGradient><linearGradient
       id="linearGradient440"
       spreadMethod="pad"
       gradientUnits="userSpaceOnUse"
       y2="24.593"
       x2="112.31"
       y1="49.087002"
       x1="84.25"><stop
         id="stop426"
         offset="0"
         style="stop-opacity:1;stop-color:#c00000" /><stop
         id="stop428"
         offset="0.23"
         style="stop-opacity:1;stop-color:#ed7d31" /><stop
         id="stop430"
         offset="0.32952"
         style="stop-opacity:1;stop-color:#ffc000" /><stop
         id="stop432"
         offset="0.52532"
         style="stop-opacity:1;stop-color:#00b050" /><stop
         id="stop434"
         offset="0.69"
         style="stop-opacity:1;stop-color:#00b0f0" /><stop
         id="stop436"
         offset="0.81183"
         style="stop-opacity:1;stop-color:#002060" /><stop
         id="stop438"
         offset="1"
         style="stop-opacity:1;stop-color:#7030a0" /></linearGradient><clipPath
       id="clipPath450"
       clipPathUnits="userSpaceOnUse"><path
         style="clip-rule:evenodd"
         id="path448"
         d="M 5.104e-6,235.56 H 123 V 4.5776e-5 H -4.739e-6" /></clipPath><linearGradient
       id="linearGradient466"
       spreadMethod="pad"
       gradientUnits="userSpaceOnUse"
       y2="24.593"
       x2="112.31"
       y1="49.087002"
       x1="84.25"><stop
         id="stop452"
         offset="0"
         style="stop-opacity:1;stop-color:#c00000" /><stop
         id="stop454"
         offset="0.23"
         style="stop-opacity:1;stop-color:#ed7d31" /><stop
         id="stop456"
         offset="0.32952"
         style="stop-opacity:1;stop-color:#ffc000" /><stop
         id="stop458"
         offset="0.52532"
         style="stop-opacity:1;stop-color:#00b050" /><stop
         id="stop460"
         offset="0.69"
         style="stop-opacity:1;stop-color:#00b0f0" /><stop
         id="stop462"
         offset="0.81183"
         style="stop-opacity:1;stop-color:#002060" /><stop
         id="stop464"
         offset="1"
         style="stop-opacity:1;stop-color:#7030a0" /></linearGradient><linearGradient
       id="linearGradient486"
       spreadMethod="pad"
       gradientUnits="userSpaceOnUse"
       y2="24.593"
       x2="112.31"
       y1="49.087002"
       x1="84.25"><stop
         id="stop472"
         offset="0"
         style="stop-opacity:1;stop-color:#c00000" /><stop
         id="stop474"
         offset="0.23"
         style="stop-opacity:1;stop-color:#ed7d31" /><stop
         id="stop476"
         offset="0.32952"
         style="stop-opacity:1;stop-color:#ffc000" /><stop
         id="stop478"
         offset="0.52532"
         style="stop-opacity:1;stop-color:#00b050" /><stop
         id="stop480"
         offset="0.69"
         style="stop-opacity:1;stop-color:#00b0f0" /><stop
         id="stop482"
         offset="0.81183"
         style="stop-opacity:1;stop-color:#002060" /><stop
         id="stop484"
         offset="1"
         style="stop-opacity:1;stop-color:#7030a0" /></linearGradient><linearGradient
       id="linearGradient506"
       spreadMethod="pad"
       gradientUnits="userSpaceOnUse"
       y2="24.593"
       x2="112.31"
       y1="49.087002"
       x1="84.25"><stop
         id="stop492"
         offset="0"
         style="stop-opacity:1;stop-color:#c00000" /><stop
         id="stop494"
         offset="0.23"
         style="stop-opacity:1;stop-color:#ed7d31" /><stop
         id="stop496"
         offset="0.32952"
         style="stop-opacity:1;stop-color:#ffc000" /><stop
         id="stop498"
         offset="0.52532"
         style="stop-opacity:1;stop-color:#00b050" /><stop
         id="stop500"
         offset="0.69"
         style="stop-opacity:1;stop-color:#00b0f0" /><stop
         id="stop502"
         offset="0.81183"
         style="stop-opacity:1;stop-color:#002060" /><stop
         id="stop504"
         offset="1"
         style="stop-opacity:1;stop-color:#7030a0" /></linearGradient><linearGradient
       id="linearGradient538"
       spreadMethod="pad"
       gradientUnits="userSpaceOnUse"
       y2="4.9875998"
       x2="71.427002"
       y1="59.917"
       x1="28.6"><stop
         id="stop512"
         offset="0"
         style="stop-opacity:1;stop-color:#7030a0" /><stop
         id="stop514"
         offset="0.094085"
         style="stop-opacity:1;stop-color:#002060" /><stop
         id="stop516"
         offset="0.155"
         style="stop-opacity:1;stop-color:#00b0f0" /><stop
         id="stop518"
         offset="0.23734"
         style="stop-opacity:1;stop-color:#00b050" /><stop
         id="stop520"
         offset="0.33524"
         style="stop-opacity:1;stop-color:#ffc000" /><stop
         id="stop522"
         offset="0.385"
         style="stop-opacity:1;stop-color:#ed7d31" /><stop
         id="stop524"
         offset="0.5"
         style="stop-opacity:1;stop-color:#c00000" /><stop
         id="stop526"
         offset="0.615"
         style="stop-opacity:1;stop-color:#ed7d31" /><stop
         id="stop528"
         offset="0.66476"
         style="stop-opacity:1;stop-color:#ffc000" /><stop
         id="stop530"
         offset="0.76266"
         style="stop-opacity:1;stop-color:#00b050" /><stop
         id="stop532"
         offset="0.845"
         style="stop-opacity:1;stop-color:#00b0f0" /><stop
         id="stop534"
         offset="0.90592"
         style="stop-opacity:1;stop-color:#002060" /><stop
         id="stop536"
         offset="1"
         style="stop-opacity:1;stop-color:#7030a0" /></linearGradient><linearGradient
       id="linearGradient582"
       spreadMethod="pad"
       gradientUnits="userSpaceOnUse"
       y2="168.38"
       x2="67.894997"
       y1="250.78"
       x1="-17.375"><stop
         id="stop544"
         offset="0"
         style="stop-opacity:1;stop-color:#7030a0" /><stop
         id="stop546"
         offset="0.062723"
         style="stop-opacity:1;stop-color:#002060" /><stop
         id="stop548"
         offset="0.10333"
         style="stop-opacity:1;stop-color:#00b0f0" /><stop
         id="stop550"
         offset="0.15823"
         style="stop-opacity:1;stop-color:#00b050" /><stop
         id="stop552"
         offset="0.22349"
         style="stop-opacity:1;stop-color:#ffc000" /><stop
         id="stop554"
         offset="0.25667"
         style="stop-opacity:1;stop-color:#ed7d31" /><stop
         id="stop556"
         offset="0.33333"
         style="stop-opacity:1;stop-color:#c00000" /><stop
         id="stop558"
         offset="0.41"
         style="stop-opacity:1;stop-color:#ed7d31" /><stop
         id="stop560"
         offset="0.44317"
         style="stop-opacity:1;stop-color:#ffc000" /><stop
         id="stop562"
         offset="0.50844"
         style="stop-opacity:1;stop-color:#00b050" /><stop
         id="stop564"
         offset="0.56333"
         style="stop-opacity:1;stop-color:#00b0f0" /><stop
         id="stop566"
         offset="0.60394"
         style="stop-opacity:1;stop-color:#002060" /><stop
         id="stop568"
         offset="0.66667"
         style="stop-opacity:1;stop-color:#7030a0" /><stop
         id="stop570"
         offset="0.72939"
         style="stop-opacity:1;stop-color:#002060" /><stop
         id="stop572"
         offset="0.77"
         style="stop-opacity:1;stop-color:#00b0f0" /><stop
         id="stop574"
         offset="0.82489"
         style="stop-opacity:1;stop-color:#00b050" /><stop
         id="stop576"
         offset="0.89016"
         style="stop-opacity:1;stop-color:#ffc000" /><stop
         id="stop578"
         offset="0.92333"
         style="stop-opacity:1;stop-color:#ed7d31" /><stop
         id="stop580"
         offset="1"
         style="stop-opacity:1;stop-color:#c00000" /></linearGradient><linearGradient
       id="linearGradient610"
       spreadMethod="pad"
       gradientUnits="userSpaceOnUse"
       y2="180.7"
       x2="68.029999"
       y1="218.89999"
       x1="68.029999"><stop
         id="stop588"
         offset="0"
         style="stop-opacity:1;stop-color:#7030a0" /><stop
         id="stop590"
         offset="0.095"
         style="stop-opacity:1;stop-color:#0070c0" /><stop
         id="stop592"
         offset="0.255"
         style="stop-opacity:1;stop-color:#00b050" /><stop
         id="stop594"
         offset="0.4"
         style="stop-opacity:1;stop-color:#ffff00" /><stop
         id="stop596"
         offset="0.45"
         style="stop-opacity:1;stop-color:#e59700" /><stop
         id="stop598"
         offset="0.5"
         style="stop-opacity:1;stop-color:#c00000" /><stop
         id="stop600"
         offset="0.55"
         style="stop-opacity:1;stop-color:#e59700" /><stop
         id="stop602"
         offset="0.6"
         style="stop-opacity:1;stop-color:#ffff00" /><stop
         id="stop604"
         offset="0.745"
         style="stop-opacity:1;stop-color:#00b050" /><stop
         id="stop606"
         offset="0.905"
         style="stop-opacity:1;stop-color:#0070c0" /><stop
         id="stop608"
         offset="1"
         style="stop-opacity:1;stop-color:#7030a0" /></linearGradient><linearGradient
       id="linearGradient638"
       spreadMethod="pad"
       gradientUnits="userSpaceOnUse"
       y2="205.53999"
       x2="67.994003"
       y1="167.35001"
       x1="67.994003"><stop
         id="stop616"
         offset="0"
         style="stop-opacity:1;stop-color:#7030a0" /><stop
         id="stop618"
         offset="0.095"
         style="stop-opacity:1;stop-color:#0070c0" /><stop
         id="stop620"
         offset="0.255"
         style="stop-opacity:1;stop-color:#00b050" /><stop
         id="stop622"
         offset="0.4"
         style="stop-opacity:1;stop-color:#ffff00" /><stop
         id="stop624"
         offset="0.45"
         style="stop-opacity:1;stop-color:#e59700" /><stop
         id="stop626"
         offset="0.5"
         style="stop-opacity:1;stop-color:#c00000" /><stop
         id="stop628"
         offset="0.55"
         style="stop-opacity:1;stop-color:#e59700" /><stop
         id="stop630"
         offset="0.6"
         style="stop-opacity:1;stop-color:#ffff00" /><stop
         id="stop632"
         offset="0.745"
         style="stop-opacity:1;stop-color:#00b050" /><stop
         id="stop634"
         offset="0.905"
         style="stop-opacity:1;stop-color:#0070c0" /><stop
         id="stop636"
         offset="1"
         style="stop-opacity:1;stop-color:#7030a0" /></linearGradient></defs><g
     transform="matrix(1.3333333,0,0,-1.3333333,0,314.08)"
     id="g10"><g
       id="g12"><g
         clip-path="url(#clipPath18)"
         id="g14"><path
           id="path20"
           style="fill:#ffffff;fill-opacity:1;fill-rule:evenodd;stroke:none"
           d="M 0,1.5259e-5 H 123 V 235.56002 H 0 Z" /></g></g><path
       id="path22"
       style="fill:#000000;fill-opacity:1;fill-rule:evenodd;stroke:none"
       d="m 10.44,117.78 c 0,28.2 22.86,51.06 51.06,51.06 28.2,0 51.06,-22.86 51.06,-51.06 0,-28.2 -22.86,-51.06 -51.06,-51.06 -28.2,0 -51.06,22.86 -51.06,51.06 z" /><g
       id="g24"><path
         id="path54"
         style="fill:url(#linearGradient52);fill-opacity:1;fill-rule:evenodd;stroke:none"
         d="m 19.92,117.84 c 0,23 18.616,41.64 41.58,41.64 22.964,0 41.58,-18.64 41.58,-41.64 0,-22.997 -18.616,-41.64 -41.58,-41.64 -22.964,0 -41.58,18.643 -41.58,41.64 z" /></g><path
       id="path56"
       style="fill:#ffffff;fill-opacity:1;fill-rule:evenodd;stroke:none"
       d="m 69.329,136.42 c 4.024,-0.18 7.714,-1.78 10.556,-4.32 3.248,-2.91 5.387,-7.05 5.648,-11.75 0.522,-9.4 -6.667,-17.44 -16.057,-17.96 h -0.051 l 0.099,-0.17 c 0.627,-1.32 0.441,-2.954 -0.599,-4.117 -1.387,-1.551 -3.768,-1.683 -5.318,-0.296 l -0.576,0.516 C 58.26,92.988 48.442,82.124 40.675,73.506 L 39.21,71.88 37.181,72.92 c -5.061,2.751 -9.606,6.333 -13.45,10.565 l -0.331,0.382 24.8,27.733 -0.576,0.51 c -1.55,1.39 -1.683,3.77 -0.296,5.32 1.04,1.17 2.639,1.53 4.028,1.06 l 0.175,-0.08 -0.003,0.05 c -0.522,9.39 6.668,17.43 16.058,17.95 0.587,0.04 1.168,0.04 1.743,0.01 z" /><g
       id="g58"><path
         id="path76"
         style="fill:url(#linearGradient74);fill-opacity:1;fill-rule:evenodd;stroke:none"
         d="m 98.76,224.22 c 0,0.36 0.295,0.66 0.66,0.66 v 0 c 0.365,0 0.66,-0.3 0.66,-0.66 v -17.64 c 0,-0.36 -0.295,-0.66 -0.66,-0.66 v 0 c -0.365,0 -0.66,0.3 -0.66,0.66 z" /></g><g
       id="g78"><path
         id="path96"
         style="fill:url(#linearGradient94);fill-opacity:1;fill-rule:evenodd;stroke:none"
         d="m 100.8,222.42 c 0,0.36 0.3,0.66 0.66,0.66 v 0 c 0.36,0 0.66,-0.3 0.66,-0.66 v -14.04 c 0,-0.36 -0.3,-0.66 -0.66,-0.66 v 0 c -0.36,0 -0.66,0.3 -0.66,0.66 z" /></g><g
       id="g98"><path
         id="path116"
         style="fill:url(#linearGradient114);fill-opacity:1;fill-rule:evenodd;stroke:none"
         d="m 102.96,220.74 c 0,0.36 0.3,0.66 0.66,0.66 v 0 c 0.36,0 0.66,-0.3 0.66,-0.66 v -10.68 c 0,-0.36 -0.3,-0.66 -0.66,-0.66 v 0 c -0.36,0 -0.66,0.3 -0.66,0.66 z" /></g><g
       id="g118"><path
         id="path136"
         style="fill:url(#linearGradient134);fill-opacity:1;fill-rule:evenodd;stroke:none"
         d="m 105,218.82 c 0,0.36 0.3,0.66 0.66,0.66 v 0 c 0.36,0 0.66,-0.3 0.66,-0.66 v -6.84 c 0,-0.36 -0.3,-0.66 -0.66,-0.66 v 0 c -0.36,0 -0.66,0.3 -0.66,0.66 z" /></g><g
       id="g138"><path
         id="path156"
         style="fill:url(#linearGradient154);fill-opacity:1;fill-rule:evenodd;stroke:none"
         d="m 107.04,217.62 c 0,0.36 0.3,0.66 0.66,0.66 v 0 c 0.36,0 0.66,-0.3 0.66,-0.66 v -4.44 c 0,-0.36 -0.3,-0.66 -0.66,-0.66 v 0 c -0.36,0 -0.66,0.3 -0.66,0.66 z" /></g><g
       id="g158"><path
         id="path176"
         style="fill:url(#linearGradient174);fill-opacity:1;fill-rule:evenodd;stroke:none"
         d="m 109.2,217.02 c 0,0.36 0.3,0.66 0.66,0.66 v 0 c 0.36,0 0.66,-0.3 0.66,-0.66 v -3.24 c 0,-0.36 -0.3,-0.66 -0.66,-0.66 v 0 c -0.36,0 -0.66,0.3 -0.66,0.66 z" /></g><g
       id="g178"><path
         id="path196"
         style="fill:url(#linearGradient194);fill-opacity:1;fill-rule:evenodd;stroke:none"
         d="m 96.72,220.44 c 0,0.33 0.269,0.6 0.6,0.6 v 0 c 0.331,0 0.6,-0.27 0.6,-0.6 v -10.08 c 0,-0.33 -0.269,-0.6 -0.6,-0.6 v 0 c -0.331,0 -0.6,0.27 -0.6,0.6 z" /></g><g
       id="g198"><path
         id="path216"
         style="fill:url(#linearGradient214);fill-opacity:1;fill-rule:evenodd;stroke:none"
         d="m 94.56,218.34 c 0,0.36 0.295,0.66 0.66,0.66 v 0 c 0.365,0 0.66,-0.3 0.66,-0.66 v -5.88 c 0,-0.36 -0.295,-0.66 -0.66,-0.66 v 0 c -0.365,0 -0.66,0.3 -0.66,0.66 z" /></g><g
       id="g218"><path
         id="path236"
         style="fill:url(#linearGradient234);fill-opacity:1;fill-rule:evenodd;stroke:none"
         d="m 92.52,217.14 c 0,0.36 0.295,0.66 0.66,0.66 v 0 c 0.365,0 0.66,-0.3 0.66,-0.66 v -3.48 c 0,-0.36 -0.295,-0.66 -0.66,-0.66 v 0 c -0.365,0 -0.66,0.3 -0.66,0.66 z" /></g><g
       id="g238"><path
         id="path256"
         style="fill:url(#linearGradient254);fill-opacity:1;fill-rule:evenodd;stroke:none"
         d="m 90.48,221.04 c 0,0.33 0.269,0.6 0.6,0.6 v 0 c 0.331,0 0.6,-0.27 0.6,-0.6 v -11.28 c 0,-0.33 -0.269,-0.6 -0.6,-0.6 v 0 c -0.331,0 -0.6,0.27 -0.6,0.6 z" /></g><g
       id="g258"><path
         id="path276"
         style="fill:url(#linearGradient274);fill-opacity:1;fill-rule:evenodd;stroke:none"
         d="m 88.32,218.82 c 0,0.36 0.295,0.66 0.66,0.66 v 0 c 0.365,0 0.66,-0.3 0.66,-0.66 v -6.84 c 0,-0.36 -0.295,-0.66 -0.66,-0.66 v 0 c -0.365,0 -0.66,0.3 -0.66,0.66 z" /></g><g
       id="g278"><path
         id="path296"
         style="fill:url(#linearGradient294);fill-opacity:1;fill-rule:evenodd;stroke:none"
         d="m 111.24,216.06 c 0,0.36 0.3,0.66 0.66,0.66 v 0 c 0.36,0 0.66,-0.3 0.66,-0.66 v -1.32 c 0,-0.36 -0.3,-0.66 -0.66,-0.66 v 0 c -0.36,0 -0.66,0.3 -0.66,0.66 z" /></g><g
       id="g298"><path
         id="path316"
         style="fill:url(#linearGradient314);fill-opacity:1;fill-rule:evenodd;stroke:none"
         d="m 86.28,217.02 c 0,0.36 0.295,0.66 0.66,0.66 v 0 c 0.365,0 0.66,-0.3 0.66,-0.66 v -3.24 c 0,-0.36 -0.295,-0.66 -0.66,-0.66 v 0 c -0.365,0 -0.66,0.3 -0.66,0.66 z" /></g><g
       id="g318"><path
         id="path336"
         style="fill:url(#linearGradient334);fill-opacity:1;fill-rule:evenodd;stroke:none"
         d="m 84.24,216.12 c 0,0.33 0.269,0.6 0.6,0.6 v 0 c 0.331,0 0.6,-0.27 0.6,-0.6 v -1.44 c 0,-0.33 -0.269,-0.6 -0.6,-0.6 v 0 c -0.331,0 -0.6,0.27 -0.6,0.6 z" /></g><g
       id="g338"><path
         id="path364"
         style="fill:url(#linearGradient362);fill-opacity:1;fill-rule:nonzero;stroke:none"
         d="m 11.133,23.441 -0.75,-0.69 -0.5687,-0.686 -0.4747,-0.713 -0.3422,-0.684 0.0443,0.106 -0.24,-0.713 -0.033,-0.212 -0.0023,-0.18 -0.0042,0.132 0.03,-0.255 -0.0401,0.171 0.075,-0.21 -0.1142,0.211 0.12,-0.158 -0.207,0.189 0.18,-0.113 -0.2082,0.092 0.2475,-0.068 0.2426,-0.035 0.323,-0.014 0.4217,0.002 0.4725,0.028 0.525,0.057 1.181,0.203 1.241,0.324 1.231,0.457 1.141,0.598 0.482,0.335 0.46,0.384 0.862,0.814 0.751,0.744 0.695,0.657 0.66,0.551 0.707,0.451 c 0.044,0.028 0.091,0.051 0.14,0.069 l 0.66,0.248 c 0.058,0.022 0.118,0.036 0.179,0.044 l 0.735,0.09 c 0.054,0.006 0.109,0.007 0.163,0.003 l 0.855,-0.075 c 0.038,-0.004 0.076,-0.01 0.113,-0.019 l 0.472,-0.112 0.551,-0.173 0.57,-0.232 0.569,-0.275 1.143,-0.655 1.186,-0.794 1.212,-0.909 1.218,-0.974 1.241,-1.029 1.236,-1.048 c 0.329,-0.278 0.37,-0.771 0.091,-1.099 -0.279,-0.329 -0.771,-0.37 -1.099,-0.091 l -1.224,1.037 -1.219,1.011 -1.182,0.946 -1.143,0.861 -1.094,0.736 -1.047,0.605 -0.481,0.235 -0.45,0.188 -0.439,0.142 -0.473,0.113 0.113,-0.019 -0.855,0.075 0.163,0.003 -0.735,-0.09 0.179,0.044 -0.66,-0.247 0.14,0.069 -0.538,-0.329 -0.585,-0.484 -0.67,-0.633 -0.779,-0.771 -0.938,-0.881 -0.575,-0.471 -0.643,-0.43 -1.319,-0.677 -1.379,-0.503 -1.369,-0.351 -1.279,-0.217 -0.6,-0.063 -0.5625,-0.031 -0.5083,10e-4 -0.487,0.031 -0.4024,0.07 -0.2475,0.067 c -0.0735,0.021 -0.1436,0.051 -0.2082,0.092 l -0.18,0.112 c -0.0798,0.05 -0.15,0.114 -0.207,0.189 l -0.12,0.157 c -0.0487,0.064 -0.0872,0.135 -0.1142,0.211 l -0.075,0.21 c -0.0197,0.055 -0.0332,0.112 -0.0401,0.171 l -0.03,0.255 c -0.0051,0.044 -0.0065,0.088 -0.0042,0.132 l 0.0277,0.39 0.087,0.418 0.24,0.712 c 0.0122,0.037 0.027,0.072 0.0443,0.106 l 0.4378,0.846 0.5753,0.847 0.7062,0.829 0.7501,0.69 c 0.317,0.292 0.81,0.271 1.102,-0.046 0.292,-0.317 0.271,-0.81 -0.046,-1.102 z" /></g><g
       id="g366"><g
         clip-path="url(#clipPath372)"
         id="g368"><path
           id="path402"
           style="fill:url(#linearGradient400);fill-opacity:1;fill-rule:evenodd;stroke:none"
           d="m 28.059,43.627 c -0.895,0.8 -2.095,1.26 -3.389,1.188 -2.587,-0.144 -4.568,-2.358 -4.424,-4.945 l 0.001,-0.014 -0.048,0.023 c -0.383,0.13 -0.824,0.03 -1.11,-0.29 -0.382,-0.427 -0.346,-1.083 0.081,-1.465 L 19.329,37.981 8.9815,26.416 C 7.972,25.288 8.0683,23.555 9.1966,22.545 v 0 c 1.1284,-1.009 2.8614,-0.913 3.8704,0.215 l 10.348,11.566 0.159,-0.142 c 0.427,-0.382 1.083,-0.346 1.465,0.081 0.286,0.32 0.338,0.769 0.165,1.135 l -0.027,0.045 0.014,10e-4 c 2.587,0.144 4.567,2.358 4.424,4.945 -0.072,1.293 -0.662,2.435 -1.556,3.236 z" /></g></g><g
       id="g404"><path
         id="path422"
         style="fill:url(#linearGradient420);fill-opacity:1;fill-rule:evenodd;stroke:none"
         d="m 85.92,26.82 c 0,2.286 2.095,4.14 4.68,4.14 2.585,0 4.68,-1.854 4.68,-4.14 0,-2.286 -2.095,-4.14 -4.68,-4.14 -2.585,0 -4.68,1.854 -4.68,4.14 z" /></g><g
       id="g424"><path
         id="path442"
         style="fill:url(#linearGradient440);fill-opacity:1;fill-rule:evenodd;stroke:none"
         d="m 101.16,30.9 c 0,2.286 2.12,4.14 4.74,4.14 2.62,0 4.74,-1.854 4.74,-4.14 0,-2.286 -2.12,-4.14 -4.74,-4.14 -2.62,0 -4.74,1.854 -4.74,4.14 z" /></g><g
       id="g444"><g
         clip-path="url(#clipPath450)"
         id="g446"><path
           id="path468"
           style="fill:url(#linearGradient466);fill-opacity:1;fill-rule:evenodd;stroke:none"
           d="M 110.64,51 V 44.803 L 93.24,40.44 v 6.197 z" /></g></g><g
       id="g470"><path
         id="path488"
         style="fill:url(#linearGradient486);fill-opacity:1;fill-rule:evenodd;stroke:none"
         d="m 108.6,30.96 h 2.04 V 47.4 h -2.04 z" /></g><g
       id="g490"><path
         id="path508"
         style="fill:url(#linearGradient506);fill-opacity:1;fill-rule:evenodd;stroke:none"
         d="M 93.24,26.76 H 95.4 V 45.48 H 93.24 Z" /></g><g
       id="g510"><path
         id="path540"
         style="fill:url(#linearGradient538);fill-opacity:1;fill-rule:evenodd;stroke:none"
         d="m 72.225,10.822 c -0.058,0 -0.106,-0.047 -0.106,-0.106 V 8.9911 c 0,-0.0584 0.048,-0.1056 0.106,-0.1056 h 1.265 c 0.058,0 0.105,0.0472 0.105,0.1056 v 1.7249 c 0,0.059 -0.047,0.106 -0.105,0.106 z m -3.04,0 c -0.058,0 -0.105,-0.047 -0.105,-0.106 V 8.9911 c 0,-0.0584 0.047,-0.1056 0.105,-0.1056 h 1.265 c 0.059,0 0.106,0.0472 0.106,0.1056 v 1.7249 c 0,0.059 -0.047,0.106 -0.106,0.106 z m -3.039,0 c -0.058,0 -0.106,-0.047 -0.106,-0.106 V 8.9911 c 0,-0.0584 0.048,-0.1056 0.106,-0.1056 h 1.265 c 0.058,0 0.105,0.0472 0.105,0.1056 v 1.7249 c 0,0.059 -0.047,0.106 -0.105,0.106 z m -3.04,0 c -0.058,0 -0.105,-0.047 -0.105,-0.106 V 8.9911 c 0,-0.0584 0.047,-0.1056 0.105,-0.1056 h 1.265 c 0.058,0 0.106,0.0472 0.106,0.1056 v 1.7249 c 0,0.059 -0.048,0.106 -0.106,0.106 z m -3.039,0 c -0.059,0 -0.106,-0.047 -0.106,-0.106 V 8.9911 c 0,-0.0584 0.047,-0.1056 0.106,-0.1056 h 1.265 c 0.058,0 0.105,0.0472 0.105,0.1056 v 1.7249 c 0,0.059 -0.047,0.106 -0.105,0.106 z m -3.04,0 c -0.058,0 -0.105,-0.047 -0.105,-0.106 V 8.9911 c 0,-0.0584 0.047,-0.1056 0.105,-0.1056 h 1.265 c 0.058,0 0.106,0.0472 0.106,0.1056 v 1.7249 c 0,0.059 -0.048,0.106 -0.106,0.106 z m -3.039,0 c -0.059,0 -0.106,-0.047 -0.106,-0.106 V 8.9911 c 0,-0.0584 0.047,-0.1056 0.106,-0.1056 h 1.265 c 0.058,0 0.105,0.0472 0.105,0.1056 v 1.7249 c 0,0.059 -0.047,0.106 -0.105,0.106 z m -3.04,0 c -0.058,0 -0.105,-0.047 -0.105,-0.106 V 8.9911 c 0,-0.0584 0.047,-0.1056 0.105,-0.1056 h 1.265 c 0.058,0 0.105,0.0472 0.105,0.1056 v 1.7249 c 0,0.059 -0.047,0.106 -0.105,0.106 z m -3.04,0 c -0.058,0 -0.105,-0.047 -0.105,-0.106 V 8.9911 c 0,-0.0584 0.047,-0.1056 0.105,-0.1056 h 1.265 c 0.059,0 0.106,0.0472 0.106,0.1056 v 1.7249 c 0,0.059 -0.047,0.106 -0.106,0.106 z m -0.07,15.11 c -0.192,0 -0.348,-0.156 -0.348,-0.349 V 11.857 c 0,-0.193 0.156,-0.349 0.348,-0.349 h 25.764 c 0.192,0 0.348,0.156 0.348,0.349 v 13.726 c 0,0.193 -0.156,0.349 -0.348,0.349 z m 24.387,2.953 c -0.058,0 -0.106,-0.048 -0.106,-0.106 v -1.725 c 0,-0.059 0.048,-0.106 0.106,-0.106 h 1.265 c 0.058,0 0.105,0.047 0.105,0.106 v 1.725 c 0,0.058 -0.047,0.106 -0.105,0.106 z m -3.04,0 c -0.058,0 -0.105,-0.048 -0.105,-0.106 v -1.725 c 0,-0.059 0.047,-0.106 0.105,-0.106 h 1.265 c 0.059,0 0.106,0.047 0.106,0.106 v 1.725 c 0,0.058 -0.047,0.106 -0.106,0.106 z m -3.039,0 c -0.058,0 -0.106,-0.048 -0.106,-0.106 v -1.725 c 0,-0.059 0.048,-0.106 0.106,-0.106 h 1.265 c 0.058,0 0.105,0.047 0.105,0.106 v 1.725 c 0,0.058 -0.047,0.106 -0.105,0.106 z m -3.04,0 c -0.058,0 -0.105,-0.048 -0.105,-0.106 v -1.725 c 0,-0.059 0.047,-0.106 0.105,-0.106 h 1.265 c 0.058,0 0.106,0.047 0.106,0.106 v 1.725 c 0,0.058 -0.048,0.106 -0.106,0.106 z m -3.039,0 c -0.059,0 -0.106,-0.048 -0.106,-0.106 v -1.725 c 0,-0.059 0.047,-0.106 0.106,-0.106 h 1.265 c 0.058,0 0.105,0.047 0.105,0.106 v 1.725 c 0,0.058 -0.047,0.106 -0.105,0.106 z m -3.04,0 c -0.058,0 -0.105,-0.048 -0.105,-0.106 v -1.725 c 0,-0.059 0.047,-0.106 0.105,-0.106 h 1.265 c 0.058,0 0.106,0.047 0.106,0.106 v 1.725 c 0,0.058 -0.048,0.106 -0.106,0.106 z m -3.039,0 c -0.059,0 -0.106,-0.048 -0.106,-0.106 v -1.725 c 0,-0.059 0.047,-0.106 0.106,-0.106 h 1.265 c 0.058,0 0.105,0.047 0.105,0.106 v 1.725 c 0,0.058 -0.047,0.106 -0.105,0.106 z m -3.04,0 c -0.058,0 -0.105,-0.048 -0.105,-0.106 v -1.725 c 0,-0.059 0.047,-0.106 0.105,-0.106 h 1.265 c 0.058,0 0.105,0.047 0.105,0.106 v 1.725 c 0,0.058 -0.047,0.106 -0.105,0.106 z m -3.04,0 c -0.058,0 -0.105,-0.048 -0.105,-0.106 v -1.725 c 0,-0.059 0.047,-0.106 0.105,-0.106 h 1.265 c 0.059,0 0.106,0.047 0.106,0.106 v 1.725 c 0,0.058 -0.047,0.106 -0.106,0.106 z m -0.613,0.875 h 26.85 c 0.406,0 0.735,-0.33 0.735,-0.736 V 8.4162 C 74.88,8.0096 74.551,7.68 74.145,7.68 h -26.85 c -0.406,0 -0.735,0.3296 -0.735,0.7362 V 29.024 c 0,0.406 0.329,0.736 0.735,0.736 z" /></g><g
       id="g542"><path
         id="path584"
         style="fill:url(#linearGradient582);fill-opacity:1;fill-rule:evenodd;stroke:none"
         d="m 22.259,220.67 c -4.207,0 -7.618,-3.41 -7.618,-7.63 0,-4.21 3.411,-7.63 7.618,-7.63 4.207,0 7.618,3.42 7.618,7.63 0,4.22 -3.411,7.63 -7.618,7.63 z m 0,3.13 c 5.931,0 10.739,-4.82 10.739,-10.76 0,-1.86 -0.47,-3.6 -1.296,-5.13 l -0.363,-0.59 0.026,-0.02 c 0.069,-0.06 0.136,-0.13 0.199,-0.2 l 6.708,-7.19 c 1.019,-1.09 0.961,-2.8 -0.129,-3.82 -1.09,-1.02 -2.8,-0.96 -3.819,0.13 l -6.708,7.19 c -0.063,0.06 -0.123,0.13 -0.178,0.21 v 0 l -0.06,-0.04 c -1.522,-0.83 -3.266,-1.3 -5.119,-1.3 -5.931,0 -10.739,4.82 -10.739,10.76 0,5.94 4.808,10.76 10.739,10.76 z" /></g><g
       id="g586"><path
         id="path612"
         style="fill:url(#linearGradient610);fill-opacity:1;fill-rule:nonzero;stroke:none"
         d="m 53.852,199.8 1.065,-0.03 1.123,-0.1 1.094,-0.16 1.072,-0.21 1.037,-0.26 1.007,-0.32 0.936,-0.35 0.902,-0.4 0.827,-0.44 0.76,-0.48 0.686,-0.51 0.605,-0.56 0.507,-0.6 c 0.036,-0.04 0.068,-0.08 0.097,-0.13 l 0.307,-0.5 c 0.04,-0.07 0.074,-0.14 0.1,-0.21 l 0.187,-0.52 c 0.029,-0.07 0.048,-0.16 0.059,-0.24 l 0.067,-0.52 0.068,-0.51 -0.059,0.24 0.188,-0.52 -0.1,0.21 0.308,-0.5 -0.097,0.13 0.413,-0.5 0.415,-0.37 0.512,-0.38 0.605,-0.37 0.698,-0.37 0.763,-0.34 0.82,-0.31 0.871,-0.27 0.567,-0.15 c 0.609,-0.16 0.975,-0.78 0.817,-1.39 -0.158,-0.61 -0.781,-0.97 -1.39,-0.81 l -0.674,0.17 -1.004,0.32 -0.95,0.36 -0.887,0.41 -0.832,0.44 -0.775,0.49 -0.703,0.53 -0.605,0.59 -0.412,0.49 c -0.036,0.04 -0.068,0.09 -0.097,0.13 l -0.307,0.51 c -0.04,0.06 -0.074,0.13 -0.1,0.2 l -0.187,0.52 c -0.029,0.08 -0.048,0.16 -0.059,0.24 l -0.067,0.52 -0.068,0.52 0.059,-0.24 -0.188,0.51 0.1,-0.2 -0.308,0.5 0.097,-0.13 -0.318,0.39 -0.415,0.4 -0.529,0.4 -0.62,0.4 -0.688,0.37 -0.763,0.34 -0.834,0.32 -0.868,0.28 -0.928,0.23 -0.953,0.19 -0.976,0.15 -0.977,0.09 -1.065,0.03 c -0.629,0.02 -1.125,0.54 -1.108,1.17 0.018,0.63 0.543,1.13 1.172,1.11 z m 18.123,-11.65 -1.837,3.68 6.362,-4.25 -7.212,-2.54 z" /></g><g
       id="g614"><path
         id="path640"
         style="fill:url(#linearGradient638);fill-opacity:1;fill-rule:nonzero;stroke:none"
         d="m 53.852,186.45 1.058,0.03 1.123,0.1 1.093,0.15 1.073,0.22 1.031,0.26 1,0.32 0.933,0.34 0.899,0.41 0.826,0.44 0.762,0.48 0.679,0.51 0.601,0.55 0.513,0.6 c 0.038,0.05 0.073,0.09 0.103,0.15 l 0.3,0.5 c 0.037,0.06 0.069,0.13 0.093,0.19 l 0.188,0.52 c 0.028,0.08 0.048,0.16 0.058,0.24 l 0.068,0.52 0.067,0.52 -0.058,-0.24 0.187,0.51 -0.099,-0.2 0.307,0.5 -0.096,-0.13 0.412,0.49 0.416,0.38 0.51,0.38 0.599,0.37 0.695,0.36 0.759,0.35 0.819,0.31 0.871,0.27 0.547,0.14 c 0.609,0.16 0.974,0.78 0.815,1.39 -0.16,0.61 -0.782,0.97 -1.392,0.81 l -0.649,-0.17 -1.004,-0.31 -0.951,-0.37 -0.891,-0.4 -0.82,-0.45 -0.781,-0.49 -0.69,-0.53 -0.604,-0.58 -0.413,-0.5 c -0.035,-0.04 -0.068,-0.08 -0.096,-0.13 l -0.308,-0.5 c -0.04,-0.07 -0.073,-0.14 -0.099,-0.21 l -0.188,-0.52 c -0.028,-0.07 -0.048,-0.16 -0.058,-0.24 l -0.068,-0.51 -0.067,-0.52 0.058,0.24 -0.187,-0.52 0.093,0.2 -0.3,-0.51 0.103,0.15 -0.312,-0.39 -0.434,-0.41 -0.521,-0.4 -0.603,-0.39 -0.704,-0.37 -0.751,-0.35 -0.837,-0.31 -0.86,-0.28 -0.919,-0.24 -0.952,-0.19 -0.977,-0.14 -0.977,-0.1 -1.057,-0.03 c -0.63,-0.01 -1.125,-0.54 -1.108,-1.17 0.018,-0.63 0.543,-1.12 1.172,-1.1 z m 18.049,11.64 -1.834,-3.68 6.358,4.25 -7.214,2.54 z" /></g><path
       id="path642"
       style="fill:#ffffff;fill-opacity:1;fill-rule:evenodd;stroke:none"
       d="M 34.218,95.88 49.68,83.304 47.461,80.831 C 42.323,75.114 35.343,67.378 29.517,60.908 l -1.465,-1.628 -2.029,1.041 c -5.062,2.754 -9.607,6.34 -13.452,10.576 L 12.24,71.28 Z" /></g></svg>