<?xml version="1.0" encoding="UTF-8"?>
<!-- Created with Inkscape (http://www.inkscape.org/) -->
<svg width="164" height="314.08" version="1.1" viewBox="0 0 164 314.08" xml:space="preserve" xmlns="http://www.w3.org/2000/svg" xmlns:cc="http://creativecommons.org/ns#" xmlns:dc="http://purl.org/dc/elements/1.1/" xmlns:rdf="http://www.w3.org/1999/02/22-rdf-syntax-ns#"><metadata><rdf:RDF><cc:Work rdf:about=""><dc:format>image/svg+xml</dc:format><dc:type rdf:resource="http://purl.org/dc/dcmitype/StillImage"/><dc:title/></cc:Work></rdf:RDF></metadata><defs><clipPath id="clipPath18"><path d="m0 4.5776e-5h123v235.56h-123z" clip-rule="evenodd"/></clipPath><clipPath id="clipPath28"><path d="m0 4.5776e-5h123v235.56h-123z" clip-rule="evenodd"/></clipPath><linearGradient id="linearGradient62" x1="-63.42" x2="103.14" y1="242.58" y2="76.26" gradientUnits="userSpaceOnUse"><stop stop-color="#7030a0" offset="0"/><stop stop-color="#002060" offset=".094085"/><stop stop-color="#00b0f0" offset=".155"/><stop stop-color="#00b050" offset=".23734"/><stop stop-color="#ffc000" offset=".33524"/><stop stop-color="#ed7d31" offset=".385"/><stop stop-color="#c00000" offset=".5"/><stop stop-color="#ed7d31" offset=".615"/><stop stop-color="#ffc000" offset=".66476"/><stop stop-color="#00b050" offset=".76266"/><stop stop-color="#00b0f0" offset=".845"/><stop stop-color="#002060" offset=".90592"/><stop stop-color="#7030a0" offset="1"/></linearGradient><linearGradient id="linearGradient84" x1="89.635" x2="107.16" y1="228.49" y2="202.31" gradientUnits="userSpaceOnUse"><stop stop-color="#c00000" offset="0"/><stop stop-color="#ed7d31" offset=".23"/><stop stop-color="#ffc000" offset=".32952"/><stop stop-color="#00b050" offset=".52532"/><stop stop-color="#00b0f0" offset=".69"/><stop stop-color="#002060" offset=".81183"/><stop stop-color="#7030a0" offset="1"/></linearGradient><linearGradient id="linearGradient372" x1="19.98" x2="19.98" y1="25.68" y2="10.32" gradientUnits="userSpaceOnUse"><stop stop-color="#00b050" offset="0"/><stop stop-color="#00b050" offset=".085"/><stop stop-color="#0070c0" offset=".14"/><stop stop-color="#7030a0" offset=".305"/><stop stop-color="#f00" offset=".395"/><stop stop-color="#ff0" offset=".5"/><stop stop-color="#f00" offset=".605"/><stop stop-color="#7030a0" offset=".695"/><stop stop-color="#0070c0" offset=".86"/><stop stop-color="#00b050" offset=".915"/><stop stop-color="#00b050" offset="1"/></linearGradient><clipPath id="clipPath382"><path d="m5.258e-6 235.56h123v-235.56l-123 1.5259e-5" clip-rule="evenodd"/></clipPath><linearGradient id="linearGradient410" x1="46.921" x2="-9.6655" y1="64.708" y2="1.4638" gradientUnits="userSpaceOnUse"><stop stop-color="#7030a0" offset="0"/><stop stop-color="#0070c0" offset=".08"/><stop stop-color="#00b050" offset=".17333"/><stop stop-color="#ff0" offset=".25877"/><stop stop-color="#f00" offset=".33333"/><stop stop-color="#ff0" offset=".40789"/><stop stop-color="#00b050" offset=".49333"/><stop stop-color="#0070c0" offset=".58667"/><stop stop-color="#7030a0" offset=".66667"/><stop stop-color="#0070c0" offset=".74667"/><stop stop-color="#00b050" offset=".84"/><stop stop-color="#ff0" offset=".92544"/><stop stop-color="#f00" offset="1"/></linearGradient><linearGradient id="linearGradient430" x1="84.25" x2="112.31" y1="49.087" y2="24.593" gradientUnits="userSpaceOnUse"><stop stop-color="#c00000" offset="0"/><stop stop-color="#ed7d31" offset=".23"/><stop stop-color="#ffc000" offset=".32952"/><stop stop-color="#00b050" offset=".52532"/><stop stop-color="#00b0f0" offset=".69"/><stop stop-color="#002060" offset=".81183"/><stop stop-color="#7030a0" offset="1"/></linearGradient><clipPath id="clipPath460"><path d="m5.104e-6 235.56h123v-235.56h-123" clip-rule="evenodd"/></clipPath><linearGradient id="linearGradient548" x1="28.6" x2="71.427" y1="59.917" y2="4.9876" gradientUnits="userSpaceOnUse"><stop stop-color="#7030a0" offset="0"/><stop stop-color="#002060" offset=".094085"/><stop stop-color="#00b0f0" offset=".155"/><stop stop-color="#00b050" offset=".23734"/><stop stop-color="#ffc000" offset=".33524"/><stop stop-color="#ed7d31" offset=".385"/><stop stop-color="#c00000" offset=".5"/><stop stop-color="#ed7d31" offset=".615"/><stop stop-color="#ffc000" offset=".66476"/><stop stop-color="#00b050" offset=".76266"/><stop stop-color="#00b0f0" offset=".845"/><stop stop-color="#002060" offset=".90592"/><stop stop-color="#7030a0" offset="1"/></linearGradient><linearGradient id="linearGradient592" x1="-17.375" x2="67.895" y1="250.78" y2="168.38" gradientUnits="userSpaceOnUse"><stop stop-color="#7030a0" offset="0"/><stop stop-color="#002060" offset=".062723"/><stop stop-color="#00b0f0" offset=".10333"/><stop stop-color="#00b050" offset=".15823"/><stop stop-color="#ffc000" offset=".22349"/><stop stop-color="#ed7d31" offset=".25667"/><stop stop-color="#c00000" offset=".33333"/><stop stop-color="#ed7d31" offset=".41"/><stop stop-color="#ffc000" offset=".44317"/><stop stop-color="#00b050" offset=".50844"/><stop stop-color="#00b0f0" offset=".56333"/><stop stop-color="#002060" offset=".60394"/><stop stop-color="#7030a0" offset=".66667"/><stop stop-color="#002060" offset=".72939"/><stop stop-color="#00b0f0" offset=".77"/><stop stop-color="#00b050" offset=".82489"/><stop stop-color="#ffc000" offset=".89016"/><stop stop-color="#ed7d31" offset=".92333"/><stop stop-color="#c00000" offset="1"/></linearGradient><linearGradient id="linearGradient620" x1="68.03" x2="68.03" y1="218.9" y2="180.7" gradientUnits="userSpaceOnUse"><stop stop-color="#7030a0" offset="0"/><stop stop-color="#0070c0" offset=".095"/><stop stop-color="#00b050" offset=".255"/><stop stop-color="#ff0" offset=".4"/><stop stop-color="#e59700" offset=".45"/><stop stop-color="#c00000" offset=".5"/><stop stop-color="#e59700" offset=".55"/><stop stop-color="#ff0" offset=".6"/><stop stop-color="#00b050" offset=".745"/><stop stop-color="#0070c0" offset=".905"/><stop stop-color="#7030a0" offset="1"/></linearGradient><linearGradient id="linearGradient648" x1="67.994" x2="67.994" y1="167.35" y2="205.54" gradientUnits="userSpaceOnUse"><stop stop-color="#7030a0" offset="0"/><stop stop-color="#0070c0" offset=".095"/><stop stop-color="#00b050" offset=".255"/><stop stop-color="#ff0" offset=".4"/><stop stop-color="#e59700" offset=".45"/><stop stop-color="#c00000" offset=".5"/><stop stop-color="#e59700" offset=".55"/><stop stop-color="#ff0" offset=".6"/><stop stop-color="#00b050" offset=".745"/><stop stop-color="#0070c0" offset=".905"/><stop stop-color="#7030a0" offset="1"/></linearGradient></defs><g transform="matrix(1.3333 0 0 -1.3333 0 314.08)"><g clip-path="url(#clipPath18)"><path d="m0 1.5259e-5h123v235.56h-123z" fill="#fff" fill-rule="evenodd"/></g><g clip-path="url(#clipPath28)"><path d="m0 1.5259e-5h123v235.56h-123z" fill="#fff" fill-rule="evenodd"/></g><path d="m10.44 117.78c0 28.2 22.86 51.06 51.06 51.06s51.06-22.86 51.06-51.06-22.86-51.06-51.06-51.06-51.06 22.86-51.06 51.06z" fill-rule="evenodd"/><path d="m19.92 117.84c0 23 18.616 41.64 41.58 41.64s41.58-18.64 41.58-41.64c0-22.997-18.616-41.64-41.58-41.64s-41.58 18.643-41.58 41.64z" fill="url(#linearGradient62)" fill-rule="evenodd"/><path d="m69.329 136.42c4.024-0.18 7.714-1.78 10.556-4.32 3.248-2.91 5.387-7.05 5.648-11.75 0.522-9.4-6.667-17.44-16.057-17.96h-0.051l0.099-0.17c0.627-1.32 0.441-2.954-0.599-4.117-1.387-1.551-3.768-1.683-5.318-0.296l-0.576 0.516c-4.771-5.335-14.589-16.199-22.356-24.817l-1.465-1.626-2.029 1.04c-5.061 2.751-9.606 6.333-13.45 10.565l-0.331 0.382 24.8 27.733-0.576 0.51c-1.55 1.39-1.683 3.77-0.296 5.32 1.04 1.17 2.639 1.53 4.028 1.06l0.175-0.08-3e-3 0.05c-0.522 9.39 6.668 17.43 16.058 17.95 0.587 0.04 1.168 0.04 1.743 0.01z" fill="#fff" fill-rule="evenodd"/><path d="m98.76 224.22c0 0.36 0.295 0.66 0.66 0.66s0.66-0.3 0.66-0.66v-17.64c0-0.36-0.295-0.66-0.66-0.66s-0.66 0.3-0.66 0.66z" fill="url(#linearGradient84)" fill-rule="evenodd"/><path d="m100.8 222.42c0 0.36 0.3 0.66 0.66 0.66s0.66-0.3 0.66-0.66v-14.04c0-0.36-0.3-0.66-0.66-0.66s-0.66 0.3-0.66 0.66z" fill="url(#linearGradient84)" fill-rule="evenodd"/><path d="m102.96 220.74c0 0.36 0.3 0.66 0.66 0.66s0.66-0.3 0.66-0.66v-10.68c0-0.36-0.3-0.66-0.66-0.66s-0.66 0.3-0.66 0.66z" fill="url(#linearGradient84)" fill-rule="evenodd"/><path d="m105 218.82c0 0.36 0.3 0.66 0.66 0.66s0.66-0.3 0.66-0.66v-6.84c0-0.36-0.3-0.66-0.66-0.66s-0.66 0.3-0.66 0.66z" fill="url(#linearGradient84)" fill-rule="evenodd"/><path d="m107.04 217.62c0 0.36 0.3 0.66 0.66 0.66s0.66-0.3 0.66-0.66v-4.44c0-0.36-0.3-0.66-0.66-0.66s-0.66 0.3-0.66 0.66z" fill="url(#linearGradient84)" fill-rule="evenodd"/><path d="m109.2 217.02c0 0.36 0.3 0.66 0.66 0.66s0.66-0.3 0.66-0.66v-3.24c0-0.36-0.3-0.66-0.66-0.66s-0.66 0.3-0.66 0.66z" fill="url(#linearGradient84)" fill-rule="evenodd"/><path d="m96.72 220.44c0 0.33 0.269 0.6 0.6 0.6s0.6-0.27 0.6-0.6v-10.08c0-0.33-0.269-0.6-0.6-0.6s-0.6 0.27-0.6 0.6z" fill="url(#linearGradient84)" fill-rule="evenodd"/><path d="m94.56 218.34c0 0.36 0.295 0.66 0.66 0.66s0.66-0.3 0.66-0.66v-5.88c0-0.36-0.295-0.66-0.66-0.66s-0.66 0.3-0.66 0.66z" fill="url(#linearGradient84)" fill-rule="evenodd"/><path d="m92.52 217.14c0 0.36 0.295 0.66 0.66 0.66s0.66-0.3 0.66-0.66v-3.48c0-0.36-0.295-0.66-0.66-0.66s-0.66 0.3-0.66 0.66z" fill="url(#linearGradient84)" fill-rule="evenodd"/><path d="m90.48 221.04c0 0.33 0.269 0.6 0.6 0.6s0.6-0.27 0.6-0.6v-11.28c0-0.33-0.269-0.6-0.6-0.6s-0.6 0.27-0.6 0.6z" fill="url(#linearGradient84)" fill-rule="evenodd"/><path d="m88.32 218.82c0 0.36 0.295 0.66 0.66 0.66s0.66-0.3 0.66-0.66v-6.84c0-0.36-0.295-0.66-0.66-0.66s-0.66 0.3-0.66 0.66z" fill="url(#linearGradient84)" fill-rule="evenodd"/><path d="m111.24 216.06c0 0.36 0.3 0.66 0.66 0.66s0.66-0.3 0.66-0.66v-1.32c0-0.36-0.3-0.66-0.66-0.66s-0.66 0.3-0.66 0.66z" fill="url(#linearGradient84)" fill-rule="evenodd"/><path d="m86.28 217.02c0 0.36 0.295 0.66 0.66 0.66s0.66-0.3 0.66-0.66v-3.24c0-0.36-0.295-0.66-0.66-0.66s-0.66 0.3-0.66 0.66z" fill="url(#linearGradient84)" fill-rule="evenodd"/><path d="m84.24 216.12c0 0.33 0.269 0.6 0.6 0.6s0.6-0.27 0.6-0.6v-1.44c0-0.33-0.269-0.6-0.6-0.6s-0.6 0.27-0.6 0.6z" fill="url(#linearGradient84)" fill-rule="evenodd"/><path d="m11.133 23.441-0.75-0.69-0.5687-0.686-0.4747-0.713-0.3422-0.684 0.0443 0.106-0.24-0.713-0.033-0.212-0.0023-0.18-0.0042 0.132 0.03-0.255-0.0401 0.171 0.075-0.21-0.1142 0.211 0.12-0.158-0.207 0.189 0.18-0.113-0.2082 0.092 0.2475-0.068 0.2426-0.035 0.323-0.014 0.4217 2e-3 0.4725 0.028 0.525 0.057 1.181 0.203 1.241 0.324 1.231 0.457 1.141 0.598 0.482 0.335 0.46 0.384 0.862 0.814 0.751 0.744 0.695 0.657 0.66 0.551 0.707 0.451c0.044 0.028 0.091 0.051 0.14 0.069l0.66 0.248c0.058 0.022 0.118 0.036 0.179 0.044l0.735 0.09c0.054 6e-3 0.109 7e-3 0.163 3e-3l0.855-0.075c0.038-4e-3 0.076-0.01 0.113-0.019l0.472-0.112 0.551-0.173 0.57-0.232 0.569-0.275 1.143-0.655 1.186-0.794 1.212-0.909 1.218-0.974 1.241-1.029 1.236-1.048c0.329-0.278 0.37-0.771 0.091-1.099-0.279-0.329-0.771-0.37-1.099-0.091l-1.224 1.037-1.219 1.011-1.182 0.946-1.143 0.861-1.094 0.736-1.047 0.605-0.481 0.235-0.45 0.188-0.439 0.142-0.473 0.113 0.113-0.019-0.855 0.075 0.163 3e-3 -0.735-0.09 0.179 0.044-0.66-0.247 0.14 0.069-0.538-0.329-0.585-0.484-0.67-0.633-0.779-0.771-0.938-0.881-0.575-0.471-0.643-0.43-1.319-0.677-1.379-0.503-1.369-0.351-1.279-0.217-0.6-0.063-0.5625-0.031-0.5083 1e-3 -0.487 0.031-0.4024 0.07-0.2475 0.067c-0.0735 0.021-0.1436 0.051-0.2082 0.092l-0.18 0.112c-0.0798 0.05-0.15 0.114-0.207 0.189l-0.12 0.157c-0.0487 0.064-0.0872 0.135-0.1142 0.211l-0.075 0.21c-0.0197 0.055-0.0332 0.112-0.0401 0.171l-0.03 0.255c-0.0051 0.044-0.0065 0.088-0.0042 0.132l0.0277 0.39 0.087 0.418 0.24 0.712c0.0122 0.037 0.027 0.072 0.0443 0.106l0.4378 0.846 0.5753 0.847 0.7062 0.829 0.7501 0.69c0.317 0.292 0.81 0.271 1.102-0.046s0.271-0.81-0.046-1.102z" fill="url(#linearGradient372)"/><g clip-path="url(#clipPath382)"><path d="m28.059 43.627c-0.895 0.8-2.095 1.26-3.389 1.188-2.587-0.144-4.568-2.358-4.424-4.945l1e-3 -0.014-0.048 0.023c-0.383 0.13-0.824 0.03-1.11-0.29-0.382-0.427-0.346-1.083 0.081-1.465l0.159-0.143-10.348-11.565c-1.0095-1.128-0.9132-2.861 0.2151-3.871 1.1284-1.009 2.8614-0.913 3.8704 0.215l10.348 11.566 0.159-0.142c0.427-0.382 1.083-0.346 1.465 0.081 0.286 0.32 0.338 0.769 0.165 1.135l-0.027 0.045 0.014 1e-3c2.587 0.144 4.567 2.358 4.424 4.945-0.072 1.293-0.662 2.435-1.556 3.236z" fill="url(#linearGradient410)" fill-rule="evenodd"/></g><path d="m85.92 26.82c0 2.286 2.095 4.14 4.68 4.14s4.68-1.854 4.68-4.14-2.095-4.14-4.68-4.14-4.68 1.854-4.68 4.14z" fill="url(#linearGradient430)" fill-rule="evenodd"/><path d="m101.16 30.9c0 2.286 2.12 4.14 4.74 4.14s4.74-1.854 4.74-4.14-2.12-4.14-4.74-4.14-4.74 1.854-4.74 4.14z" fill="url(#linearGradient430)" fill-rule="evenodd"/><g clip-path="url(#clipPath460)"><path d="m110.64 51v-6.197l-17.4-4.363v6.197z" fill="url(#linearGradient430)" fill-rule="evenodd"/></g><path d="m108.6 30.96h2.04v16.44h-2.04z" fill="url(#linearGradient430)" fill-rule="evenodd"/><path d="m93.24 26.76h2.16v18.72h-2.16z" fill="url(#linearGradient430)" fill-rule="evenodd"/><path d="m72.225 10.822c-0.058 0-0.106-0.047-0.106-0.106v-1.7249c0-0.0584 0.048-0.1056 0.106-0.1056h1.265c0.058 0 0.105 0.0472 0.105 0.1056v1.7249c0 0.059-0.047 0.106-0.105 0.106zm-3.04 0c-0.058 0-0.105-0.047-0.105-0.106v-1.7249c0-0.0584 0.047-0.1056 0.105-0.1056h1.265c0.059 0 0.106 0.0472 0.106 0.1056v1.7249c0 0.059-0.047 0.106-0.106 0.106zm-3.039 0c-0.058 0-0.106-0.047-0.106-0.106v-1.7249c0-0.0584 0.048-0.1056 0.106-0.1056h1.265c0.058 0 0.105 0.0472 0.105 0.1056v1.7249c0 0.059-0.047 0.106-0.105 0.106zm-3.04 0c-0.058 0-0.105-0.047-0.105-0.106v-1.7249c0-0.0584 0.047-0.1056 0.105-0.1056h1.265c0.058 0 0.106 0.0472 0.106 0.1056v1.7249c0 0.059-0.048 0.106-0.106 0.106zm-3.039 0c-0.059 0-0.106-0.047-0.106-0.106v-1.7249c0-0.0584 0.047-0.1056 0.106-0.1056h1.265c0.058 0 0.105 0.0472 0.105 0.1056v1.7249c0 0.059-0.047 0.106-0.105 0.106zm-3.04 0c-0.058 0-0.105-0.047-0.105-0.106v-1.7249c0-0.0584 0.047-0.1056 0.105-0.1056h1.265c0.058 0 0.106 0.0472 0.106 0.1056v1.7249c0 0.059-0.048 0.106-0.106 0.106zm-3.039 0c-0.059 0-0.106-0.047-0.106-0.106v-1.7249c0-0.0584 0.047-0.1056 0.106-0.1056h1.265c0.058 0 0.105 0.0472 0.105 0.1056v1.7249c0 0.059-0.047 0.106-0.105 0.106zm-3.04 0c-0.058 0-0.105-0.047-0.105-0.106v-1.7249c0-0.0584 0.047-0.1056 0.105-0.1056h1.265c0.058 0 0.105 0.0472 0.105 0.1056v1.7249c0 0.059-0.047 0.106-0.105 0.106zm-3.04 0c-0.058 0-0.105-0.047-0.105-0.106v-1.7249c0-0.0584 0.047-0.1056 0.105-0.1056h1.265c0.059 0 0.106 0.0472 0.106 0.1056v1.7249c0 0.059-0.047 0.106-0.106 0.106zm-0.07 15.11c-0.192 0-0.348-0.156-0.348-0.349v-13.726c0-0.193 0.156-0.349 0.348-0.349h25.764c0.192 0 0.348 0.156 0.348 0.349v13.726c0 0.193-0.156 0.349-0.348 0.349zm24.387 2.953c-0.058 0-0.106-0.048-0.106-0.106v-1.725c0-0.059 0.048-0.106 0.106-0.106h1.265c0.058 0 0.105 0.047 0.105 0.106v1.725c0 0.058-0.047 0.106-0.105 0.106zm-3.04 0c-0.058 0-0.105-0.048-0.105-0.106v-1.725c0-0.059 0.047-0.106 0.105-0.106h1.265c0.059 0 0.106 0.047 0.106 0.106v1.725c0 0.058-0.047 0.106-0.106 0.106zm-3.039 0c-0.058 0-0.106-0.048-0.106-0.106v-1.725c0-0.059 0.048-0.106 0.106-0.106h1.265c0.058 0 0.105 0.047 0.105 0.106v1.725c0 0.058-0.047 0.106-0.105 0.106zm-3.04 0c-0.058 0-0.105-0.048-0.105-0.106v-1.725c0-0.059 0.047-0.106 0.105-0.106h1.265c0.058 0 0.106 0.047 0.106 0.106v1.725c0 0.058-0.048 0.106-0.106 0.106zm-3.039 0c-0.059 0-0.106-0.048-0.106-0.106v-1.725c0-0.059 0.047-0.106 0.106-0.106h1.265c0.058 0 0.105 0.047 0.105 0.106v1.725c0 0.058-0.047 0.106-0.105 0.106zm-3.04 0c-0.058 0-0.105-0.048-0.105-0.106v-1.725c0-0.059 0.047-0.106 0.105-0.106h1.265c0.058 0 0.106 0.047 0.106 0.106v1.725c0 0.058-0.048 0.106-0.106 0.106zm-3.039 0c-0.059 0-0.106-0.048-0.106-0.106v-1.725c0-0.059 0.047-0.106 0.106-0.106h1.265c0.058 0 0.105 0.047 0.105 0.106v1.725c0 0.058-0.047 0.106-0.105 0.106zm-3.04 0c-0.058 0-0.105-0.048-0.105-0.106v-1.725c0-0.059 0.047-0.106 0.105-0.106h1.265c0.058 0 0.105 0.047 0.105 0.106v1.725c0 0.058-0.047 0.106-0.105 0.106zm-3.04 0c-0.058 0-0.105-0.048-0.105-0.106v-1.725c0-0.059 0.047-0.106 0.105-0.106h1.265c0.059 0 0.106 0.047 0.106 0.106v1.725c0 0.058-0.047 0.106-0.106 0.106zm-0.613 0.875h26.85c0.406 0 0.735-0.33 0.735-0.736v-20.608c0-0.4066-0.329-0.7362-0.735-0.7362h-26.85c-0.406 0-0.735 0.3296-0.735 0.7362v20.608c0 0.406 0.329 0.736 0.735 0.736z" fill="url(#linearGradient548)" fill-rule="evenodd"/><path d="m22.259 220.67c-4.207 0-7.618-3.41-7.618-7.63 0-4.21 3.411-7.63 7.618-7.63s7.618 3.42 7.618 7.63c0 4.22-3.411 7.63-7.618 7.63zm0 3.13c5.931 0 10.739-4.82 10.739-10.76 0-1.86-0.47-3.6-1.296-5.13l-0.363-0.59 0.026-0.02c0.069-0.06 0.136-0.13 0.199-0.2l6.708-7.19c1.019-1.09 0.961-2.8-0.129-3.82s-2.8-0.96-3.819 0.13l-6.708 7.19c-0.063 0.06-0.123 0.13-0.178 0.21l-0.06-0.04c-1.522-0.83-3.266-1.3-5.119-1.3-5.931 0-10.739 4.82-10.739 10.76s4.808 10.76 10.739 10.76z" fill="url(#linearGradient592)" fill-rule="evenodd"/><path d="m53.852 199.8 1.065-0.03 1.123-0.1 1.094-0.16 1.072-0.21 1.037-0.26 1.007-0.32 0.936-0.35 0.902-0.4 0.827-0.44 0.76-0.48 0.686-0.51 0.605-0.56 0.507-0.6c0.036-0.04 0.068-0.08 0.097-0.13l0.307-0.5c0.04-0.07 0.074-0.14 0.1-0.21l0.187-0.52c0.029-0.07 0.048-0.16 0.059-0.24l0.067-0.52 0.068-0.51-0.059 0.24 0.188-0.52-0.1 0.21 0.308-0.5-0.097 0.13 0.413-0.5 0.415-0.37 0.512-0.38 0.605-0.37 0.698-0.37 0.763-0.34 0.82-0.31 0.871-0.27 0.567-0.15c0.609-0.16 0.975-0.78 0.817-1.39s-0.781-0.97-1.39-0.81l-0.674 0.17-1.004 0.32-0.95 0.36-0.887 0.41-0.832 0.44-0.775 0.49-0.703 0.53-0.605 0.59-0.412 0.49c-0.036 0.04-0.068 0.09-0.097 0.13l-0.307 0.51c-0.04 0.06-0.074 0.13-0.1 0.2l-0.187 0.52c-0.029 0.08-0.048 0.16-0.059 0.24l-0.067 0.52-0.068 0.52 0.059-0.24-0.188 0.51 0.1-0.2-0.308 0.5 0.097-0.13-0.318 0.39-0.415 0.4-0.529 0.4-0.62 0.4-0.688 0.37-0.763 0.34-0.834 0.32-0.868 0.28-0.928 0.23-0.953 0.19-0.976 0.15-0.977 0.09-1.065 0.03c-0.629 0.02-1.125 0.54-1.108 1.17 0.018 0.63 0.543 1.13 1.172 1.11zm18.123-11.65-1.837 3.68 6.362-4.25-7.212-2.54z" fill="url(#linearGradient620)"/><path d="m53.852 186.45 1.058 0.03 1.123 0.1 1.093 0.15 1.073 0.22 1.031 0.26 1 0.32 0.933 0.34 0.899 0.41 0.826 0.44 0.762 0.48 0.679 0.51 0.601 0.55 0.513 0.6c0.038 0.05 0.073 0.09 0.103 0.15l0.3 0.5c0.037 0.06 0.069 0.13 0.093 0.19l0.188 0.52c0.028 0.08 0.048 0.16 0.058 0.24l0.068 0.52 0.067 0.52-0.058-0.24 0.187 0.51-0.099-0.2 0.307 0.5-0.096-0.13 0.412 0.49 0.416 0.38 0.51 0.38 0.599 0.37 0.695 0.36 0.759 0.35 0.819 0.31 0.871 0.27 0.547 0.14c0.609 0.16 0.974 0.78 0.815 1.39-0.16 0.61-0.782 0.97-1.392 0.81l-0.649-0.17-1.004-0.31-0.951-0.37-0.891-0.4-0.82-0.45-0.781-0.49-0.69-0.53-0.604-0.58-0.413-0.5c-0.035-0.04-0.068-0.08-0.096-0.13l-0.308-0.5c-0.04-0.07-0.073-0.14-0.099-0.21l-0.188-0.52c-0.028-0.07-0.048-0.16-0.058-0.24l-0.068-0.51-0.067-0.52 0.058 0.24-0.187-0.52 0.093 0.2-0.3-0.51 0.103 0.15-0.312-0.39-0.434-0.41-0.521-0.4-0.603-0.39-0.704-0.37-0.751-0.35-0.837-0.31-0.86-0.28-0.919-0.24-0.952-0.19-0.977-0.14-0.977-0.1-1.057-0.03c-0.63-0.01-1.125-0.54-1.108-1.17 0.018-0.63 0.543-1.12 1.172-1.1zm18.049 11.64-1.834-3.68 6.358 4.25-7.214 2.54z" fill="url(#linearGradient648)"/><path d="m34.218 95.88 15.462-12.576-2.219-2.473c-5.138-5.717-12.118-13.453-17.944-19.923l-1.465-1.628-2.029 1.041c-5.062 2.754-9.607 6.34-13.452 10.576l-0.331 0.383z" fill="#fff" fill-rule="evenodd"/></g></svg>
