<svg width="1e3" height="1e3" version="1.1" viewBox="0 0 1e3 1e3" xml:space="preserve" xmlns="http://www.w3.org/2000/svg"><defs><clipPath id="clipPath28"><path d="m0 1.8311e-4h750v750h-750z" clip-rule="evenodd"/></clipPath><linearGradient id="linearGradient60" x1="-542.28" x2="680.76" y1="1292.3" y2="69.24" gradientUnits="userSpaceOnUse"><stop stop-color="#7030a0" offset="0"/><stop stop-color="#002060" offset=".094085"/><stop stop-color="#00b0f0" offset=".155"/><stop stop-color="#00b050" offset=".23734"/><stop stop-color="#ffc000" offset=".33524"/><stop stop-color="#ed7d31" offset=".385"/><stop stop-color="#c00000" offset=".5"/><stop stop-color="#ed7d31" offset=".615"/><stop stop-color="#ffc000" offset=".66476"/><stop stop-color="#00b050" offset=".76266"/><stop stop-color="#00b0f0" offset=".845"/><stop stop-color="#002060" offset=".90592"/><stop stop-color="#7030a0" offset="1"/></linearGradient></defs><g transform="matrix(1.3333 0 0 -1.3333 0 1e3)"><g clip-path="url(#clipPath28)"><path d="m375 750c207.11 0 375-167.89 375-375s-167.89-375-375-375c-58.25 0-113.4 13.281-162.58 36.979l-4.24 2.173 14.54 16.124c52.53 58.214 111.59 123.59 142.27 157.88l4.24-3.8c11.38-10.19 28.88-9.21 39.07 2.18 7.64 8.54 9.01 20.51 4.41 30.27l-0.73 1.21 0.37 0.02c69 3.83 121.82 62.88 117.99 131.88-1.92 34.5-17.64 64.96-41.5 86.31-20.88 18.68-48 30.4-77.57 31.75-4.22 0.19-8.5 0.17-12.81-0.07-69-3.83-121.83-62.87-117.99-131.87l0.02-0.37-1.29 0.59c-10.2 3.49-21.95 0.8-29.6-7.74-10.19-11.39-9.21-28.88 2.18-39.07l4.23-3.79-163.23-182.44-7.145 8.25c-53.496 64.82-85.632 147.92-85.632 238.53 0 207.11 167.89 375 375 375z" fill-rule="evenodd"/></g><path d="m69.24 375c0 168.87 136.89 305.76 305.76 305.76s305.76-136.89 305.76-305.76-136.89-305.76-305.76-305.76-305.76 136.89-305.76 305.76z" fill="url(#linearGradient60)" fill-rule="evenodd"/><path d="m411.27 492.95c29.56-1.35 56.67-13.07 77.56-31.75 23.86-21.35 39.58-51.8 41.49-86.3 3.84-68.99-48.99-128.03-117.98-131.86l-0.37-0.02 0.73-1.22c4.6-9.75 3.24-21.72-4.41-30.26-10.19-11.39-27.68-12.36-39.07-2.17l-4.23 3.79c-35.06-39.18-107.19-118.97-164.26-182.26l-10.77-11.939-14.9 7.634c-37.19 20.203-70.58 46.515-98.826 77.586l-2.434 2.81 182.22 203.66-4.24 3.79c-11.39 10.19-12.36 27.68-2.17 39.07 7.64 8.54 19.39 11.22 29.6 7.73l1.28-0.59-0.02 0.37c-3.83 68.99 48.99 128.03 117.99 131.86 4.31 0.24 8.58 0.26 12.81 0.07z" fill="#fff" fill-rule="evenodd"/></g></svg>
