<?xml version="1.0" encoding="UTF-8" standalone="no"?>
<svg
   xmlns:dc="http://purl.org/dc/elements/1.1/"
   xmlns:cc="http://creativecommons.org/ns#"
   xmlns:rdf="http://www.w3.org/1999/02/22-rdf-syntax-ns#"
   xmlns:svg="http://www.w3.org/2000/svg"
   xmlns="http://www.w3.org/2000/svg"
   viewBox="0 0 500 350.07999"
   height="350.07999"
   width="500"
   xml:space="preserve"
   id="svg2"
   version="1.1"><metadata
     id="metadata8"><rdf:RDF><cc:Work
         rdf:about=""><dc:format>image/svg+xml</dc:format><dc:type
           rdf:resource="http://purl.org/dc/dcmitype/StillImage" /></cc:Work></rdf:RDF></metadata><defs
     id="defs6"><clipPath
       id="clipPath18"
       clipPathUnits="userSpaceOnUse"><path
         style="clip-rule:evenodd"
         id="path16"
         d="M 0,6.1035e-5 H 375 V 262.56006 H 0 Z" /></clipPath><linearGradient
       id="linearGradient52"
       spreadMethod="pad"
       gradientUnits="userSpaceOnUse"
       y2="67.5"
       x2="251.34"
       y1="322.62"
       x1="-4.0198998"><stop
         id="stop26"
         offset="0"
         style="stop-opacity:1;stop-color:#7030a0" /><stop
         id="stop28"
         offset="0.094085"
         style="stop-opacity:1;stop-color:#002060" /><stop
         id="stop30"
         offset="0.155"
         style="stop-opacity:1;stop-color:#00b0f0" /><stop
         id="stop32"
         offset="0.23734"
         style="stop-opacity:1;stop-color:#00b050" /><stop
         id="stop34"
         offset="0.33524"
         style="stop-opacity:1;stop-color:#ffc000" /><stop
         id="stop36"
         offset="0.385"
         style="stop-opacity:1;stop-color:#ed7d31" /><stop
         id="stop38"
         offset="0.5"
         style="stop-opacity:1;stop-color:#c00000" /><stop
         id="stop40"
         offset="0.615"
         style="stop-opacity:1;stop-color:#ed7d31" /><stop
         id="stop42"
         offset="0.66476"
         style="stop-opacity:1;stop-color:#ffc000" /><stop
         id="stop44"
         offset="0.76266"
         style="stop-opacity:1;stop-color:#00b050" /><stop
         id="stop46"
         offset="0.845"
         style="stop-opacity:1;stop-color:#00b0f0" /><stop
         id="stop48"
         offset="0.90592"
         style="stop-opacity:1;stop-color:#002060" /><stop
         id="stop50"
         offset="1"
         style="stop-opacity:1;stop-color:#7030a0" /></linearGradient><linearGradient
       id="linearGradient82"
       spreadMethod="pad"
       gradientUnits="userSpaceOnUse"
       y2="174.96001"
       x2="295.67999"
       y1="207.36"
       x1="295.67999"><stop
         id="stop60"
         offset="0"
         style="stop-opacity:1;stop-color:#00b050" /><stop
         id="stop62"
         offset="0.085"
         style="stop-opacity:1;stop-color:#00b050" /><stop
         id="stop64"
         offset="0.14"
         style="stop-opacity:1;stop-color:#0070c0" /><stop
         id="stop66"
         offset="0.305"
         style="stop-opacity:1;stop-color:#7030a0" /><stop
         id="stop68"
         offset="0.395"
         style="stop-opacity:1;stop-color:#ff0000" /><stop
         id="stop70"
         offset="0.5"
         style="stop-opacity:1;stop-color:#ffff00" /><stop
         id="stop72"
         offset="0.605"
         style="stop-opacity:1;stop-color:#ff0000" /><stop
         id="stop74"
         offset="0.695"
         style="stop-opacity:1;stop-color:#7030a0" /><stop
         id="stop76"
         offset="0.86"
         style="stop-opacity:1;stop-color:#0070c0" /><stop
         id="stop78"
         offset="0.915"
         style="stop-opacity:1;stop-color:#00b050" /><stop
         id="stop80"
         offset="1"
         style="stop-opacity:1;stop-color:#00b050" /></linearGradient><clipPath
       id="clipPath92"
       clipPathUnits="userSpaceOnUse"><path
         style="clip-rule:evenodd"
         id="path90"
         d="M -6.21e-6,262.56 H 375 V 0 L 1.0663e-5,3.0518e-5" /></clipPath><linearGradient
       id="linearGradient120"
       spreadMethod="pad"
       gradientUnits="userSpaceOnUse"
       y2="155.25999"
       x2="232.06"
       y1="291.31"
       x1="353.79001"><stop
         id="stop94"
         offset="0"
         style="stop-opacity:1;stop-color:#7030a0" /><stop
         id="stop96"
         offset="0.08"
         style="stop-opacity:1;stop-color:#0070c0" /><stop
         id="stop98"
         offset="0.17333"
         style="stop-opacity:1;stop-color:#00b050" /><stop
         id="stop100"
         offset="0.25877"
         style="stop-opacity:1;stop-color:#ffff00" /><stop
         id="stop102"
         offset="0.33333"
         style="stop-opacity:1;stop-color:#ff0000" /><stop
         id="stop104"
         offset="0.40789"
         style="stop-opacity:1;stop-color:#ffff00" /><stop
         id="stop106"
         offset="0.49333"
         style="stop-opacity:1;stop-color:#00b050" /><stop
         id="stop108"
         offset="0.58667"
         style="stop-opacity:1;stop-color:#0070c0" /><stop
         id="stop110"
         offset="0.66667"
         style="stop-opacity:1;stop-color:#7030a0" /><stop
         id="stop112"
         offset="0.74667"
         style="stop-opacity:1;stop-color:#0070c0" /><stop
         id="stop114"
         offset="0.84"
         style="stop-opacity:1;stop-color:#00b050" /><stop
         id="stop116"
         offset="0.92544"
         style="stop-opacity:1;stop-color:#ffff00" /><stop
         id="stop118"
         offset="1"
         style="stop-opacity:1;stop-color:#ff0000" /></linearGradient><linearGradient
       id="linearGradient140"
       spreadMethod="pad"
       gradientUnits="userSpaceOnUse"
       y2="20.52"
       x2="323.13"
       y1="73.32"
       x1="262.70999"><stop
         id="stop126"
         offset="0"
         style="stop-opacity:1;stop-color:#c00000" /><stop
         id="stop128"
         offset="0.23"
         style="stop-opacity:1;stop-color:#ed7d31" /><stop
         id="stop130"
         offset="0.32952"
         style="stop-opacity:1;stop-color:#ffc000" /><stop
         id="stop132"
         offset="0.52532"
         style="stop-opacity:1;stop-color:#00b050" /><stop
         id="stop134"
         offset="0.69"
         style="stop-opacity:1;stop-color:#00b0f0" /><stop
         id="stop136"
         offset="0.81183"
         style="stop-opacity:1;stop-color:#002060" /><stop
         id="stop138"
         offset="1"
         style="stop-opacity:1;stop-color:#7030a0" /></linearGradient><linearGradient
       id="linearGradient160"
       spreadMethod="pad"
       gradientUnits="userSpaceOnUse"
       y2="20.52"
       x2="323.13"
       y1="73.32"
       x1="262.70999"><stop
         id="stop146"
         offset="0"
         style="stop-opacity:1;stop-color:#c00000" /><stop
         id="stop148"
         offset="0.23"
         style="stop-opacity:1;stop-color:#ed7d31" /><stop
         id="stop150"
         offset="0.32952"
         style="stop-opacity:1;stop-color:#ffc000" /><stop
         id="stop152"
         offset="0.52532"
         style="stop-opacity:1;stop-color:#00b050" /><stop
         id="stop154"
         offset="0.69"
         style="stop-opacity:1;stop-color:#00b0f0" /><stop
         id="stop156"
         offset="0.81183"
         style="stop-opacity:1;stop-color:#002060" /><stop
         id="stop158"
         offset="1"
         style="stop-opacity:1;stop-color:#7030a0" /></linearGradient><clipPath
       id="clipPath170"
       clipPathUnits="userSpaceOnUse"><path
         style="clip-rule:evenodd"
         id="path168"
         d="M -1.3494e-5,262.56 H 375 V 6.1035e-5 H -3.3179e-5" /></clipPath><linearGradient
       id="linearGradient186"
       spreadMethod="pad"
       gradientUnits="userSpaceOnUse"
       y2="20.52"
       x2="323.13"
       y1="73.32"
       x1="262.70999"><stop
         id="stop172"
         offset="0"
         style="stop-opacity:1;stop-color:#c00000" /><stop
         id="stop174"
         offset="0.23"
         style="stop-opacity:1;stop-color:#ed7d31" /><stop
         id="stop176"
         offset="0.32952"
         style="stop-opacity:1;stop-color:#ffc000" /><stop
         id="stop178"
         offset="0.52532"
         style="stop-opacity:1;stop-color:#00b050" /><stop
         id="stop180"
         offset="0.69"
         style="stop-opacity:1;stop-color:#00b0f0" /><stop
         id="stop182"
         offset="0.81183"
         style="stop-opacity:1;stop-color:#002060" /><stop
         id="stop184"
         offset="1"
         style="stop-opacity:1;stop-color:#7030a0" /></linearGradient><linearGradient
       id="linearGradient206"
       spreadMethod="pad"
       gradientUnits="userSpaceOnUse"
       y2="20.52"
       x2="323.13"
       y1="73.32"
       x1="262.70999"><stop
         id="stop192"
         offset="0"
         style="stop-opacity:1;stop-color:#c00000" /><stop
         id="stop194"
         offset="0.23"
         style="stop-opacity:1;stop-color:#ed7d31" /><stop
         id="stop196"
         offset="0.32952"
         style="stop-opacity:1;stop-color:#ffc000" /><stop
         id="stop198"
         offset="0.52532"
         style="stop-opacity:1;stop-color:#00b050" /><stop
         id="stop200"
         offset="0.69"
         style="stop-opacity:1;stop-color:#00b0f0" /><stop
         id="stop202"
         offset="0.81183"
         style="stop-opacity:1;stop-color:#002060" /><stop
         id="stop204"
         offset="1"
         style="stop-opacity:1;stop-color:#7030a0" /></linearGradient><linearGradient
       id="linearGradient226"
       spreadMethod="pad"
       gradientUnits="userSpaceOnUse"
       y2="20.52"
       x2="323.13"
       y1="73.32"
       x1="262.70999"><stop
         id="stop212"
         offset="0"
         style="stop-opacity:1;stop-color:#c00000" /><stop
         id="stop214"
         offset="0.23"
         style="stop-opacity:1;stop-color:#ed7d31" /><stop
         id="stop216"
         offset="0.32952"
         style="stop-opacity:1;stop-color:#ffc000" /><stop
         id="stop218"
         offset="0.52532"
         style="stop-opacity:1;stop-color:#00b050" /><stop
         id="stop220"
         offset="0.69"
         style="stop-opacity:1;stop-color:#00b0f0" /><stop
         id="stop222"
         offset="0.81183"
         style="stop-opacity:1;stop-color:#002060" /><stop
         id="stop224"
         offset="1"
         style="stop-opacity:1;stop-color:#7030a0" /></linearGradient><linearGradient
       id="linearGradient258"
       spreadMethod="pad"
       gradientUnits="userSpaceOnUse"
       y2="14.876"
       x2="96.697998"
       y1="133.21001"
       x1="4.8660002"><stop
         id="stop232"
         offset="0"
         style="stop-opacity:1;stop-color:#7030a0" /><stop
         id="stop234"
         offset="0.094085"
         style="stop-opacity:1;stop-color:#002060" /><stop
         id="stop236"
         offset="0.155"
         style="stop-opacity:1;stop-color:#00b0f0" /><stop
         id="stop238"
         offset="0.23734"
         style="stop-opacity:1;stop-color:#00b050" /><stop
         id="stop240"
         offset="0.33524"
         style="stop-opacity:1;stop-color:#ffc000" /><stop
         id="stop242"
         offset="0.385"
         style="stop-opacity:1;stop-color:#ed7d31" /><stop
         id="stop244"
         offset="0.5"
         style="stop-opacity:1;stop-color:#c00000" /><stop
         id="stop246"
         offset="0.615"
         style="stop-opacity:1;stop-color:#ed7d31" /><stop
         id="stop248"
         offset="0.66476"
         style="stop-opacity:1;stop-color:#ffc000" /><stop
         id="stop250"
         offset="0.76266"
         style="stop-opacity:1;stop-color:#00b050" /><stop
         id="stop252"
         offset="0.845"
         style="stop-opacity:1;stop-color:#00b0f0" /><stop
         id="stop254"
         offset="0.90592"
         style="stop-opacity:1;stop-color:#002060" /><stop
         id="stop256"
         offset="1"
         style="stop-opacity:1;stop-color:#7030a0" /></linearGradient><linearGradient
       id="linearGradient302"
       spreadMethod="pad"
       gradientUnits="userSpaceOnUse"
       y2="143.92"
       x2="157.64"
       y1="298.64001"
       x1="-2.119"><stop
         id="stop264"
         offset="0"
         style="stop-opacity:1;stop-color:#7030a0" /><stop
         id="stop266"
         offset="0.062723"
         style="stop-opacity:1;stop-color:#002060" /><stop
         id="stop268"
         offset="0.10333"
         style="stop-opacity:1;stop-color:#00b0f0" /><stop
         id="stop270"
         offset="0.15823"
         style="stop-opacity:1;stop-color:#00b050" /><stop
         id="stop272"
         offset="0.22349"
         style="stop-opacity:1;stop-color:#ffc000" /><stop
         id="stop274"
         offset="0.25667"
         style="stop-opacity:1;stop-color:#ed7d31" /><stop
         id="stop276"
         offset="0.33333"
         style="stop-opacity:1;stop-color:#c00000" /><stop
         id="stop278"
         offset="0.41"
         style="stop-opacity:1;stop-color:#ed7d31" /><stop
         id="stop280"
         offset="0.44317"
         style="stop-opacity:1;stop-color:#ffc000" /><stop
         id="stop282"
         offset="0.50844"
         style="stop-opacity:1;stop-color:#00b050" /><stop
         id="stop284"
         offset="0.56333"
         style="stop-opacity:1;stop-color:#00b0f0" /><stop
         id="stop286"
         offset="0.60394"
         style="stop-opacity:1;stop-color:#002060" /><stop
         id="stop288"
         offset="0.66667"
         style="stop-opacity:1;stop-color:#7030a0" /><stop
         id="stop290"
         offset="0.72939"
         style="stop-opacity:1;stop-color:#002060" /><stop
         id="stop292"
         offset="0.77"
         style="stop-opacity:1;stop-color:#00b0f0" /><stop
         id="stop294"
         offset="0.82489"
         style="stop-opacity:1;stop-color:#00b050" /><stop
         id="stop296"
         offset="0.89016"
         style="stop-opacity:1;stop-color:#ffc000" /><stop
         id="stop298"
         offset="0.92333"
         style="stop-opacity:1;stop-color:#ed7d31" /><stop
         id="stop300"
         offset="1"
         style="stop-opacity:1;stop-color:#c00000" /></linearGradient><linearGradient
       id="linearGradient322"
       spreadMethod="pad"
       gradientUnits="userSpaceOnUse"
       y2="103.13"
       x2="341.26001"
       y1="159.55"
       x1="303.38"><stop
         id="stop308"
         offset="0"
         style="stop-opacity:1;stop-color:#c00000" /><stop
         id="stop310"
         offset="0.23"
         style="stop-opacity:1;stop-color:#ed7d31" /><stop
         id="stop312"
         offset="0.32952"
         style="stop-opacity:1;stop-color:#ffc000" /><stop
         id="stop314"
         offset="0.52532"
         style="stop-opacity:1;stop-color:#00b050" /><stop
         id="stop316"
         offset="0.69"
         style="stop-opacity:1;stop-color:#00b0f0" /><stop
         id="stop318"
         offset="0.81183"
         style="stop-opacity:1;stop-color:#002060" /><stop
         id="stop320"
         offset="1"
         style="stop-opacity:1;stop-color:#7030a0" /></linearGradient><linearGradient
       id="linearGradient342"
       spreadMethod="pad"
       gradientUnits="userSpaceOnUse"
       y2="103.13"
       x2="341.26001"
       y1="159.55"
       x1="303.38"><stop
         id="stop328"
         offset="0"
         style="stop-opacity:1;stop-color:#c00000" /><stop
         id="stop330"
         offset="0.23"
         style="stop-opacity:1;stop-color:#ed7d31" /><stop
         id="stop332"
         offset="0.32952"
         style="stop-opacity:1;stop-color:#ffc000" /><stop
         id="stop334"
         offset="0.52532"
         style="stop-opacity:1;stop-color:#00b050" /><stop
         id="stop336"
         offset="0.69"
         style="stop-opacity:1;stop-color:#00b0f0" /><stop
         id="stop338"
         offset="0.81183"
         style="stop-opacity:1;stop-color:#002060" /><stop
         id="stop340"
         offset="1"
         style="stop-opacity:1;stop-color:#7030a0" /></linearGradient><linearGradient
       id="linearGradient362"
       spreadMethod="pad"
       gradientUnits="userSpaceOnUse"
       y2="103.13"
       x2="341.26001"
       y1="159.55"
       x1="303.38"><stop
         id="stop348"
         offset="0"
         style="stop-opacity:1;stop-color:#c00000" /><stop
         id="stop350"
         offset="0.23"
         style="stop-opacity:1;stop-color:#ed7d31" /><stop
         id="stop352"
         offset="0.32952"
         style="stop-opacity:1;stop-color:#ffc000" /><stop
         id="stop354"
         offset="0.52532"
         style="stop-opacity:1;stop-color:#00b050" /><stop
         id="stop356"
         offset="0.69"
         style="stop-opacity:1;stop-color:#00b0f0" /><stop
         id="stop358"
         offset="0.81183"
         style="stop-opacity:1;stop-color:#002060" /><stop
         id="stop360"
         offset="1"
         style="stop-opacity:1;stop-color:#7030a0" /></linearGradient><linearGradient
       id="linearGradient382"
       spreadMethod="pad"
       gradientUnits="userSpaceOnUse"
       y2="103.13"
       x2="341.26001"
       y1="159.55"
       x1="303.38"><stop
         id="stop368"
         offset="0"
         style="stop-opacity:1;stop-color:#c00000" /><stop
         id="stop370"
         offset="0.23"
         style="stop-opacity:1;stop-color:#ed7d31" /><stop
         id="stop372"
         offset="0.32952"
         style="stop-opacity:1;stop-color:#ffc000" /><stop
         id="stop374"
         offset="0.52532"
         style="stop-opacity:1;stop-color:#00b050" /><stop
         id="stop376"
         offset="0.69"
         style="stop-opacity:1;stop-color:#00b0f0" /><stop
         id="stop378"
         offset="0.81183"
         style="stop-opacity:1;stop-color:#002060" /><stop
         id="stop380"
         offset="1"
         style="stop-opacity:1;stop-color:#7030a0" /></linearGradient><linearGradient
       id="linearGradient402"
       spreadMethod="pad"
       gradientUnits="userSpaceOnUse"
       y2="103.13"
       x2="341.26001"
       y1="159.55"
       x1="303.38"><stop
         id="stop388"
         offset="0"
         style="stop-opacity:1;stop-color:#c00000" /><stop
         id="stop390"
         offset="0.23"
         style="stop-opacity:1;stop-color:#ed7d31" /><stop
         id="stop392"
         offset="0.32952"
         style="stop-opacity:1;stop-color:#ffc000" /><stop
         id="stop394"
         offset="0.52532"
         style="stop-opacity:1;stop-color:#00b050" /><stop
         id="stop396"
         offset="0.69"
         style="stop-opacity:1;stop-color:#00b0f0" /><stop
         id="stop398"
         offset="0.81183"
         style="stop-opacity:1;stop-color:#002060" /><stop
         id="stop400"
         offset="1"
         style="stop-opacity:1;stop-color:#7030a0" /></linearGradient><linearGradient
       id="linearGradient422"
       spreadMethod="pad"
       gradientUnits="userSpaceOnUse"
       y2="103.13"
       x2="341.26001"
       y1="159.55"
       x1="303.38"><stop
         id="stop408"
         offset="0"
         style="stop-opacity:1;stop-color:#c00000" /><stop
         id="stop410"
         offset="0.23"
         style="stop-opacity:1;stop-color:#ed7d31" /><stop
         id="stop412"
         offset="0.32952"
         style="stop-opacity:1;stop-color:#ffc000" /><stop
         id="stop414"
         offset="0.52532"
         style="stop-opacity:1;stop-color:#00b050" /><stop
         id="stop416"
         offset="0.69"
         style="stop-opacity:1;stop-color:#00b0f0" /><stop
         id="stop418"
         offset="0.81183"
         style="stop-opacity:1;stop-color:#002060" /><stop
         id="stop420"
         offset="1"
         style="stop-opacity:1;stop-color:#7030a0" /></linearGradient><linearGradient
       id="linearGradient442"
       spreadMethod="pad"
       gradientUnits="userSpaceOnUse"
       y2="103.13"
       x2="341.26001"
       y1="159.55"
       x1="303.38"><stop
         id="stop428"
         offset="0"
         style="stop-opacity:1;stop-color:#c00000" /><stop
         id="stop430"
         offset="0.23"
         style="stop-opacity:1;stop-color:#ed7d31" /><stop
         id="stop432"
         offset="0.32952"
         style="stop-opacity:1;stop-color:#ffc000" /><stop
         id="stop434"
         offset="0.52532"
         style="stop-opacity:1;stop-color:#00b050" /><stop
         id="stop436"
         offset="0.69"
         style="stop-opacity:1;stop-color:#00b0f0" /><stop
         id="stop438"
         offset="0.81183"
         style="stop-opacity:1;stop-color:#002060" /><stop
         id="stop440"
         offset="1"
         style="stop-opacity:1;stop-color:#7030a0" /></linearGradient><linearGradient
       id="linearGradient462"
       spreadMethod="pad"
       gradientUnits="userSpaceOnUse"
       y2="103.13"
       x2="341.26001"
       y1="159.55"
       x1="303.38"><stop
         id="stop448"
         offset="0"
         style="stop-opacity:1;stop-color:#c00000" /><stop
         id="stop450"
         offset="0.23"
         style="stop-opacity:1;stop-color:#ed7d31" /><stop
         id="stop452"
         offset="0.32952"
         style="stop-opacity:1;stop-color:#ffc000" /><stop
         id="stop454"
         offset="0.52532"
         style="stop-opacity:1;stop-color:#00b050" /><stop
         id="stop456"
         offset="0.69"
         style="stop-opacity:1;stop-color:#00b0f0" /><stop
         id="stop458"
         offset="0.81183"
         style="stop-opacity:1;stop-color:#002060" /><stop
         id="stop460"
         offset="1"
         style="stop-opacity:1;stop-color:#7030a0" /></linearGradient><linearGradient
       id="linearGradient482"
       spreadMethod="pad"
       gradientUnits="userSpaceOnUse"
       y2="103.13"
       x2="341.26001"
       y1="159.55"
       x1="303.38"><stop
         id="stop468"
         offset="0"
         style="stop-opacity:1;stop-color:#c00000" /><stop
         id="stop470"
         offset="0.23"
         style="stop-opacity:1;stop-color:#ed7d31" /><stop
         id="stop472"
         offset="0.32952"
         style="stop-opacity:1;stop-color:#ffc000" /><stop
         id="stop474"
         offset="0.52532"
         style="stop-opacity:1;stop-color:#00b050" /><stop
         id="stop476"
         offset="0.69"
         style="stop-opacity:1;stop-color:#00b0f0" /><stop
         id="stop478"
         offset="0.81183"
         style="stop-opacity:1;stop-color:#002060" /><stop
         id="stop480"
         offset="1"
         style="stop-opacity:1;stop-color:#7030a0" /></linearGradient><linearGradient
       id="linearGradient502"
       spreadMethod="pad"
       gradientUnits="userSpaceOnUse"
       y2="103.13"
       x2="341.26001"
       y1="159.55"
       x1="303.38"><stop
         id="stop488"
         offset="0"
         style="stop-opacity:1;stop-color:#c00000" /><stop
         id="stop490"
         offset="0.23"
         style="stop-opacity:1;stop-color:#ed7d31" /><stop
         id="stop492"
         offset="0.32952"
         style="stop-opacity:1;stop-color:#ffc000" /><stop
         id="stop494"
         offset="0.52532"
         style="stop-opacity:1;stop-color:#00b050" /><stop
         id="stop496"
         offset="0.69"
         style="stop-opacity:1;stop-color:#00b0f0" /><stop
         id="stop498"
         offset="0.81183"
         style="stop-opacity:1;stop-color:#002060" /><stop
         id="stop500"
         offset="1"
         style="stop-opacity:1;stop-color:#7030a0" /></linearGradient><linearGradient
       id="linearGradient522"
       spreadMethod="pad"
       gradientUnits="userSpaceOnUse"
       y2="103.13"
       x2="341.26001"
       y1="159.55"
       x1="303.38"><stop
         id="stop508"
         offset="0"
         style="stop-opacity:1;stop-color:#c00000" /><stop
         id="stop510"
         offset="0.23"
         style="stop-opacity:1;stop-color:#ed7d31" /><stop
         id="stop512"
         offset="0.32952"
         style="stop-opacity:1;stop-color:#ffc000" /><stop
         id="stop514"
         offset="0.52532"
         style="stop-opacity:1;stop-color:#00b050" /><stop
         id="stop516"
         offset="0.69"
         style="stop-opacity:1;stop-color:#00b0f0" /><stop
         id="stop518"
         offset="0.81183"
         style="stop-opacity:1;stop-color:#002060" /><stop
         id="stop520"
         offset="1"
         style="stop-opacity:1;stop-color:#7030a0" /></linearGradient><linearGradient
       id="linearGradient542"
       spreadMethod="pad"
       gradientUnits="userSpaceOnUse"
       y2="103.13"
       x2="341.26001"
       y1="159.55"
       x1="303.38"><stop
         id="stop528"
         offset="0"
         style="stop-opacity:1;stop-color:#c00000" /><stop
         id="stop530"
         offset="0.23"
         style="stop-opacity:1;stop-color:#ed7d31" /><stop
         id="stop532"
         offset="0.32952"
         style="stop-opacity:1;stop-color:#ffc000" /><stop
         id="stop534"
         offset="0.52532"
         style="stop-opacity:1;stop-color:#00b050" /><stop
         id="stop536"
         offset="0.69"
         style="stop-opacity:1;stop-color:#00b0f0" /><stop
         id="stop538"
         offset="0.81183"
         style="stop-opacity:1;stop-color:#002060" /><stop
         id="stop540"
         offset="1"
         style="stop-opacity:1;stop-color:#7030a0" /></linearGradient><linearGradient
       id="linearGradient562"
       spreadMethod="pad"
       gradientUnits="userSpaceOnUse"
       y2="103.13"
       x2="341.26001"
       y1="159.55"
       x1="303.38"><stop
         id="stop548"
         offset="0"
         style="stop-opacity:1;stop-color:#c00000" /><stop
         id="stop550"
         offset="0.23"
         style="stop-opacity:1;stop-color:#ed7d31" /><stop
         id="stop552"
         offset="0.32952"
         style="stop-opacity:1;stop-color:#ffc000" /><stop
         id="stop554"
         offset="0.52532"
         style="stop-opacity:1;stop-color:#00b050" /><stop
         id="stop556"
         offset="0.69"
         style="stop-opacity:1;stop-color:#00b0f0" /><stop
         id="stop558"
         offset="0.81183"
         style="stop-opacity:1;stop-color:#002060" /><stop
         id="stop560"
         offset="1"
         style="stop-opacity:1;stop-color:#7030a0" /></linearGradient><linearGradient
       id="linearGradient582"
       spreadMethod="pad"
       gradientUnits="userSpaceOnUse"
       y2="103.13"
       x2="341.26001"
       y1="159.55"
       x1="303.38"><stop
         id="stop568"
         offset="0"
         style="stop-opacity:1;stop-color:#c00000" /><stop
         id="stop570"
         offset="0.23"
         style="stop-opacity:1;stop-color:#ed7d31" /><stop
         id="stop572"
         offset="0.32952"
         style="stop-opacity:1;stop-color:#ffc000" /><stop
         id="stop574"
         offset="0.52532"
         style="stop-opacity:1;stop-color:#00b050" /><stop
         id="stop576"
         offset="0.69"
         style="stop-opacity:1;stop-color:#00b0f0" /><stop
         id="stop578"
         offset="0.81183"
         style="stop-opacity:1;stop-color:#002060" /><stop
         id="stop580"
         offset="1"
         style="stop-opacity:1;stop-color:#7030a0" /></linearGradient><linearGradient
       id="linearGradient610"
       spreadMethod="pad"
       gradientUnits="userSpaceOnUse"
       y2="107.44"
       x2="56.918999"
       y1="182.96001"
       x1="56.918999"><stop
         id="stop588"
         offset="0"
         style="stop-opacity:1;stop-color:#7030a0" /><stop
         id="stop590"
         offset="0.095"
         style="stop-opacity:1;stop-color:#0070c0" /><stop
         id="stop592"
         offset="0.255"
         style="stop-opacity:1;stop-color:#00b050" /><stop
         id="stop594"
         offset="0.4"
         style="stop-opacity:1;stop-color:#ffff00" /><stop
         id="stop596"
         offset="0.45"
         style="stop-opacity:1;stop-color:#e59700" /><stop
         id="stop598"
         offset="0.5"
         style="stop-opacity:1;stop-color:#c00000" /><stop
         id="stop600"
         offset="0.55"
         style="stop-opacity:1;stop-color:#e59700" /><stop
         id="stop602"
         offset="0.6"
         style="stop-opacity:1;stop-color:#ffff00" /><stop
         id="stop604"
         offset="0.745"
         style="stop-opacity:1;stop-color:#00b050" /><stop
         id="stop606"
         offset="0.905"
         style="stop-opacity:1;stop-color:#0070c0" /><stop
         id="stop608"
         offset="1"
         style="stop-opacity:1;stop-color:#7030a0" /></linearGradient><linearGradient
       id="linearGradient638"
       spreadMethod="pad"
       gradientUnits="userSpaceOnUse"
       y2="155.17"
       x2="56.960999"
       y1="79.656998"
       x1="56.960999"><stop
         id="stop616"
         offset="0"
         style="stop-opacity:1;stop-color:#7030a0" /><stop
         id="stop618"
         offset="0.095"
         style="stop-opacity:1;stop-color:#0070c0" /><stop
         id="stop620"
         offset="0.255"
         style="stop-opacity:1;stop-color:#00b050" /><stop
         id="stop622"
         offset="0.4"
         style="stop-opacity:1;stop-color:#ffff00" /><stop
         id="stop624"
         offset="0.45"
         style="stop-opacity:1;stop-color:#e59700" /><stop
         id="stop626"
         offset="0.5"
         style="stop-opacity:1;stop-color:#c00000" /><stop
         id="stop628"
         offset="0.55"
         style="stop-opacity:1;stop-color:#e59700" /><stop
         id="stop630"
         offset="0.6"
         style="stop-opacity:1;stop-color:#ffff00" /><stop
         id="stop632"
         offset="0.745"
         style="stop-opacity:1;stop-color:#00b050" /><stop
         id="stop634"
         offset="0.905"
         style="stop-opacity:1;stop-color:#0070c0" /><stop
         id="stop636"
         offset="1"
         style="stop-opacity:1;stop-color:#7030a0" /></linearGradient></defs><g
     transform="matrix(1.3333333,0,0,-1.3333333,0,350.08)"
     id="g10"><g
       id="g12"><g
         clip-path="url(#clipPath18)"
         id="g14"><path
           id="path20"
           style="fill:#ffffff;fill-opacity:1;fill-rule:evenodd;stroke:none"
           d="M 0,3.0518e-5 H 375 V 262.56003 H 0 Z" /></g></g><path
       id="path22"
       style="fill:#000000;fill-opacity:1;fill-rule:evenodd;stroke:none"
       d="m 187.5,209.64 c 43.24,0 78.3,-35.06 78.3,-78.3 0,-43.244 -35.06,-78.3 -78.3,-78.3 -12.16,0 -23.68,2.773 -33.95,7.721 l -1.4,0.719 1.4,1.554 c 11.92,13.216 26.98,29.877 34.3,38.056 l 0.89,-0.79 c 2.38,-2.126 6.03,-1.923 8.16,0.46 1.59,1.78 1.88,4.28 0.92,6.32 l -0.16,0.25 h 0.08 c 14.41,0.8 25.44,13.13 24.64,27.54 -0.4,7.2 -3.68,13.56 -8.67,18.02 -4.36,3.9 -10.02,6.35 -16.19,6.63 -0.89,0.04 -1.78,0.04 -2.68,-0.01 -14.41,-0.8 -25.44,-13.13 -24.64,-27.54 l 0.01,-0.08 -0.27,0.13 c -2.13,0.73 -4.58,0.17 -6.18,-1.62 -2.13,-2.38 -1.92,-6.03 0.45,-8.16 l 0.89,-0.79 -36.89,-41.224 -1.13,1.308 c -11.17,13.535 -17.88,30.886 -17.88,49.806 0,43.24 35.06,78.3 78.3,78.3 z" /><g
       id="g24"><path
         id="path54"
         style="fill:url(#linearGradient52);fill-opacity:1;fill-rule:evenodd;stroke:none"
         d="m 123.72,131.28 c 0,35.26 28.56,63.84 63.78,63.84 35.22,0 63.78,-28.58 63.78,-63.84 0,-35.258 -28.56,-63.84 -63.78,-63.84 -35.22,0 -63.78,28.582 -63.78,63.84 z" /></g><path
       id="path56"
       style="fill:#ffffff;fill-opacity:1;fill-rule:evenodd;stroke:none"
       d="m 197.46,159.45 c 6.17,-0.28 11.83,-2.72 16.19,-6.62 4.99,-4.46 8.27,-10.82 8.67,-18.02 0.8,-14.4 -10.23,-26.73 -24.64,-27.53 h -0.07 l 0.15,-0.26 c 0.96,-2.03 0.67,-4.53 -0.92,-6.32 -2.13,-2.372 -5.78,-2.575 -8.16,-0.45 l -0.88,0.79 C 180.48,92.864 165.41,76.207 153.5,62.995 l -1.4,-1.555 -1.98,1.01 c -7.76,4.218 -14.73,9.711 -20.63,16.198 l -1.33,1.533 36.88,41.219 -0.88,0.79 c -2.38,2.12 -2.58,5.78 -0.45,8.15 1.59,1.79 4.04,2.35 6.17,1.62 l 0.27,-0.13 v 0.08 c -0.8,14.4 10.23,26.73 24.63,27.53 0.91,0.05 1.8,0.05 2.68,0.01 z" /><g
       id="g58"><path
         id="path84"
         style="fill:url(#linearGradient82);fill-opacity:1;fill-rule:nonzero;stroke:none"
         d="m 276.46,202.82 -0.84,-0.72 -0.7,-0.7 -0.66,-0.74 -0.6,-0.76 -0.56,-0.78 -0.48,-0.78 -0.41,-0.75 -0.34,-0.74 -0.27,-0.69 -0.18,-0.62 -0.09,-0.53 v -0.42 l -0.01,0.24 0.06,-0.54 -0.08,0.35 0.16,-0.45 -0.23,0.41 0.27,-0.35 -0.37,0.34 0.38,-0.24 -0.32,0.16 0.24,-0.09 0.14,-0.02 0.59,-0.08 0.73,-0.04 0.9,0.01 1.05,0.06 1.15,0.11 1.22,0.19 1.3,0.24 1.33,0.32 1.36,0.38 1.32,0.46 1.33,0.53 1.26,0.61 1.21,0.68 1.11,0.76 1.01,0.84 0.94,0.88 0.91,0.87 0.84,0.83 0.81,0.78 0.74,0.73 0.74,0.69 0.72,0.63 0.72,0.57 0.74,0.52 0.8,0.46 0.81,0.37 0.9,0.29 0.93,0.18 0.99,0.09 1.06,-0.04 1.09,-0.14 1.17,-0.25 1.2,-0.4 1.2,-0.48 1.21,-0.59 1.24,-0.68 1.24,-0.75 1.26,-0.82 1.27,-0.89 1.29,-0.94 1.3,-1 2.62,-2.09 2.66,-2.22 2.67,-2.27 c 0.63,-0.53 0.71,-1.48 0.17,-2.11 -0.53,-0.63 -1.48,-0.71 -2.11,-0.17 l -2.64,2.24 -2.62,2.18 -2.57,2.06 -1.25,0.96 -1.23,0.9 -1.2,0.84 -1.17,0.76 -1.15,0.7 -1.09,0.6 -1.05,0.51 -0.99,0.42 -0.93,0.31 -0.89,0.21 -0.83,0.11 -0.72,0.04 -0.65,-0.03 -0.59,-0.11 -0.56,-0.16 -0.57,-0.24 -0.55,-0.31 -0.59,-0.41 -0.62,-0.49 -0.64,-0.55 -0.69,-0.65 -0.75,-0.73 -0.79,-0.77 -0.87,-0.85 -0.95,-0.92 -1.08,-0.99 -1.23,-1 -1.32,-0.89 -1.39,-0.78 -1.44,-0.69 -1.46,-0.58 -1.49,-0.51 -1.48,-0.41 -1.46,-0.35 -1.41,-0.26 -1.38,-0.21 -1.28,-0.12 -1.19,-0.06 -1.1,-0.01 -1,0.07 -0.82,0.13 -0.44,0.11 -0.24,0.08 c -0.11,0.04 -0.22,0.09 -0.32,0.15 l -0.38,0.24 c -0.14,0.1 -0.26,0.21 -0.37,0.34 l -0.27,0.35 c -0.1,0.12 -0.17,0.26 -0.23,0.41 l -0.16,0.45 c -0.04,0.11 -0.07,0.23 -0.08,0.35 l -0.06,0.54 c -0.01,0.08 -0.01,0.16 -0.01,0.23 l 0.05,0.83 0.17,0.83 0.26,0.86 0.34,0.88 0.43,0.9 0.5,0.91 0.58,0.92 0.65,0.9 0.72,0.9 0.78,0.87 0.85,0.84 0.83,0.72 c 0.63,0.54 1.58,0.47 2.12,-0.15 0.54,-0.63 0.47,-1.58 -0.15,-2.12 z" /></g><g
       id="g86"><g
         clip-path="url(#clipPath92)"
         id="g88"><path
           id="path122"
           style="fill:url(#linearGradient120);fill-opacity:1;fill-rule:evenodd;stroke:none"
           d="m 313.22,245.96 c -1.93,1.73 -4.51,2.71 -7.29,2.56 -5.57,-0.31 -9.83,-5.07 -9.52,-10.64 v -0.03 l -0.1,0.05 c -0.83,0.28 -1.77,0.07 -2.39,-0.62 -0.82,-0.92 -0.74,-2.33 0.17,-3.16 l 0.35,-0.3 -22.26,-24.88 c -2.18,-2.43 -1.97,-6.16 0.46,-8.33 v 0 c 2.43,-2.17 6.15,-1.96 8.33,0.47 l 22.26,24.87 0.34,-0.3 c 0.92,-0.82 2.33,-0.74 3.15,0.17 0.62,0.69 0.73,1.66 0.35,2.45 l -0.05,0.09 0.03,0.01 c 5.56,0.3 9.82,5.07 9.51,10.63 -0.15,2.78 -1.42,5.24 -3.34,6.96 z" /></g></g><g
       id="g124"><path
         id="path142"
         style="fill:url(#linearGradient140);fill-opacity:1;fill-rule:evenodd;stroke:none"
         d="m 266.28,25.32 c 0,4.904 4.57,8.88 10.2,8.88 5.63,0 10.2,-3.976 10.2,-8.88 0,-4.904 -4.57,-8.88 -10.2,-8.88 -5.63,0 -10.2,3.976 -10.2,8.88 z" /></g><g
       id="g144"><path
         id="path162"
         style="fill:url(#linearGradient160);fill-opacity:1;fill-rule:evenodd;stroke:none"
         d="m 299.16,34.08 c 0,4.904 4.54,8.88 10.14,8.88 5.6,0 10.14,-3.976 10.14,-8.88 0,-4.904 -4.54,-8.88 -10.14,-8.88 -5.6,0 -10.14,3.976 -10.14,8.88 z" /></g><g
       id="g164"><g
         clip-path="url(#clipPath170)"
         id="g166"><path
           id="path188"
           style="fill:url(#linearGradient186);fill-opacity:1;fill-rule:evenodd;stroke:none"
           d="M 319.44,77.4 V 64.091 L 282.12,54.72 v 13.309 z" /></g></g><g
       id="g190"><path
         id="path208"
         style="fill:url(#linearGradient206);fill-opacity:1;fill-rule:evenodd;stroke:none"
         d="m 315,34.2 h 4.56 V 69.72 H 315 Z" /></g><g
       id="g210"><path
         id="path228"
         style="fill:url(#linearGradient226);fill-opacity:1;fill-rule:evenodd;stroke:none"
         d="m 282.12,25.2 h 4.56 v 40.32 h -4.56 z" /></g><g
       id="g230"><path
         id="path260"
         style="fill:url(#linearGradient258);fill-opacity:1;fill-rule:evenodd;stroke:none"
         d="m 98.553,27.505 c -0.125,0 -0.227,-0.101 -0.227,-0.227 v -3.703 c 0,-0.126 0.102,-0.227 0.227,-0.227 h 2.727 c 0.13,0 0.23,0.101 0.23,0.227 v 3.703 c 0,0.126 -0.1,0.227 -0.23,0.227 z m -6.555,0 c -0.126,0 -0.228,-0.101 -0.228,-0.227 v -3.703 c 0,-0.126 0.102,-0.227 0.228,-0.227 h 2.728 c 0.126,0 0.227,0.101 0.227,0.227 v 3.703 c 0,0.126 -0.101,0.227 -0.227,0.227 z m -6.556,0 c -0.125,0 -0.227,-0.101 -0.227,-0.227 v -3.703 c 0,-0.126 0.102,-0.227 0.227,-0.227 h 2.728 c 0.126,0 0.228,0.101 0.228,0.227 v 3.703 c 0,0.126 -0.102,0.227 -0.228,0.227 z m -6.556,0 c -0.125,0 -0.227,-0.101 -0.227,-0.227 v -3.703 c 0,-0.126 0.102,-0.227 0.227,-0.227 h 2.729 c 0.125,0 0.227,0.101 0.227,0.227 v 3.703 c 0,0.126 -0.102,0.227 -0.227,0.227 z m -6.555,0 c -0.126,0 -0.228,-0.101 -0.228,-0.227 v -3.703 c 0,-0.126 0.102,-0.227 0.228,-0.227 h 2.728 c 0.126,0 0.228,0.101 0.228,0.227 v 3.703 c 0,0.126 -0.102,0.227 -0.228,0.227 z m -6.556,0 c -0.125,0 -0.227,-0.101 -0.227,-0.227 v -3.703 c 0,-0.126 0.102,-0.227 0.227,-0.227 h 2.729 c 0.125,0 0.227,0.101 0.227,0.227 v 3.703 c 0,0.126 -0.102,0.227 -0.227,0.227 z m -6.555,0 c -0.126,0 -0.228,-0.101 -0.228,-0.227 v -3.703 c 0,-0.126 0.102,-0.227 0.228,-0.227 h 2.728 c 0.125,0 0.227,0.101 0.227,0.227 v 3.703 c 0,0.126 -0.102,0.227 -0.227,0.227 z m -6.556,0 c -0.126,0 -0.227,-0.101 -0.227,-0.227 v -3.703 c 0,-0.126 0.101,-0.227 0.227,-0.227 h 2.728 c 0.126,0 0.228,0.101 0.228,0.227 v 3.703 c 0,0.126 -0.102,0.227 -0.228,0.227 z m -6.556,0 c -0.125,0 -0.227,-0.101 -0.227,-0.227 v -3.703 c 0,-0.126 0.102,-0.227 0.227,-0.227 h 2.729 c 0.125,0 0.227,0.101 0.227,0.227 v 3.703 c 0,0.126 -0.102,0.227 -0.227,0.227 z m -0.152,32.437 c -0.414,0 -0.75,-0.335 -0.75,-0.748 V 29.727 c 0,-0.414 0.336,-0.749 0.75,-0.749 h 55.564 c 0.42,0 0.75,0.335 0.75,0.749 v 29.467 c 0,0.413 -0.33,0.748 -0.75,0.748 z m 52.597,6.339 c -0.125,0 -0.227,-0.102 -0.227,-0.227 V 62.35 c 0,-0.125 0.102,-0.226 0.227,-0.226 h 2.727 c 0.13,0 0.23,0.101 0.23,0.226 v 3.704 c 0,0.125 -0.1,0.227 -0.23,0.227 z m -6.555,0 c -0.126,0 -0.228,-0.102 -0.228,-0.227 V 62.35 c 0,-0.125 0.102,-0.226 0.228,-0.226 h 2.728 c 0.126,0 0.227,0.101 0.227,0.226 v 3.704 c 0,0.125 -0.101,0.227 -0.227,0.227 z m -6.556,0 c -0.125,0 -0.227,-0.102 -0.227,-0.227 V 62.35 c 0,-0.125 0.102,-0.226 0.227,-0.226 h 2.728 c 0.126,0 0.228,0.101 0.228,0.226 v 3.704 c 0,0.125 -0.102,0.227 -0.228,0.227 z m -6.556,0 c -0.125,0 -0.227,-0.102 -0.227,-0.227 V 62.35 c 0,-0.125 0.102,-0.226 0.227,-0.226 h 2.729 c 0.125,0 0.227,0.101 0.227,0.226 v 3.704 c 0,0.125 -0.102,0.227 -0.227,0.227 z m -6.555,0 c -0.126,0 -0.228,-0.102 -0.228,-0.227 V 62.35 c 0,-0.125 0.102,-0.226 0.228,-0.226 h 2.728 c 0.126,0 0.228,0.101 0.228,0.226 v 3.704 c 0,0.125 -0.102,0.227 -0.228,0.227 z m -6.556,0 c -0.125,0 -0.227,-0.102 -0.227,-0.227 V 62.35 c 0,-0.125 0.102,-0.226 0.227,-0.226 h 2.729 c 0.125,0 0.227,0.101 0.227,0.226 v 3.704 c 0,0.125 -0.102,0.227 -0.227,0.227 z m -6.555,0 c -0.126,0 -0.228,-0.102 -0.228,-0.227 V 62.35 c 0,-0.125 0.102,-0.226 0.228,-0.226 h 2.728 c 0.125,0 0.227,0.101 0.227,0.226 v 3.704 c 0,0.125 -0.102,0.227 -0.227,0.227 z m -6.556,0 c -0.126,0 -0.227,-0.102 -0.227,-0.227 V 62.35 c 0,-0.125 0.101,-0.226 0.227,-0.226 h 2.728 c 0.126,0 0.228,0.101 0.228,0.226 v 3.704 c 0,0.125 -0.102,0.227 -0.228,0.227 z m -6.556,0 c -0.125,0 -0.227,-0.102 -0.227,-0.227 V 62.35 c 0,-0.125 0.102,-0.226 0.227,-0.226 h 2.729 c 0.125,0 0.227,0.101 0.227,0.226 v 3.704 c 0,0.125 -0.102,0.227 -0.227,0.227 z M 44.785,68.16 H 102.7 c 0.87,0 1.58,-0.708 1.58,-1.58 V 22.34 c 0,-0.872 -0.71,-1.58 -1.58,-1.58 H 44.785 c -0.876,0 -1.585,0.708 -1.585,1.58 v 44.24 c 0,0.872 0.709,1.58 1.585,1.58 z" /></g><g
       id="g262"><path
         id="path304"
         style="fill:url(#linearGradient302);fill-opacity:1;fill-rule:evenodd;stroke:none"
         d="m 72.125,242.06 c -7.9,0 -14.305,-6.4 -14.305,-14.3 0,-7.89 6.405,-14.29 14.305,-14.29 7.9,0 14.305,6.4 14.305,14.29 0,7.9 -6.405,14.3 -14.305,14.3 z m 0,5.86 c 11.137,0 20.165,-9.02 20.165,-20.16 0,-3.47 -0.882,-6.75 -2.434,-9.6 l -0.68,-1.12 0.048,-0.04 c 0.129,-0.11 0.254,-0.23 0.374,-0.36 l 12.592,-13.47 c 1.92,-2.04 1.81,-5.25 -0.24,-7.16 -2.046,-1.92 -5.257,-1.81 -7.17,0.24 l -12.595,13.46 c -0.12,0.13 -0.231,0.26 -0.335,0.4 h -10e-4 l -0.112,-0.07 c -2.857,-1.55 -6.132,-2.43 -9.612,-2.43 -11.137,0 -20.165,9.02 -20.165,20.15 0,11.14 9.028,20.16 20.165,20.16 z" /></g><g
       id="g306"><path
         id="path324"
         style="fill:url(#linearGradient322);fill-opacity:1;fill-rule:evenodd;stroke:none"
         d="m 323.16,150.42 c 0,0.76 0.62,1.38 1.38,1.38 v 0 c 0.76,0 1.38,-0.62 1.38,-1.38 v -38.16 c 0,-0.76 -0.62,-1.38 -1.38,-1.38 v 0 c -0.76,0 -1.38,0.62 -1.38,1.38 z" /></g><g
       id="g326"><path
         id="path344"
         style="fill:url(#linearGradient342);fill-opacity:1;fill-rule:evenodd;stroke:none"
         d="m 327.6,146.46 c 0,0.76 0.62,1.38 1.38,1.38 v 0 c 0.76,0 1.38,-0.62 1.38,-1.38 v -30.24 c 0,-0.76 -0.62,-1.38 -1.38,-1.38 v 0 c -0.76,0 -1.38,0.62 -1.38,1.38 z" /></g><g
       id="g346"><path
         id="path364"
         style="fill:url(#linearGradient362);fill-opacity:1;fill-rule:evenodd;stroke:none"
         d="m 332.04,142.8 c 0,0.8 0.64,1.44 1.44,1.44 v 0 c 0.8,0 1.44,-0.64 1.44,-1.44 v -23.04 c 0,-0.8 -0.64,-1.44 -1.44,-1.44 v 0 c -0.8,0 -1.44,0.64 -1.44,1.44 z" /></g><g
       id="g366"><path
         id="path384"
         style="fill:url(#linearGradient382);fill-opacity:1;fill-rule:evenodd;stroke:none"
         d="m 336.6,138.78 c 0,0.76 0.62,1.38 1.38,1.38 v 0 c 0.76,0 1.38,-0.62 1.38,-1.38 v -15 c 0,-0.76 -0.62,-1.38 -1.38,-1.38 v 0 c -0.76,0 -1.38,0.62 -1.38,1.38 z" /></g><g
       id="g386"><path
         id="path404"
         style="fill:url(#linearGradient402);fill-opacity:1;fill-rule:evenodd;stroke:none"
         d="m 341.04,136.14 c 0,0.76 0.62,1.38 1.38,1.38 v 0 c 0.76,0 1.38,-0.62 1.38,-1.38 v -9.6 c 0,-0.76 -0.62,-1.38 -1.38,-1.38 v 0 c -0.76,0 -1.38,0.62 -1.38,1.38 z" /></g><g
       id="g406"><path
         id="path424"
         style="fill:url(#linearGradient422);fill-opacity:1;fill-rule:evenodd;stroke:none"
         d="m 345.48,134.76 c 0,0.8 0.64,1.44 1.44,1.44 v 0 c 0.8,0 1.44,-0.64 1.44,-1.44 v -6.84 c 0,-0.8 -0.64,-1.44 -1.44,-1.44 v 0 c -0.8,0 -1.44,0.64 -1.44,1.44 z" /></g><g
       id="g426"><path
         id="path444"
         style="fill:url(#linearGradient442);fill-opacity:1;fill-rule:evenodd;stroke:none"
         d="m 318.72,142.02 c 0,0.76 0.62,1.38 1.38,1.38 v 0 c 0.76,0 1.38,-0.62 1.38,-1.38 v -21.48 c 0,-0.76 -0.62,-1.38 -1.38,-1.38 v 0 c -0.76,0 -1.38,0.62 -1.38,1.38 z" /></g><g
       id="g446"><path
         id="path464"
         style="fill:url(#linearGradient462);fill-opacity:1;fill-rule:evenodd;stroke:none"
         d="m 314.16,137.7 c 0,0.76 0.62,1.38 1.38,1.38 v 0 c 0.76,0 1.38,-0.62 1.38,-1.38 v -12.72 c 0,-0.76 -0.62,-1.38 -1.38,-1.38 v 0 c -0.76,0 -1.38,0.62 -1.38,1.38 z" /></g><g
       id="g466"><path
         id="path484"
         style="fill:url(#linearGradient482);fill-opacity:1;fill-rule:evenodd;stroke:none"
         d="m 309.72,135.18 c 0,0.76 0.62,1.38 1.38,1.38 v 0 c 0.76,0 1.38,-0.62 1.38,-1.38 v -7.68 c 0,-0.76 -0.62,-1.38 -1.38,-1.38 v 0 c -0.76,0 -1.38,0.62 -1.38,1.38 z" /></g><g
       id="g486"><path
         id="path504"
         style="fill:url(#linearGradient502);fill-opacity:1;fill-rule:evenodd;stroke:none"
         d="m 305.28,143.34 c 0,0.76 0.62,1.38 1.38,1.38 v 0 c 0.76,0 1.38,-0.62 1.38,-1.38 v -24 c 0,-0.76 -0.62,-1.38 -1.38,-1.38 v 0 c -0.76,0 -1.38,0.62 -1.38,1.38 z" /></g><g
       id="g506"><path
         id="path524"
         style="fill:url(#linearGradient522);fill-opacity:1;fill-rule:evenodd;stroke:none"
         d="m 300.72,138.78 c 0,0.76 0.62,1.38 1.38,1.38 v 0 c 0.76,0 1.38,-0.62 1.38,-1.38 v -15 c 0,-0.76 -0.62,-1.38 -1.38,-1.38 v 0 c -0.76,0 -1.38,0.62 -1.38,1.38 z" /></g><g
       id="g526"><path
         id="path544"
         style="fill:url(#linearGradient542);fill-opacity:1;fill-rule:evenodd;stroke:none"
         d="m 350.04,132.78 c 0,0.76 0.62,1.38 1.38,1.38 v 0 c 0.76,0 1.38,-0.62 1.38,-1.38 v -3 c 0,-0.76 -0.62,-1.38 -1.38,-1.38 v 0 c -0.76,0 -1.38,0.62 -1.38,1.38 z" /></g><g
       id="g546"><path
         id="path564"
         style="fill:url(#linearGradient562);fill-opacity:1;fill-rule:evenodd;stroke:none"
         d="m 296.28,134.82 c 0,0.76 0.62,1.38 1.38,1.38 v 0 c 0.76,0 1.38,-0.62 1.38,-1.38 v -6.96 c 0,-0.76 -0.62,-1.38 -1.38,-1.38 v 0 c -0.76,0 -1.38,0.62 -1.38,1.38 z" /></g><g
       id="g566"><path
         id="path584"
         style="fill:url(#linearGradient582);fill-opacity:1;fill-rule:evenodd;stroke:none"
         d="m 291.84,132.78 c 0,0.76 0.62,1.38 1.38,1.38 v 0 c 0.76,0 1.38,-0.62 1.38,-1.38 v -3 c 0,-0.76 -0.62,-1.38 -1.38,-1.38 v 0 c -0.76,0 -1.38,0.62 -1.38,1.38 z" /></g><g
       id="g586"><path
         id="path612"
         style="fill:url(#linearGradient610);fill-opacity:1;fill-rule:nonzero;stroke:none"
         d="m 27.598,145.2 2.288,-0.07 2.383,-0.21 2.335,-0.33 2.286,-0.46 2.206,-0.56 2.114,-0.66 2.026,-0.76 1.893,-0.85 1.754,-0.93 1.605,-1 0.784,-0.56 0.707,-0.57 0.644,-0.56 0.602,-0.59 0.564,-0.62 0.514,-0.66 0.434,-0.64 0.389,-0.7 0.319,-0.72 0.241,-0.74 0.16,-0.79 0.067,-0.78 0.037,-0.56 0.076,-0.33 0.117,-0.33 0.164,-0.36 0.214,-0.37 0.271,-0.4 0.339,-0.43 0.371,-0.41 0.44,-0.42 0.509,-0.44 0.555,-0.45 0.579,-0.41 1.394,-0.87 1.509,-0.8 1.666,-0.74 1.794,-0.68 1.914,-0.6 2.002,-0.51 0.967,-0.19 c 1.073,-0.21 1.772,-1.25 1.561,-2.32 -0.211,-1.07 -1.252,-1.77 -2.325,-1.56 l -1.186,0.23 -2.213,0.57 -2.121,0.68 -2.016,0.76 -1.904,0.86 -1.761,0.95 -1.576,1 -0.771,0.55 -0.69,0.56 -0.646,0.57 -0.625,0.62 -0.574,0.64 -0.486,0.65 -0.449,0.68 -0.386,0.73 -0.301,0.73 -0.228,0.78 -0.134,0.79 -0.038,0.56 -0.008,0.32 -0.05,0.34 -0.104,0.37 -0.146,0.37 -0.211,0.4 -0.286,0.44 -0.311,0.42 -0.381,0.43 -0.463,0.45 -0.511,0.45 -0.538,0.44 -0.566,0.41 -1.365,0.86 -1.516,0.82 -1.677,0.75 -1.799,0.69 -1.921,0.6 -1.994,0.52 -2.079,0.42 -2.12,0.31 -2.147,0.19 -2.287,0.07 c -1.093,0.03 -1.953,0.95 -1.921,2.04 0.032,1.09 0.944,1.95 2.037,1.92 z m 40.851,-25 -3.333,6.31 11.211,-7.12 -12.424,-4.69 z" /></g><g
       id="g614"><path
         id="path640"
         style="fill:url(#linearGradient638);fill-opacity:1;fill-rule:nonzero;stroke:none"
         d="m 27.719,117.42 2.28,0.06 2.375,0.21 2.328,0.34 2.273,0.45 2.203,0.57 2.109,0.65 2.019,0.77 1.886,0.85 1.751,0.93 1.602,1 0.78,0.56 0.697,0.56 0.656,0.58 0.594,0.58 0.555,0.61 0.511,0.65 0.448,0.67 0.378,0.68 0.317,0.71 0.249,0.78 0.154,0.76 0.066,0.79 0.038,0.55 0.076,0.34 0.116,0.35 0.156,0.32 0.223,0.39 0.274,0.41 0.325,0.4 0.381,0.42 0.443,0.43 0.501,0.45 0.544,0.43 0.589,0.42 1.382,0.87 1.505,0.8 1.662,0.74 1.79,0.67 1.909,0.61 1.988,0.51 0.942,0.18 c 1.073,0.21 1.772,1.25 1.561,2.32 -0.211,1.08 -1.252,1.77 -2.325,1.56 l -1.167,-0.23 -2.197,-0.57 -2.111,-0.67 -2.02,-0.77 -1.893,-0.86 -1.765,-0.95 -1.573,-1 -0.746,-0.54 -0.716,-0.57 -0.639,-0.58 -0.607,-0.6 -0.564,-0.63 -0.515,-0.68 -0.431,-0.67 -0.377,-0.7 -0.324,-0.78 -0.214,-0.76 L 50.037,132 50,131.45 l -0.009,-0.33 -0.056,-0.36 -0.081,-0.32 -0.163,-0.4 -0.222,-0.41 -0.257,-0.41 -0.329,-0.43 -0.39,-0.44 -0.456,-0.45 -0.484,-0.44 -0.563,-0.45 -0.555,-0.41 -1.353,-0.86 -1.519,-0.81 -1.669,-0.76 -1.791,-0.69 -1.911,-0.6 -1.997,-0.52 -2.062,-0.41 -2.112,-0.31 -2.14,-0.2 -2.28,-0.07 c -1.093,-0.03 -1.952,-0.94 -1.92,-2.03 0.032,-1.1 0.945,-1.96 2.038,-1.92 z m 40.693,24.99 -3.33,-6.31 11.208,7.12 -12.427,4.69 z" /></g><path
       id="path642"
       style="fill:#ffffff;fill-opacity:1;fill-rule:evenodd;stroke:none"
       d="m 157.11,106.8 17.25,-13.978 -2.47,-2.749 C 166.15,83.719 158.37,75.121 151.87,67.929 l -1.63,-1.809 -2.27,1.157 c -5.64,3.061 -10.71,7.047 -15,11.756 l -0.37,0.425 z" /></g></svg>