<?xml version="1.0" encoding="UTF-8" standalone="no"?>
<svg
   xmlns:dc="http://purl.org/dc/elements/1.1/"
   xmlns:cc="http://creativecommons.org/ns#"
   xmlns:rdf="http://www.w3.org/1999/02/22-rdf-syntax-ns#"
   xmlns:svg="http://www.w3.org/2000/svg"
   xmlns="http://www.w3.org/2000/svg"
   viewBox="0 0 1000 1000"
   height="1000"
   width="1000"
   xml:space="preserve"
   id="svg2"
   version="1.1"><metadata
     id="metadata8"><rdf:RDF><cc:Work
         rdf:about=""><dc:format>image/svg+xml</dc:format><dc:type
           rdf:resource="http://purl.org/dc/dcmitype/StillImage" /></cc:Work></rdf:RDF></metadata><defs
     id="defs6" /><g
     transform="matrix(1.3333333,0,0,-1.3333333,0,1000)"
     id="g10"><path
       id="path12"
       style="fill:#bf9000;fill-opacity:1;fill-rule:evenodd;stroke:none"
       d="m 74.04,508.2 c 0,41.88 33.96,75.84 75.84,75.84 h 450.24 c 41.88,0 75.84,-33.96 75.84,-75.84 V 204.84 C 675.96,162.96 642,129 600.12,129 H 149.88 C 108,129 74.04,162.96 74.04,204.84 Z" /><path
       id="path14"
       style="fill:#ffc000;fill-opacity:1;fill-rule:evenodd;stroke:none"
       d="m 241.8,548.64 c 0,39.96 32.4,72.36 72.36,72.36 H 603.6 c 39.96,0 72.36,-32.4 72.36,-72.36 V 201.36 C 675.96,161.4 643.56,129 603.6,129 H 314.16 c -39.96,0 -72.36,32.4 -72.36,72.36 z" /><path
       id="path16"
       style="fill:#ffc000;fill-opacity:1;fill-rule:evenodd;stroke:none"
       d="m 74.04,388.94 c 0,28.49 23.094,51.58 51.58,51.58 h 331 c 28.49,0 51.58,-23.09 51.58,-51.58 V 182.62 c 0,-28.49 -23.09,-51.58 -51.58,-51.58 h -331 c -28.486,0 -51.58,23.09 -51.58,51.58 z" /></g></svg>