<?xml version="1.0" encoding="UTF-8" standalone="no"?>
<svg
   xmlns:dc="http://purl.org/dc/elements/1.1/"
   xmlns:cc="http://creativecommons.org/ns#"
   xmlns:rdf="http://www.w3.org/1999/02/22-rdf-syntax-ns#"
   xmlns:svg="http://www.w3.org/2000/svg"
   xmlns="http://www.w3.org/2000/svg"
   viewBox="0 0 1000 1000"
   height="1000"
   width="1000"
   xml:space="preserve"
   id="svg2"
   version="1.1"><metadata
     id="metadata8"><rdf:RDF><cc:Work
         rdf:about=""><dc:format>image/svg+xml</dc:format><dc:type
           rdf:resource="http://purl.org/dc/dcmitype/StillImage" /></cc:Work></rdf:RDF></metadata><defs
     id="defs6" /><g
     transform="matrix(1.3333333,0,0,-1.3333333,0,1000)"
     id="g10"><path
       id="path12"
       style="fill:#0070c0;fill-opacity:1;fill-rule:evenodd;stroke:none"
       d="m 62.52,375 c 0,172.58 139.9,312.48 312.48,312.48 172.58,0 312.48,-139.9 312.48,-312.48 C 687.48,202.42 547.58,62.52 375,62.52 202.42,62.52 62.52,202.42 62.52,375 Z" /><path
       id="path14"
       style="fill:#ffffff;fill-opacity:1;fill-rule:nonzero;stroke:none"
       d="m 487.29,465.62 c 0,-15.88 -2.28,-30.21 -6.83,-42.99 -4.55,-12.78 -10.94,-23.82 -19.17,-33.12 -8.23,-9.3 -18.11,-16.75 -29.63,-22.37 -11.53,-5.62 -24.26,-9.2 -38.21,-10.75 l -2.32,-56.65 c -0.19,-3.48 -2.95,-6.1 -8.28,-7.84 -5.33,-1.74 -13.02,-2.62 -23.09,-2.62 -6.4,0 -11.77,0.15 -16.13,0.44 -4.36,0.29 -7.79,0.82 -10.31,1.6 -2.52,0.77 -4.36,1.84 -5.52,3.19 -1.16,1.36 -1.84,3.1 -2.03,5.23 l -2.62,68.56 c -0.19,6.2 0.1,11.24 0.87,15.11 0.78,3.87 2.18,6.97 4.21,9.3 2.04,2.32 4.6,3.92 7.7,4.79 3.1,0.87 6.78,1.31 11.04,1.31 h 4.07 c 10.26,0 19.12,1.64 26.58,4.94 7.46,3.29 13.61,7.65 18.45,13.07 4.84,5.42 8.37,11.81 10.6,19.17 2.23,7.36 3.34,15.2 3.34,23.53 0,9.3 -1.3,17.82 -3.92,25.57 -2.61,7.74 -6.58,14.43 -11.91,20.04 -5.33,5.62 -12.01,9.93 -20.04,12.93 -8.04,3 -17.48,4.5 -28.33,4.5 -9.88,0 -18.59,-0.97 -26.14,-2.9 -7.56,-1.94 -14.05,-4.07 -19.47,-6.39 -5.42,-2.33 -9.92,-4.46 -13.51,-6.39 -3.58,-1.94 -6.34,-2.91 -8.28,-2.91 -1.35,0 -2.61,0.44 -3.77,1.31 -1.17,0.87 -2.13,2.47 -2.91,4.79 -0.77,2.32 -1.4,5.62 -1.89,9.88 -0.48,4.26 -0.72,9.68 -0.72,16.27 0,6.78 0.29,11.71 0.87,14.81 0.58,3.1 1.84,5.62 3.77,7.56 1.94,1.93 5.62,4.21 11.04,6.82 5.43,2.62 11.91,5.04 19.47,7.27 7.55,2.22 15.98,4.11 25.27,5.66 9.3,1.55 18.98,2.32 29.05,2.32 22.86,0 42.42,-3.14 58.69,-9.44 16.26,-6.29 29.58,-14.76 39.94,-25.42 10.36,-10.65 17.96,-22.85 22.81,-36.6 4.84,-13.75 7.26,-28.28 7.26,-43.58 z M 401.3,216.66 c 0,-7.94 -0.63,-14.62 -1.89,-20.05 -1.26,-5.42 -3.49,-9.78 -6.68,-13.07 -3.2,-3.29 -7.46,-5.66 -12.78,-7.12 -5.33,-1.45 -11.87,-2.18 -19.61,-2.18 -8.14,0 -14.82,0.73 -20.05,2.18 -5.23,1.46 -9.44,3.83 -12.64,7.12 -3.19,3.29 -5.42,7.65 -6.68,13.07 -1.26,5.43 -1.89,12.11 -1.89,20.05 0,8.13 0.63,14.96 1.89,20.48 1.26,5.52 3.49,9.97 6.68,13.36 3.2,3.39 7.41,5.81 12.64,7.26 5.23,1.46 11.91,2.18 20.05,2.18 7.74,0 14.28,-0.72 19.61,-2.18 5.32,-1.45 9.58,-3.87 12.78,-7.26 3.19,-3.39 5.42,-7.84 6.68,-13.36 1.26,-5.52 1.89,-12.35 1.89,-20.48 z" /></g></svg>