<?xml version="1.0" encoding="UTF-8" standalone="no"?>
<svg
   xmlns:dc="http://purl.org/dc/elements/1.1/"
   xmlns:cc="http://creativecommons.org/ns#"
   xmlns:rdf="http://www.w3.org/1999/02/22-rdf-syntax-ns#"
   xmlns:svg="http://www.w3.org/2000/svg"
   xmlns="http://www.w3.org/2000/svg"
   viewBox="0 0 1000 1000"
   height="1000"
   width="1000"
   xml:space="preserve"
   id="svg2"
   version="1.1"><metadata
     id="metadata8"><rdf:RDF><cc:Work
         rdf:about=""><dc:format>image/svg+xml</dc:format><dc:type
           rdf:resource="http://purl.org/dc/dcmitype/StillImage" /></cc:Work></rdf:RDF></metadata><defs
     id="defs6" /><g
     transform="matrix(1.3333333,0,0,-1.3333333,0,1000)"
     id="g10"><path
       id="path12"
       style="fill:#00b0f0;fill-opacity:1;fill-rule:evenodd;stroke:none"
       d="M 63.24,375 C 63.24,547.18 202.82,686.76 375,686.76 547.18,686.76 686.76,547.18 686.76,375 686.76,202.82 547.18,63.24 375,63.24 202.82,63.24 63.24,202.82 63.24,375 Z m 53.45,0 C 116.69,232.34 232.34,116.69 375,116.69 517.66,116.69 633.31,232.34 633.31,375 633.31,517.66 517.66,633.31 375,633.31 232.34,633.31 116.69,517.66 116.69,375 Z" /><path
       id="path14"
       style="fill:#00b0f0;fill-opacity:1;fill-rule:evenodd;stroke:none"
       d="m 210.96,375 c 0,172.18 73.44,311.76 164.04,311.76 90.6,0 164.04,-139.58 164.04,-311.76 C 539.04,202.82 465.6,63.24 375,63.24 284.4,63.24 210.96,202.82 210.96,375 Z m 53.14,0 c 0,-142.83 49.65,-258.62 110.9,-258.62 61.25,0 110.9,115.79 110.9,258.62 0,142.83 -49.65,258.62 -110.9,258.62 -61.25,0 -110.9,-115.79 -110.9,-258.62 z" /><path
       id="path16"
       style="fill:#00b0f0;fill-opacity:1;fill-rule:evenodd;stroke:none"
       d="M 133.92,204.72 H 616.08 V 258.6 H 133.92 Z" /><path
       id="path18"
       style="fill:#00b0f0;fill-opacity:1;fill-rule:evenodd;stroke:none"
       d="m 133.92,491.4 h 482.16 v 53.88 H 133.92 Z" /><path
       id="path20"
       style="fill:#00b0f0;fill-opacity:1;fill-rule:evenodd;stroke:none"
       d="m 81.72,348.12 h 586.56 v 53.76 H 81.72 Z" /></g></svg>