<?xml version="1.0" encoding="UTF-8" standalone="no"?>
<svg
   xmlns:dc="http://purl.org/dc/elements/1.1/"
   xmlns:cc="http://creativecommons.org/ns#"
   xmlns:rdf="http://www.w3.org/1999/02/22-rdf-syntax-ns#"
   xmlns:svg="http://www.w3.org/2000/svg"
   xmlns="http://www.w3.org/2000/svg"
   viewBox="0 0 1000 1000"
   height="1000"
   width="1000"
   xml:space="preserve"
   id="svg2"
   version="1.1"><metadata
     id="metadata8"><rdf:RDF><cc:Work
         rdf:about=""><dc:format>image/svg+xml</dc:format><dc:type
           rdf:resource="http://purl.org/dc/dcmitype/StillImage" /></cc:Work></rdf:RDF></metadata><defs
     id="defs6" /><g
     transform="matrix(1.3333333,0,0,-1.3333333,0,1000)"
     id="g10"><path
       id="path12"
       style="fill:#ffc000;fill-opacity:1;fill-rule:nonzero;stroke:none"
       d="m 56.867,565.56 14.933,-0.23 15.94,-0.7 15.86,-1.15 15.73,-1.6 15.6,-2.01 15.45,-2.44 15.25,-2.82 15.03,-3.19 14.81,-3.57 14.53,-3.93 14.25,-4.27 13.92,-4.58 13.6,-4.92 13.21,-5.21 12.86,-5.52 12.42,-5.8 6.3,-3.12 5.97,-3.1 5.82,-3.15 5.74,-3.24 5.6,-3.31 5.46,-3.35 5.36,-3.44 5.21,-3.5 5.11,-3.6 4.94,-3.64 4.81,-3.7 4.74,-3.86 4.48,-3.83 4.43,-3.99 4.23,-4.03 4.06,-4.1 3.95,-4.24 3.76,-4.3 3.62,-4.45 3.36,-4.45 3.25,-4.64 3.02,-4.72 2.84,-4.85 2.61,-4.98 2.38,-5.11 2.12,-5.21 1.85,-5.29 1.59,-5.5 1.28,-5.57 0.95,-5.71 0.61,-5.68 0.26,-5.93 0.11,-3.65 0.21,-1.36 0.31,-1.6 0.41,-1.58 0.53,-1.67 0.66,-1.79 0.81,-1.89 0.98,-2.05 1.1,-2.04 1.28,-2.15 1.51,-2.32 1.63,-2.3 1.87,-2.46 2.06,-2.51 2.19,-2.5 2.43,-2.59 2.59,-2.6 2.82,-2.68 2.96,-2.66 3.15,-2.68 3.39,-2.76 3.45,-2.65 3.73,-2.75 3.8,-2.66 4.04,-2.71 4.14,-2.66 4.34,-2.66 4.48,-2.65 4.61,-2.6 4.73,-2.55 4.9,-2.55 5,-2.48 10.67,-4.99 10.88,-4.67 11.28,-4.44 11.73,-4.24 12.06,-3.97 12.41,-3.71 4.95,-1.33 c 18.64,-5.05 29.67,-24.26 24.61,-42.91 -5.05,-18.65 -24.26,-29.67 -42.91,-24.62 l -6.78,1.86 -14.24,4.29 -13.95,4.62 -13.59,4.95 -13.27,5.26 -12.86,5.56 -12.18,5.72 -6.09,3.04 -5.94,3.09 -5.88,3.19 -5.72,3.25 -5.6,3.32 -5.48,3.38 -5.39,3.47 -5.2,3.52 -5.16,3.64 -4.93,3.66 -4.9,3.8 -4.63,3.8 -4.58,3.93 -4.42,4.02 -4.23,4.07 -4.13,4.21 -3.93,4.28 -3.81,4.42 -3.57,4.46 -3.39,4.56 -3.26,4.75 -2.99,4.79 -2.83,4.98 -2.6,5.12 -2.31,5.15 -2.07,5.33 -1.8,5.46 -1.5,5.57 -1.18,5.7 -0.83,5.68 -0.49,5.93 -0.12,3.65 0.04,1.36 -0.1,1.6 -0.18,1.58 -0.32,1.71 -0.43,1.76 -0.61,1.94 -0.76,2.02 -0.9,2.07 -1.1,2.2 -1.27,2.28 -1.48,2.38 -1.64,2.42 -1.9,2.56 -2.01,2.52 -2.24,2.62 -2.41,2.63 -2.66,2.71 -2.82,2.72 -2.95,2.7 -3.24,2.78 -3.29,2.71 -3.55,2.75 -3.71,2.75 -3.84,2.72 -4.05,2.73 -4.17,2.69 -4.34,2.69 -4.48,2.65 -4.6,2.61 -4.78,2.6 -4.88,2.54 -4.79,2.4 -10.44,4.91 -10.87,4.7 -11.34,4.5 -11.72,4.26 -12.09,4.01 -12.41,3.74 -12.7,3.46 -12.96,3.15 -13.2,2.83 -13.4,2.51 -13.55,2.15 -13.68,1.8 -13.767,1.42 -13.843,1.03 -13.865,0.64 -14.932,0.22 c -19.317,0.3 -34.74,16.19 -34.449,35.51 0.291,19.31 16.186,34.74 35.503,34.45 z m 498.153,-327.4 -55.2,113.4 193.85,-132.24 -222.1,-75.73 z" /><path
       id="path14"
       style="fill:#ffc000;fill-opacity:1;fill-rule:nonzero;stroke:none"
       d="m 57.949,184.35 14.887,0.22 15.899,0.7 15.805,1.16 15.7,1.59 15.55,2.02 15.41,2.43 15.2,2.82 14.99,3.2 14.76,3.57 14.5,3.93 14.19,4.26 13.9,4.6 13.54,4.9 13.21,5.23 12.8,5.52 12.38,5.79 6.32,3.15 5.93,3.09 5.81,3.16 5.69,3.22 5.59,3.3 5.46,3.37 5.33,3.42 5.23,3.53 5.08,3.58 4.93,3.65 4.82,3.74 4.65,3.78 4.55,3.91 4.34,3.92 4.25,4.05 4.1,4.16 3.89,4.19 3.74,4.3 3.61,4.45 3.39,4.49 3.21,4.61 3.02,4.72 2.82,4.86 2.59,4.95 2.38,5.11 2.12,5.22 1.86,5.35 1.56,5.41 1.27,5.57 0.96,5.71 0.61,5.75 0.25,5.87 0.11,3.64 0.21,1.43 0.3,1.54 0.41,1.57 0.54,1.7 0.66,1.81 0.82,1.93 0.93,1.94 1.14,2.12 1.29,2.17 1.46,2.26 1.66,2.36 1.83,2.39 2.07,2.54 2.18,2.49 2.42,2.59 2.63,2.66 2.75,2.62 2.98,2.69 3.14,2.67 3.32,2.7 3.53,2.74 3.65,2.69 3.84,2.71 3.99,2.68 4.13,2.66 4.32,2.66 4.44,2.62 4.59,2.6 4.75,2.58 4.87,2.54 5,2.49 10.61,4.98 10.82,4.65 11.29,4.46 11.65,4.22 12.04,3.98 12.34,3.7 4.51,1.21 c 18.64,5.07 29.65,24.29 24.58,42.93 -5.07,18.65 -24.29,29.65 -42.93,24.58 l -6.31,-1.73 -14.24,-4.29 -13.88,-4.63 -13.58,-4.95 -13.19,-5.25 -12.86,-5.57 -12.17,-5.73 -6.06,-3.04 -5.92,-3.1 -5.82,-3.17 -5.73,-3.25 -5.59,-3.32 -5.46,-3.38 -5.38,-3.48 -5.22,-3.54 -5.08,-3.61 -4.98,-3.7 -4.8,-3.74 -4.68,-3.84 -4.56,-3.94 -4.39,-4 -4.28,-4.13 -4.05,-4.16 -3.92,-4.28 -3.81,-4.42 -3.53,-4.43 -3.43,-4.62 -3.21,-4.71 -3.02,-4.83 -2.81,-4.97 -2.55,-5.05 -2.35,-5.25 -2.05,-5.29 -1.78,-5.42 -1.49,-5.56 -1.19,-5.71 -0.83,-5.75 -0.48,-5.86 -0.12,-3.65 0.03,-1.42 -0.08,-1.54 -0.18,-1.58 -0.32,-1.71 -0.46,-1.84 -0.59,-1.9 -0.75,-2 -0.9,-2.08 -1.1,-2.21 -1.28,-2.28 -1.46,-2.38 -1.66,-2.45 -1.87,-2.53 -2,-2.52 -2.24,-2.62 -2.45,-2.68 -2.58,-2.65 -2.79,-2.7 -3.02,-2.75 -3.14,-2.72 -3.37,-2.76 -3.5,-2.74 -3.69,-2.75 -3.85,-2.73 -3.98,-2.7 -4.18,-2.71 -4.32,-2.67 -4.45,-2.64 -4.62,-2.63 -4.76,-2.59 -4.87,-2.55 -4.73,-2.38 -10.41,-4.91 -10.86,-4.71 -11.28,-4.49 -11.69,-4.26 -12.03,-4.01 -12.37,-3.74 -12.66,-3.45 -12.91,-3.15 -13.15,-2.83 -13.36,-2.51 -13.48,-2.15 -13.64,-1.79 -13.719,-1.43 -13.786,-1.03 -13.816,-0.64 -14.888,-0.22 v 0 C 37.575,254.01 22.152,238.11 22.444,218.79 22.736,199.48 38.632,184.05 57.949,184.35 Z M 554.08,511.63 498.97,398.18 692.71,530.58 470.55,606.13 Z" /></g></svg>