<?xml version="1.0" encoding="UTF-8" standalone="no"?>
<svg
   xmlns:dc="http://purl.org/dc/elements/1.1/"
   xmlns:cc="http://creativecommons.org/ns#"
   xmlns:rdf="http://www.w3.org/1999/02/22-rdf-syntax-ns#"
   xmlns:svg="http://www.w3.org/2000/svg"
   xmlns="http://www.w3.org/2000/svg"
   viewBox="0 0 1000 1000"
   height="1000"
   width="1000"
   xml:space="preserve"
   id="svg2"
   version="1.1"><metadata
     id="metadata8"><rdf:RDF><cc:Work
         rdf:about=""><dc:format>image/svg+xml</dc:format><dc:type
           rdf:resource="http://purl.org/dc/dcmitype/StillImage" /></cc:Work></rdf:RDF></metadata><defs
     id="defs6" /><g
     transform="matrix(1.3333333,0,0,-1.3333333,0,1000)"
     id="g10"><path
       id="path12"
       style="fill:#0070c0;fill-opacity:1;fill-rule:evenodd;stroke:none"
       d="m 62.52,375 c 0,172.58 139.9,312.48 312.48,312.48 172.58,0 312.48,-139.9 312.48,-312.48 C 687.48,202.42 547.58,62.52 375,62.52 202.42,62.52 62.52,202.42 62.52,375 Z" /><path
       id="path14"
       style="fill:#ffffff;fill-opacity:1;fill-rule:evenodd;stroke:none"
       d="M 602.07,299.26 C 560.24,173.86 424.67,106.1 299.26,147.93 173.86,189.76 106.1,325.33 147.93,450.74 c 41.83,125.4 177.4,193.16 302.81,151.33 47.47,-15.84 88.78,-46.15 118.13,-86.67 l 65.9,7.9 -59.44,-124.27 -160.41,97.9 61.27,7.35 c -71.4,55.88 -174.58,43.31 -230.47,-28.09 -55.88,-71.4 -43.31,-174.58 28.09,-230.47 71.4,-55.88 174.58,-43.31 230.47,28.09 11.57,14.78 20.52,31.44 26.46,49.24 z" /></g></svg>