<?xml version="1.0" encoding="UTF-8" standalone="no"?>
<svg
   xmlns:dc="http://purl.org/dc/elements/1.1/"
   xmlns:cc="http://creativecommons.org/ns#"
   xmlns:rdf="http://www.w3.org/1999/02/22-rdf-syntax-ns#"
   xmlns:svg="http://www.w3.org/2000/svg"
   xmlns="http://www.w3.org/2000/svg"
   viewBox="0 0 1000 1000"
   height="1000"
   width="1000"
   xml:space="preserve"
   id="svg2"
   version="1.1"><metadata
     id="metadata8"><rdf:RDF><cc:Work
         rdf:about=""><dc:format>image/svg+xml</dc:format><dc:type
           rdf:resource="http://purl.org/dc/dcmitype/StillImage" /></cc:Work></rdf:RDF></metadata><defs
     id="defs6"><clipPath
       id="clipPath20"
       clipPathUnits="userSpaceOnUse"><path
         style="clip-rule:evenodd"
         id="path18"
         d="M -2.2313e-5,750 H 750 V 2.4414e-4 L -1.8501e-5,1.8311e-4" /></clipPath></defs><g
     transform="matrix(1.3333333,0,0,-1.3333333,0,1000)"
     id="g10"><path
       id="path12"
       style="fill:#0070c0;fill-opacity:1;fill-rule:evenodd;stroke:none"
       d="m 51.24,454.98 c 0,142.26 115.3,257.58 257.52,257.58 142.22,0 257.52,-115.32 257.52,-257.58 0,-142.26 -115.3,-257.58 -257.52,-257.58 -142.22,0 -257.52,115.32 -257.52,257.58 z m 74.84,0 c 0,-100.92 81.79,-182.74 182.68,-182.74 100.89,0 182.68,81.82 182.68,182.74 0,100.92 -81.79,182.74 -182.68,182.74 -100.89,0 -182.68,-81.82 -182.68,-182.74 z" /><g
       id="g14"><g
         clip-path="url(#clipPath20)"
         id="g16"><path
           id="path22"
           style="fill:#0070c0;fill-opacity:1;fill-rule:evenodd;stroke:none"
           d="m 440.3,315.91 c 26.14,24.44 67.14,23.06 91.58,-3.08 L 692.72,140.77 c 24.43,-26.14 23.05,-67.14 -3.09,-91.576 v 0 C 663.49,24.759 622.49,26.14 598.05,52.28 L 437.21,224.34 c -24.43,26.14 -23.05,67.14 3.09,91.57 z" /></g></g></g></svg>