<?xml version="1.0" encoding="UTF-8" standalone="no"?>
<svg
   xmlns:dc="http://purl.org/dc/elements/1.1/"
   xmlns:cc="http://creativecommons.org/ns#"
   xmlns:rdf="http://www.w3.org/1999/02/22-rdf-syntax-ns#"
   xmlns:svg="http://www.w3.org/2000/svg"
   xmlns="http://www.w3.org/2000/svg"
   viewBox="0 0 1000 1000"
   height="1000"
   width="1000"
   xml:space="preserve"
   id="svg2"
   version="1.1"><metadata
     id="metadata8"><rdf:RDF><cc:Work
         rdf:about=""><dc:format>image/svg+xml</dc:format><dc:type
           rdf:resource="http://purl.org/dc/dcmitype/StillImage" /></cc:Work></rdf:RDF></metadata><defs
     id="defs6" /><g
     transform="matrix(1.3333333,0,0,-1.3333333,0,1000)"
     id="g10"><path
       id="path12"
       style="fill:#d9d9d9;fill-opacity:1;fill-rule:evenodd;stroke:none"
       d="m 126.75,685.92 h 496.5 c 31.3,0 56.67,-25.37 56.67,-56.67 V 64.08 H 70.08 v 565.17 c 0,31.3 25.37,56.67 56.67,56.67 z" /><path
       id="path14"
       style="fill:#ffffff;fill-opacity:1;fill-rule:evenodd;stroke:none"
       d="m 112.44,639.08 c 0,7.18 5.82,13 13,13 h 497.92 c 7.18,0 13,-5.82 13,-13 v -52 c 0,-7.18 -5.82,-13 -13,-13 H 125.44 c -7.18,0 -13,5.82 -13,13 z" /><path
       id="path16"
       style="fill:#ffffff;fill-opacity:1;fill-rule:evenodd;stroke:none"
       d="m 112.44,516.27 c 0,12.18 9.87,22.05 22.05,22.05 h 479.82 c 12.18,0 22.05,-9.87 22.05,-22.05 V 118.53 c 0,-12.18 -9.87,-22.05 -22.05,-22.05 H 134.49 c -12.18,0 -22.05,9.87 -22.05,22.05 z" /><path
       id="path18"
       style="fill:none;stroke:#000000;stroke-width:6;stroke-linecap:butt;stroke-linejoin:miter;stroke-miterlimit:10;stroke-dasharray:none;stroke-opacity:1"
       d="m 127.56,602.96 c 10.87,13.64 21.75,27.29 36,27.04 14.25,-0.25 33.5,-27.79 49.5,-28.54 16,-0.75 23.5,25.28 46.5,24.03 23,-1.25 72,-31.79 91.5,-31.54 19.5,0.25 0.25,34.29 25.5,33.04 25.25,-1.25 96.5,-40.55 126,-40.55 29.5,0 40.25,20.28 51,40.55" /><path
       id="path20"
       style="fill:#f2f2f2;fill-opacity:1;fill-rule:evenodd;stroke:none"
       d="m 157.56,427.44 h 435 V 510 h -435 z" /><path
       id="path22"
       style="fill:#f2f2f2;fill-opacity:1;fill-rule:evenodd;stroke:none"
       d="m 157.56,371.04 h 435 v 29.76 h -435 z" /><path
       id="path24"
       style="fill:#f2f2f2;fill-opacity:1;fill-rule:evenodd;stroke:none"
       d="m 157.56,314.76 h 435 v 29.64 h -435 z" /><path
       id="path26"
       style="fill:#f2f2f2;fill-opacity:1;fill-rule:evenodd;stroke:none"
       d="m 157.56,258.36 h 435 v 29.76 h -435 z" /><path
       id="path28"
       style="fill:#f2f2f2;fill-opacity:1;fill-rule:evenodd;stroke:none"
       d="m 157.56,202.08 h 435 v 29.64 h -435 z" /><path
       id="path30"
       style="fill:#f2f2f2;fill-opacity:1;fill-rule:evenodd;stroke:none"
       d="m 157.56,145.68 h 435 v 29.64 h -435 z" /></g></svg>