<?xml version="1.0" encoding="UTF-8" standalone="no"?>
<!-- Created with Inkscape (http://www.inkscape.org/) -->

<svg
   xmlns:dc="http://purl.org/dc/elements/1.1/"
   xmlns:cc="http://creativecommons.org/ns#"
   xmlns:rdf="http://www.w3.org/1999/02/22-rdf-syntax-ns#"
   xmlns:svg="http://www.w3.org/2000/svg"
   xmlns="http://www.w3.org/2000/svg"
   xmlns:sodipodi="http://sodipodi.sourceforge.net/DTD/sodipodi-0.dtd"
   xmlns:inkscape="http://www.inkscape.org/namespaces/inkscape"
   version="1.1"
   id="svg2"
   xml:space="preserve"
   width="1000"
   height="1000"
   viewBox="0 0 1000 1000"
   sodipodi:docname="html_playlist.svg"
   inkscape:version="0.92.2 (5c3e80d, 2017-08-06)"
   inkscape:export-filename="C:\Users\nikla\Documents\GitHubBeta\MavenRewriteJavaMusicVideoManager\ImageResources\menu\html_playlist.png"
   inkscape:export-xdpi="1.5360003"
   inkscape:export-ydpi="1.5360003"><metadata
     id="metadata8"><rdf:RDF><cc:Work
         rdf:about=""><dc:format>image/svg+xml</dc:format><dc:type
           rdf:resource="http://purl.org/dc/dcmitype/StillImage" /><dc:title></dc:title></cc:Work></rdf:RDF></metadata><defs
     id="defs6"><clipPath
       clipPathUnits="userSpaceOnUse"
       id="clipPath18"><path
         d="M 0,1.8311e-4 H 750 V 750.00018 H 0 Z"
         id="path16"
         inkscape:connector-curvature="0"
         style="clip-rule:evenodd" /></clipPath><clipPath
       clipPathUnits="userSpaceOnUse"
       id="clipPath48"><path
         d="M -2.008e-6,750 H 750 V 1.8311e-4 H -2.008e-6"
         id="path46"
         inkscape:connector-curvature="0"
         style="clip-rule:evenodd" /></clipPath></defs><sodipodi:namedview
     pagecolor="#ffffff"
     bordercolor="#666666"
     borderopacity="1"
     objecttolerance="10"
     gridtolerance="10"
     guidetolerance="10"
     inkscape:pageopacity="0"
     inkscape:pageshadow="2"
     inkscape:window-width="1222"
     inkscape:window-height="777"
     id="namedview4"
     showgrid="false"
     inkscape:zoom="0.236"
     inkscape:cx="500"
     inkscape:cy="500"
     inkscape:window-x="0"
     inkscape:window-y="0"
     inkscape:window-maximized="0"
     inkscape:current-layer="g10" /><g
     id="g10"
     inkscape:groupmode="layer"
     inkscape:label="menu"
     transform="matrix(1.3333333,0,0,-1.3333333,0,1000)"><path
       d="m 126.75,685.92 h 496.5 c 31.3,0 56.67,-25.37 56.67,-56.67 V 64.08 H 70.08 v 565.17 c 0,31.3 25.37,56.67 56.67,56.67 z"
       style="fill:#d9d9d9;fill-opacity:1;fill-rule:evenodd;stroke:none"
       id="path22"
       inkscape:connector-curvature="0" /><path
       d="m 112.44,639.08 c 0,7.18 5.82,13 13,13 h 497.92 c 7.18,0 13,-5.82 13,-13 v -52 c 0,-7.18 -5.82,-13 -13,-13 H 125.44 c -7.18,0 -13,5.82 -13,13 z"
       style="fill:#ffffff;fill-opacity:1;fill-rule:evenodd;stroke:none"
       id="path24"
       inkscape:connector-curvature="0" /><path
       d="m 112.44,516.27 c 0,12.18 9.87,22.05 22.05,22.05 h 479.82 c 12.18,0 22.05,-9.87 22.05,-22.05 V 118.53 c 0,-12.18 -9.87,-22.05 -22.05,-22.05 H 134.49 c -12.18,0 -22.05,9.87 -22.05,22.05 z"
       style="fill:#ffffff;fill-opacity:1;fill-rule:evenodd;stroke:none"
       id="path26"
       inkscape:connector-curvature="0" /><path
       d="m 127.56,602.96 c 10.87,13.64 21.75,27.29 36,27.04 14.25,-0.25 33.5,-27.79 49.5,-28.54 16,-0.75 23.5,25.28 46.5,24.03 23,-1.25 72,-31.79 91.5,-31.54 19.5,0.25 0.25,34.29 25.5,33.04 25.25,-1.25 96.5,-40.55 126,-40.55 29.5,0 40.25,20.28 51,40.55"
       style="fill:none;stroke:#000000;stroke-width:6;stroke-linecap:butt;stroke-linejoin:miter;stroke-miterlimit:10;stroke-dasharray:none;stroke-opacity:1"
       id="path28"
       inkscape:connector-curvature="0" /><path
       d="m 157.56,427.44 h 435 V 510 h -435 z"
       style="fill:#f2f2f2;fill-opacity:1;fill-rule:evenodd;stroke:none"
       id="path30"
       inkscape:connector-curvature="0" /><path
       d="m 157.56,371.04 h 435 v 29.76 h -435 z"
       style="fill:#f2f2f2;fill-opacity:1;fill-rule:evenodd;stroke:none"
       id="path32"
       inkscape:connector-curvature="0" /><path
       d="m 157.56,314.76 h 435 v 29.64 h -435 z"
       style="fill:#f2f2f2;fill-opacity:1;fill-rule:evenodd;stroke:none"
       id="path34"
       inkscape:connector-curvature="0" /><path
       d="m 157.56,258.36 h 435 v 29.76 h -435 z"
       style="fill:#f2f2f2;fill-opacity:1;fill-rule:evenodd;stroke:none"
       id="path36"
       inkscape:connector-curvature="0" /><path
       d="m 157.56,202.08 h 435 v 29.64 h -435 z"
       style="fill:#f2f2f2;fill-opacity:1;fill-rule:evenodd;stroke:none"
       id="path38"
       inkscape:connector-curvature="0" /><path
       d="m 157.56,145.68 h 435 v 29.64 h -435 z"
       style="fill:#f2f2f2;fill-opacity:1;fill-rule:evenodd;stroke:none"
       id="path40"
       inkscape:connector-curvature="0" /><g
       id="g42"><g
         id="g44"
         clip-path="url(#clipPath48)"><path
           d="M 172.08,524.52 405.12,407.28 172.08,290.04 Z"
           style="fill:#4472c4;fill-opacity:1;fill-rule:evenodd;stroke:none"
           id="path50"
           inkscape:connector-curvature="0" /></g></g><path
       d="m 191.64,134.64 h 385.08 v 58.08 H 191.64 Z"
       style="fill:#4472c4;fill-opacity:1;fill-rule:evenodd;stroke:none"
       id="path52"
       inkscape:connector-curvature="0" /><path
       d="M 256.2,227.52 H 576.72 V 285.6 H 256.2 Z"
       style="fill:#4472c4;fill-opacity:1;fill-rule:evenodd;stroke:none"
       id="path54"
       inkscape:connector-curvature="0" /><path
       d="m 377.04,316.8 h 199.68 v 57.96 H 377.04 Z"
       style="fill:#4472c4;fill-opacity:1;fill-rule:evenodd;stroke:none"
       id="path56"
       inkscape:connector-curvature="0" /></g></svg>