<?xml version="1.0" encoding="UTF-8" standalone="no"?>
<svg
   xmlns:dc="http://purl.org/dc/elements/1.1/"
   xmlns:cc="http://creativecommons.org/ns#"
   xmlns:rdf="http://www.w3.org/1999/02/22-rdf-syntax-ns#"
   xmlns:svg="http://www.w3.org/2000/svg"
   xmlns="http://www.w3.org/2000/svg"
   viewBox="0 0 1000 1000"
   height="1000"
   width="1000"
   xml:space="preserve"
   id="svg2"
   version="1.1"><metadata
     id="metadata8"><rdf:RDF><cc:Work
         rdf:about=""><dc:format>image/svg+xml</dc:format><dc:type
           rdf:resource="http://purl.org/dc/dcmitype/StillImage" /></cc:Work></rdf:RDF></metadata><defs
     id="defs6" /><g
     transform="matrix(1.3333333,0,0,-1.3333333,0,1000)"
     id="g10"><path
       id="path12"
       style="fill:#2b2b2b;fill-opacity:1;fill-rule:evenodd;stroke:none"
       d="m 375,522.74 c -47.63,0 -86.24,-66.15 -86.24,-147.74 0,-81.59 38.61,-147.74 86.24,-147.74 47.63,0 86.24,66.15 86.24,147.74 0,81.59 -38.61,147.74 -86.24,147.74 z m 0,164.86 C 547.64,687.6 687.6,547.64 687.6,375 687.6,202.36 547.64,62.4 375,62.4 202.36,62.4 62.4,202.36 62.4,375 62.4,547.64 202.36,687.6 375,687.6 Z" /></g></svg>