<?xml version="1.0" encoding="UTF-8" standalone="no"?>
<!-- Created with Inkscape (http://www.inkscape.org/) -->

<svg
   xmlns:dc="http://purl.org/dc/elements/1.1/"
   xmlns:cc="http://creativecommons.org/ns#"
   xmlns:rdf="http://www.w3.org/1999/02/22-rdf-syntax-ns#"
   xmlns:svg="http://www.w3.org/2000/svg"
   xmlns="http://www.w3.org/2000/svg"
   xmlns:sodipodi="http://sodipodi.sourceforge.net/DTD/sodipodi-0.dtd"
   xmlns:inkscape="http://www.inkscape.org/namespaces/inkscape"
   version="1.1"
   id="svg2"
   xml:space="preserve"
   width="1000"
   height="1000"
   viewBox="0 0 1000 1000"
   sodipodi:docname="refresh.svg"
   inkscape:version="0.92.2 (5c3e80d, 2017-08-06)"
   inkscape:export-filename="C:\Users\nikla\Documents\GitHubBeta\MavenRewriteJavaMusicVideoManager\ImageResources\menu\refresh.png"
   inkscape:export-xdpi="1.5360003"
   inkscape:export-ydpi="1.5360003"><metadata
     id="metadata8"><rdf:RDF><cc:Work
         rdf:about=""><dc:format>image/svg+xml</dc:format><dc:type
           rdf:resource="http://purl.org/dc/dcmitype/StillImage" /><dc:title></dc:title></cc:Work></rdf:RDF></metadata><defs
     id="defs6"><clipPath
       clipPathUnits="userSpaceOnUse"
       id="clipPath18"><path
         d="M 0,1.8311e-4 H 750 V 750.00018 H 0 Z"
         id="path16"
         inkscape:connector-curvature="0"
         style="clip-rule:evenodd" /></clipPath></defs><sodipodi:namedview
     pagecolor="#ffffff"
     bordercolor="#666666"
     borderopacity="1"
     objecttolerance="10"
     gridtolerance="10"
     guidetolerance="10"
     inkscape:pageopacity="0"
     inkscape:pageshadow="2"
     inkscape:window-width="1150"
     inkscape:window-height="684"
     id="namedview4"
     showgrid="false"
     inkscape:zoom="0.236"
     inkscape:cx="500"
     inkscape:cy="500"
     inkscape:window-x="0"
     inkscape:window-y="0"
     inkscape:window-maximized="0"
     inkscape:current-layer="g10" /><g
     id="g10"
     inkscape:groupmode="layer"
     inkscape:label="menu"
     transform="matrix(1.3333333,0,0,-1.3333333,0,1000)"><path
       d="m 62.52,375 c 0,172.58 139.9,312.48 312.48,312.48 172.58,0 312.48,-139.9 312.48,-312.48 C 687.48,202.42 547.58,62.52 375,62.52 202.42,62.52 62.52,202.42 62.52,375 Z"
       style="fill:#0070c0;fill-opacity:1;fill-rule:evenodd;stroke:none"
       id="path22"
       inkscape:connector-curvature="0" /><path
       d="M 602.07,299.26 C 560.24,173.86 424.67,106.1 299.26,147.93 173.86,189.76 106.1,325.33 147.93,450.74 c 41.83,125.4 177.4,193.16 302.81,151.33 47.47,-15.84 88.78,-46.15 118.13,-86.67 l 65.9,7.9 -59.44,-124.27 -160.41,97.9 61.27,7.35 c -71.4,55.88 -174.58,43.31 -230.47,-28.09 -55.88,-71.4 -43.31,-174.58 28.09,-230.47 71.4,-55.88 174.58,-43.31 230.47,28.09 11.57,14.78 20.52,31.44 26.46,49.24 z"
       style="fill:#ffffff;fill-opacity:1;fill-rule:evenodd;stroke:none"
       id="path24"
       inkscape:connector-curvature="0" /></g></svg>