<?xml version="1.0" encoding="UTF-8" standalone="no"?>
<!-- Created with Inkscape (http://www.inkscape.org/) -->

<svg
   xmlns:dc="http://purl.org/dc/elements/1.1/"
   xmlns:cc="http://creativecommons.org/ns#"
   xmlns:rdf="http://www.w3.org/1999/02/22-rdf-syntax-ns#"
   xmlns:svg="http://www.w3.org/2000/svg"
   xmlns="http://www.w3.org/2000/svg"
   xmlns:sodipodi="http://sodipodi.sourceforge.net/DTD/sodipodi-0.dtd"
   xmlns:inkscape="http://www.inkscape.org/namespaces/inkscape"
   version="1.1"
   id="svg2"
   xml:space="preserve"
   width="1000"
   height="1000"
   viewBox="0 0 1000 1000"
   sodipodi:docname="search.svg"
   inkscape:version="0.92.2 (5c3e80d, 2017-08-06)"
   inkscape:export-filename="C:\Users\nikla\Documents\GitHubBeta\MavenRewriteJavaMusicVideoManager\ImageResources\menu\search.png"
   inkscape:export-xdpi="1.5360003"
   inkscape:export-ydpi="1.5360003"><metadata
     id="metadata8"><rdf:RDF><cc:Work
         rdf:about=""><dc:format>image/svg+xml</dc:format><dc:type
           rdf:resource="http://purl.org/dc/dcmitype/StillImage" /><dc:title></dc:title></cc:Work></rdf:RDF></metadata><defs
     id="defs6"><clipPath
       clipPathUnits="userSpaceOnUse"
       id="clipPath18"><path
         d="M 0,1.8311e-4 H 750 V 750.00018 H 0 Z"
         id="path16"
         inkscape:connector-curvature="0"
         style="clip-rule:evenodd" /></clipPath><clipPath
       clipPathUnits="userSpaceOnUse"
       id="clipPath30"><path
         d="M -2.2313e-5,750 H 750 V 2.4414e-4 L -1.8501e-5,1.8311e-4"
         id="path28"
         inkscape:connector-curvature="0"
         style="clip-rule:evenodd" /></clipPath></defs><sodipodi:namedview
     pagecolor="#ffffff"
     bordercolor="#666666"
     borderopacity="1"
     objecttolerance="10"
     gridtolerance="10"
     guidetolerance="10"
     inkscape:pageopacity="0"
     inkscape:pageshadow="2"
     inkscape:window-width="828"
     inkscape:window-height="480"
     id="namedview4"
     showgrid="false"
     inkscape:zoom="0.236"
     inkscape:cx="500"
     inkscape:cy="500"
     inkscape:window-x="0"
     inkscape:window-y="0"
     inkscape:window-maximized="0"
     inkscape:current-layer="g10" /><g
     id="g10"
     inkscape:groupmode="layer"
     inkscape:label="menu"
     transform="matrix(1.3333333,0,0,-1.3333333,0,1000)"><path
       d="m 51.24,454.98 c 0,142.26 115.3,257.58 257.52,257.58 142.22,0 257.52,-115.32 257.52,-257.58 0,-142.26 -115.3,-257.58 -257.52,-257.58 -142.22,0 -257.52,115.32 -257.52,257.58 z m 74.84,0 c 0,-100.92 81.79,-182.74 182.68,-182.74 100.89,0 182.68,81.82 182.68,182.74 0,100.92 -81.79,182.74 -182.68,182.74 -100.89,0 -182.68,-81.82 -182.68,-182.74 z"
       style="fill:#0070c0;fill-opacity:1;fill-rule:evenodd;stroke:none"
       id="path22"
       inkscape:connector-curvature="0" /><g
       id="g24"><g
         id="g26"
         clip-path="url(#clipPath30)"><path
           d="m 440.3,315.91 c 26.14,24.44 67.14,23.06 91.58,-3.08 L 692.72,140.77 c 24.43,-26.14 23.05,-67.14 -3.09,-91.576 v 0 C 663.49,24.759 622.49,26.14 598.05,52.28 L 437.21,224.34 c -24.43,26.14 -23.05,67.14 3.09,91.57 z"
           style="fill:#0070c0;fill-opacity:1;fill-rule:evenodd;stroke:none"
           id="path32"
           inkscape:connector-curvature="0" /></g></g></g></svg>