<?xml version="1.0" encoding="UTF-8" standalone="no"?>
<svg
   xmlns:dc="http://purl.org/dc/elements/1.1/"
   xmlns:cc="http://creativecommons.org/ns#"
   xmlns:rdf="http://www.w3.org/1999/02/22-rdf-syntax-ns#"
   xmlns:svg="http://www.w3.org/2000/svg"
   xmlns="http://www.w3.org/2000/svg"
   viewBox="0 0 1000 1000"
   height="1000"
   width="1000"
   xml:space="preserve"
   id="svg2"
   version="1.1"><metadata
     id="metadata8"><rdf:RDF><cc:Work
         rdf:about=""><dc:format>image/svg+xml</dc:format><dc:type
           rdf:resource="http://purl.org/dc/dcmitype/StillImage" /></cc:Work></rdf:RDF></metadata><defs
     id="defs6"><clipPath
       id="clipPath18"
       clipPathUnits="userSpaceOnUse"><path
         style="clip-rule:evenodd"
         id="path16"
         d="M 0,1.8311e-4 H 750 V 750.00018 H 0 Z" /></clipPath><linearGradient
       id="linearGradient50"
       spreadMethod="pad"
       gradientUnits="userSpaceOnUse"
       y2="69.239998"
       x2="680.76001"
       y1="1292.28"
       x1="-542.28003"><stop
         id="stop24"
         offset="0"
         style="stop-opacity:1;stop-color:#7030a0" /><stop
         id="stop26"
         offset="0.094085"
         style="stop-opacity:1;stop-color:#002060" /><stop
         id="stop28"
         offset="0.155"
         style="stop-opacity:1;stop-color:#00b0f0" /><stop
         id="stop30"
         offset="0.23734"
         style="stop-opacity:1;stop-color:#00b050" /><stop
         id="stop32"
         offset="0.33524"
         style="stop-opacity:1;stop-color:#ffc000" /><stop
         id="stop34"
         offset="0.385"
         style="stop-opacity:1;stop-color:#ed7d31" /><stop
         id="stop36"
         offset="0.5"
         style="stop-opacity:1;stop-color:#c00000" /><stop
         id="stop38"
         offset="0.615"
         style="stop-opacity:1;stop-color:#ed7d31" /><stop
         id="stop40"
         offset="0.66476"
         style="stop-opacity:1;stop-color:#ffc000" /><stop
         id="stop42"
         offset="0.76266"
         style="stop-opacity:1;stop-color:#00b050" /><stop
         id="stop44"
         offset="0.845"
         style="stop-opacity:1;stop-color:#00b0f0" /><stop
         id="stop46"
         offset="0.90592"
         style="stop-opacity:1;stop-color:#002060" /><stop
         id="stop48"
         offset="1"
         style="stop-opacity:1;stop-color:#7030a0" /></linearGradient></defs><g
     transform="matrix(1.3333333,0,0,-1.3333333,0,1000)"
     id="g10"><g
       id="g12"><g
         clip-path="url(#clipPath18)"
         id="g14"><path
           id="path20"
           style="fill:#000000;fill-opacity:1;fill-rule:evenodd;stroke:none"
           d="M 375,750 C 582.11,750 750,582.11 750,375 750,167.89 582.11,6.1035e-5 375,6.1035e-5 316.75,6.1035e-5 261.6,13.281 212.42,36.979 l -4.24,2.173 14.54,16.124 C 275.25,113.49 334.31,178.87 364.99,213.16 l 4.24,-3.8 c 11.38,-10.19 28.88,-9.21 39.07,2.18 7.64,8.54 9.01,20.51 4.41,30.27 l -0.73,1.21 0.37,0.02 c 69,3.83 121.82,62.88 117.99,131.88 -1.92,34.5 -17.64,64.96 -41.5,86.31 -20.88,18.68 -48,30.4 -77.57,31.75 -4.22,0.19 -8.5,0.17 -12.81,-0.07 -69,-3.83 -121.83,-62.87 -117.99,-131.87 l 0.02,-0.37 -1.29,0.59 c -10.2,3.49 -21.95,0.8 -29.6,-7.74 -10.19,-11.39 -9.21,-28.88 2.18,-39.07 l 4.23,-3.79 -163.233,-182.44 -7.145,8.25 C 32.136,201.29 0,284.39 0,375 0,582.11 167.89,750 375,750 Z" /></g></g><g
       id="g22"><path
         id="path52"
         style="fill:url(#linearGradient50);fill-opacity:1;fill-rule:evenodd;stroke:none"
         d="M 69.24,375 C 69.24,543.87 206.13,680.76 375,680.76 543.87,680.76 680.76,543.87 680.76,375 680.76,206.13 543.87,69.24 375,69.24 206.13,69.24 69.24,206.13 69.24,375 Z" /></g><path
       id="path54"
       style="fill:#ffffff;fill-opacity:1;fill-rule:evenodd;stroke:none"
       d="m 411.27,492.95 c 29.56,-1.35 56.67,-13.07 77.56,-31.75 23.86,-21.35 39.58,-51.8 41.49,-86.3 3.84,-68.99 -48.99,-128.03 -117.98,-131.86 l -0.37,-0.02 0.73,-1.22 c 4.6,-9.75 3.24,-21.72 -4.41,-30.26 -10.19,-11.39 -27.68,-12.36 -39.07,-2.17 l -4.23,3.79 C 329.93,173.98 257.8,94.189 200.73,30.899 L 189.96,18.96 175.06,26.594 C 137.87,46.797 104.48,73.109 76.234,104.18 l -2.434,2.81 182.22,203.66 -4.24,3.79 c -11.39,10.19 -12.36,27.68 -2.17,39.07 7.64,8.54 19.39,11.22 29.6,7.73 l 1.28,-0.59 -0.02,0.37 c -3.83,68.99 48.99,128.03 117.99,131.86 4.31,0.24 8.58,0.26 12.81,0.07 z" /></g></svg>