<?xml version="1.0" encoding="UTF-8" standalone="no"?>
<!-- Created with Inkscape (http://www.inkscape.org/) -->

<svg
   xmlns:dc="http://purl.org/dc/elements/1.1/"
   xmlns:cc="http://creativecommons.org/ns#"
   xmlns:rdf="http://www.w3.org/1999/02/22-rdf-syntax-ns#"
   xmlns:svg="http://www.w3.org/2000/svg"
   xmlns="http://www.w3.org/2000/svg"
   xmlns:sodipodi="http://sodipodi.sourceforge.net/DTD/sodipodi-0.dtd"
   xmlns:inkscape="http://www.inkscape.org/namespaces/inkscape"
   width="1e3"
   height="1e3"
   version="1.1"
   viewBox="0 0 1e3 1e3"
   xml:space="preserve"
   id="svg53"
   sodipodi:docname="logo.svg"
   inkscape:version="0.92.2 (5c3e80d, 2017-08-06)"><sodipodi:namedview
     pagecolor="#ffffff"
     bordercolor="#666666"
     borderopacity="1"
     objecttolerance="10"
     gridtolerance="10"
     guidetolerance="10"
     inkscape:pageopacity="0"
     inkscape:pageshadow="2"
     inkscape:window-width="640"
     inkscape:window-height="480"
     id="namedview55"
     showgrid="false"
     inkscape:zoom="0.3337544"
     inkscape:cx="517.57941"
     inkscape:cy="518.50573"
     inkscape:window-x="0"
     inkscape:window-y="0"
     inkscape:window-maximized="0"
     inkscape:current-layer="g51" /><metadata
     id="metadata2"><rdf:RDF><cc:Work
         rdf:about=""><dc:format>image/svg+xml</dc:format><dc:type
           rdf:resource="http://purl.org/dc/dcmitype/StillImage" /><dc:title /></cc:Work></rdf:RDF></metadata><defs
     id="defs37"><clipPath
       id="clipPath18"><path
         d="m0 1.8311e-4h750v750h-750z"
         clip-rule="evenodd"
         id="path4" /></clipPath><clipPath
       id="clipPath28"><path
         d="m0 1.8311e-4h750v750h-750z"
         clip-rule="evenodd"
         id="path7" /></clipPath><linearGradient
       id="linearGradient60"
       x1="-542.28"
       x2="680.76"
       y1="1292.3"
       y2="69.24"
       gradientUnits="userSpaceOnUse"><stop
         stop-color="#7030a0"
         offset="0"
         id="stop10" /><stop
         stop-color="#002060"
         offset=".094085"
         id="stop12" /><stop
         stop-color="#00b0f0"
         offset=".155"
         id="stop14" /><stop
         stop-color="#00b050"
         offset=".23734"
         id="stop16" /><stop
         stop-color="#ffc000"
         offset=".33524"
         id="stop18" /><stop
         stop-color="#ed7d31"
         offset=".385"
         id="stop20" /><stop
         stop-color="#c00000"
         offset=".5"
         id="stop22" /><stop
         stop-color="#ed7d31"
         offset=".615"
         id="stop24" /><stop
         stop-color="#ffc000"
         offset=".66476"
         id="stop26" /><stop
         stop-color="#00b050"
         offset=".76266"
         id="stop28" /><stop
         stop-color="#00b0f0"
         offset=".845"
         id="stop30" /><stop
         stop-color="#002060"
         offset=".90592"
         id="stop32" /><stop
         stop-color="#7030a0"
         offset="1"
         id="stop34" /></linearGradient></defs><g
     transform="matrix(1.3333 0 0 -1.3333 0 1e3)"
     id="g51"><g
       clip-path="url(#clipPath28)"
       id="g45"><path
         d="m0 375c0 207.11 167.89 375 375 375s375-167.89 375-375-167.89-375-375-375-375 167.89-375 375z"
         fill-rule="evenodd"
         id="path43" /></g><path
       d="m69.24 375c0 168.87 136.89 305.76 305.76 305.76s305.76-136.89 305.76-305.76-136.89-305.76-305.76-305.76-305.76 136.89-305.76 305.76z"
       fill="url(#linearGradient60)"
       fill-rule="evenodd"
       id="path47" /><path
       d="m432.47 511.67c29.57-1.35 56.7-13.07 77.58-31.75 23.87-21.36 39.6-51.82 41.51-86.33 3.84-69.01-49-128.06-118.01-131.9l-0.37-0.02 0.73-1.21c4.6-9.75 3.24-21.73-4.41-30.27-10.19-11.4-27.69-12.37-39.08-2.18l-4.24 3.8c-35.06-39.2-107.21-119-164.3-182.31l-10.76-11.942-14.91 7.636c-37.21 20.208-70.6 46.527-98.856 77.604l-2.434 2.81 182.27 203.71-4.24 3.79c-11.39 10.2-12.36 27.69-2.17 39.08 7.64 8.55 19.4 11.23 29.6 7.74l1.29-0.59-0.02 0.37c-3.84 69.01 49 128.06 118.01 131.89 4.31 0.24 8.59 0.26 12.81 0.07z"
       fill="#fff"
       fill-rule="evenodd"
       id="path49" /></g></svg>